<svg xmlns="http://www.w3.org/2000/svg" viewBox="0 0 500 500"><g id="freepik--Confetti--inject-40"><polygon points="223.04 140.98 219.07 146.14 227 149.71 223.04 140.98" style="fill:#65C3C8"></polygon><polygon points="248.75 248.55 253.85 244.52 247.03 239.12 248.75 248.55" style="fill:#65C3C8"></polygon><polygon points="184.64 134.76 184.26 128.26 175.93 130.77 184.64 134.76" style="fill:#65C3C8"></polygon><polygon points="208.75 241.34 204.79 246.5 212.72 250.07 208.75 241.34" style="fill:#65C3C8"></polygon><polygon points="68.72 205.66 64.76 210.81 72.69 214.38 68.72 205.66" style="fill:#65C3C8"></polygon><polygon points="203.2 171.92 209.55 172.32 208.75 179.46 201.22 177.48 203.2 171.92" style="fill:#65C3C8"></polygon><polygon points="224 214.55 220.99 220.16 214.83 216.46 219.78 210.43 224 214.55" style="fill:#65C3C8"></polygon><polygon points="407.39 238.42 404.38 244.03 398.22 240.33 403.17 234.31 407.39 238.42" style="fill:#65C3C8"></polygon><polygon points="184.57 257.04 190.92 257.43 190.13 264.57 182.59 262.59 184.57 257.04" style="fill:#65C3C8"></polygon><path d="M237.71,182.24l4,.79s-6,4-3.17,7.14-2,6-2,6L233,193.74s3.18-2.38,1.59-5.55S237.71,182.24,237.71,182.24Z" style="fill:#65C3C8"></path><path d="M325.81,177.33l4,.8s-5.95,4-3.17,7.14-2,5.95-2,5.95l-3.57-2.38s3.17-2.38,1.58-5.56S325.81,177.33,325.81,177.33Z" style="fill:#65C3C8"></path><polygon points="245.82 130.48 242.18 135.87 250.32 138.95 245.82 130.48" style="fill:#65C3C8"></polygon><polygon points="305.01 113.36 301.37 118.75 309.51 121.83 305.01 113.36" style="fill:#65C3C8"></polygon><polygon points="394.74 108.18 391.1 113.57 399.24 116.64 394.74 108.18" style="fill:#65C3C8"></polygon><polygon points="275.03 116.24 277.25 110.12 268.6 109.13 275.03 116.24" style="fill:#65C3C8"></polygon><polygon points="273.39 140.59 274.56 134.34 281.55 135.99 278.67 143.24 273.39 140.59" style="fill:#65C3C8"></polygon><polygon points="370.18 137.56 371.34 131.3 378.33 132.96 375.45 140.2 370.18 137.56" style="fill:#65C3C8"></polygon><polygon points="401.87 198.97 403.03 192.72 410.02 194.37 407.14 201.61 401.87 198.97" style="fill:#65C3C8"></polygon><polygon points="287.65 166.74 288.81 160.49 295.81 162.14 292.92 169.38 287.65 166.74" style="fill:#65C3C8"></polygon><path d="M342,148.31l-4,.44s4.47-5.58.86-7.76.08-6.27.08-6.27L343,135.9s-2.3,3.23.17,5.77S342,148.31,342,148.31Z" style="fill:#65C3C8"></path><path d="M183.67,280.18l4,.79s-5.95,4-3.17,7.14-2,5.95-2,5.95l-3.57-2.38s3.18-2.38,1.59-5.55S183.67,280.18,183.67,280.18Z" style="fill:#65C3C8"></path><polygon points="297.64 234.8 293.67 239.96 301.61 243.53 297.64 234.8" style="fill:#65C3C8"></polygon><polygon points="430.97 287.82 427 292.98 434.93 296.55 430.97 287.82" style="fill:#65C3C8"></polygon><polygon points="317.8 210.28 324.15 210.68 323.35 217.82 315.82 215.84 317.8 210.28" style="fill:#65C3C8"></polygon><polygon points="341.52 270.52 347.86 270.92 347.07 278.06 339.53 276.08 341.52 270.52" style="fill:#65C3C8"></polygon><path d="M310.2,276.93l4,.79s-5.95,4-3.18,7.14-2,5.95-2,5.95l-3.57-2.38s3.17-2.38,1.59-5.55S310.2,276.93,310.2,276.93Z" style="fill:#65C3C8"></path><path d="M214.34,123.08l-2.49.58s1.06-5.28-2-7.11-2-5.72-2-5.72l3.1.9a6.32,6.32,0,0,0,2,5.25C215.4,119.19,214.34,123.08,214.34,123.08Z" style="fill:#65C3C8"></path><path d="M179.19,109l-2.5.58s1.07-5.29-2-7.12-2-5.71-2-5.71l3.11.89a6.34,6.34,0,0,0,2.05,5.26C180.24,105.07,179.19,109,179.19,109Z" style="fill:#65C3C8"></path><path d="M347,106l-2.49.58s1.06-5.28-2-7.11-2-5.72-2-5.72l3.1.9a6.32,6.32,0,0,0,2.05,5.25C348,102.09,347,106,347,106Z" style="fill:#65C3C8"></path><path d="M429.68,228.35l-2.5.59s1.07-5.29-2-7.12-2-5.72-2-5.72l3.11.9a6.31,6.31,0,0,0,2.05,5.25C430.74,224.46,429.68,228.35,429.68,228.35Z" style="fill:#65C3C8"></path><path d="M187.3,219.38l-3.75,1.52s2.79-6.58-1.27-7.71-1.62-6.06-1.62-6.06l4.29,0s-1.34,3.73,1.73,5.51S187.3,219.38,187.3,219.38Z" style="fill:#65C3C8"></path><path d="M171.07,180.85a3,3,0,1,1-3-3A3,3,0,0,1,171.07,180.85Z" style="fill:#65C3C8"></path><circle cx="244.18" cy="108.1" r="2.98" style="fill:#65C3C8"></circle><path d="M293.51,202.52a3,3,0,1,1-3-3A3,3,0,0,1,293.51,202.52Z" style="fill:#65C3C8"></path><path d="M411.89,163.64a3,3,0,1,1-3-3A3,3,0,0,1,411.89,163.64Z" style="fill:#65C3C8"></path><path d="M360.74,199.9a3,3,0,1,1-3-3A3,3,0,0,1,360.74,199.9Z" style="fill:#65C3C8"></path><path d="M426.46,134.34a3,3,0,1,1-3-3A3,3,0,0,1,426.46,134.34Z" style="fill:#65C3C8"></path><path d="M81,130a3,3,0,1,1-3-3A3,3,0,0,1,81,130Z" style="fill:#65C3C8"></path><polygon points="153.13 132.91 148.39 137.37 155.66 142.15 153.13 132.91" style="fill:#65C3C8"></polygon><polygon points="138.7 242.12 141.86 236.43 133.48 234.08 138.7 242.12" style="fill:#65C3C8"></polygon><polygon points="99.04 250.92 97.37 257.21 106.07 257.44 99.04 250.92" style="fill:#65C3C8"></polygon><polygon points="76.55 235.47 75.94 241.81 68.83 240.77 71.06 233.31 76.55 235.47" style="fill:#65C3C8"></polygon><path d="M132.45,186.8l4-.8s-3.95,5.95-.17,7.81.47,6.25.47,6.25l-4.21-.81s2-3.42-.68-5.74S132.45,186.8,132.45,186.8Z" style="fill:#65C3C8"></path><polygon points="100.9 182.87 104.39 177.39 96.18 174.53 100.9 182.87" style="fill:#65C3C8"></polygon><polygon points="124.02 159.04 117.66 159.21 117.82 152.02 125.5 153.34 124.02 159.04" style="fill:#65C3C8"></polygon><path d="M118.17,117.06l-4-.44s5.58-4.48,2.54-7.4,1.45-6.1,1.45-6.1l3.76,2.06s-3,2.65-1.09,5.67S118.17,117.06,118.17,117.06Z" style="fill:#65C3C8"></path><path d="M151.38,264.94a3,3,0,1,1,3.22,2.7A3,3,0,0,1,151.38,264.94Z" style="fill:#65C3C8"></path><g style="opacity:0.7000000000000001;isolation:isolate"><polygon points="223.04 140.98 219.07 146.14 227 149.71 223.04 140.98" style="fill:#fff"></polygon><polygon points="248.75 248.55 253.85 244.52 247.03 239.12 248.75 248.55" style="fill:#fff"></polygon><polygon points="208.75 241.34 204.79 246.5 212.72 250.07 208.75 241.34" style="fill:#fff"></polygon><polygon points="203.2 171.92 209.55 172.32 208.75 179.46 201.22 177.48 203.2 171.92" style="fill:#fff;opacity:0.5"></polygon><polygon points="407.39 238.42 404.38 244.03 398.22 240.33 403.17 234.31 407.39 238.42" style="fill:#fff"></polygon><path d="M237.71,182.24l4,.79s-6,4-3.17,7.14-2,6-2,6L233,193.74s3.18-2.38,1.59-5.55S237.71,182.24,237.71,182.24Z" style="fill:#fff"></path><polygon points="394.74 108.18 391.1 113.57 399.24 116.64 394.74 108.18" style="fill:#fff"></polygon><polygon points="275.03 116.24 277.25 110.12 268.6 109.13 275.03 116.24" style="fill:#fff;opacity:0.5"></polygon><polygon points="273.39 140.59 274.56 134.34 281.55 135.99 278.67 143.24 273.39 140.59" style="fill:#fff"></polygon><polygon points="370.18 137.56 371.34 131.3 378.33 132.96 375.45 140.2 370.18 137.56" style="fill:#fff;opacity:0.5"></polygon><polygon points="401.87 198.97 403.03 192.72 410.02 194.37 407.14 201.61 401.87 198.97" style="fill:#fff;opacity:0.5"></polygon><path d="M342,148.31l-4,.44s4.47-5.58.86-7.76.08-6.27.08-6.27L343,135.9s-2.3,3.23.17,5.77S342,148.31,342,148.31Z" style="fill:#fff"></path><path d="M183.67,280.18l4,.79s-5.95,4-3.17,7.14-2,5.95-2,5.95l-3.57-2.38s3.18-2.38,1.59-5.55S183.67,280.18,183.67,280.18Z" style="fill:#fff;opacity:0.5"></path><polygon points="297.64 234.8 293.67 239.96 301.61 243.53 297.64 234.8" style="fill:#fff"></polygon><polygon points="430.97 287.82 427 292.98 434.93 296.55 430.97 287.82" style="fill:#fff"></polygon><polygon points="317.8 210.28 324.15 210.68 323.35 217.82 315.82 215.84 317.8 210.28" style="fill:#fff"></polygon><path d="M310.2,276.93l4,.79s-5.95,4-3.18,7.14-2,5.95-2,5.95l-3.57-2.38s3.17-2.38,1.59-5.55S310.2,276.93,310.2,276.93Z" style="fill:#fff;opacity:0.5"></path><path d="M214.34,123.08l-2.49.58s1.06-5.28-2-7.11-2-5.72-2-5.72l3.1.9a6.32,6.32,0,0,0,2,5.25C215.4,119.19,214.34,123.08,214.34,123.08Z" style="fill:#fff"></path><path d="M179.19,109l-2.5.58s1.07-5.29-2-7.12-2-5.71-2-5.71l3.11.89a6.34,6.34,0,0,0,2.05,5.26C180.24,105.07,179.19,109,179.19,109Z" style="fill:#fff;opacity:0.5"></path><path d="M187.3,219.38l-3.75,1.52s2.79-6.58-1.27-7.71-1.62-6.06-1.62-6.06l4.29,0s-1.34,3.73,1.73,5.51S187.3,219.38,187.3,219.38Z" style="fill:#fff"></path><circle cx="244.18" cy="108.1" r="2.98" style="fill:#fff"></circle><path d="M293.51,202.52a3,3,0,1,1-3-3A3,3,0,0,1,293.51,202.52Z" style="fill:#fff;opacity:0.5"></path><path d="M411.89,163.64a3,3,0,1,1-3-3A3,3,0,0,1,411.89,163.64Z" style="fill:#fff"></path><path d="M360.74,199.9a3,3,0,1,1-3-3A3,3,0,0,1,360.74,199.9Z" style="fill:#fff;opacity:0.5"></path><path d="M81,130a3,3,0,1,1-3-3A3,3,0,0,1,81,130Z" style="fill:#fff"></path><polygon points="153.13 132.91 148.39 137.37 155.66 142.15 153.13 132.91" style="fill:#fff"></polygon><polygon points="99.04 250.92 97.37 257.21 106.07 257.44 99.04 250.92" style="fill:#fff;opacity:0.5"></polygon><polygon points="76.55 235.47 75.94 241.81 68.83 240.77 71.06 233.31 76.55 235.47" style="fill:#fff"></polygon><path d="M132.45,186.8l4-.8s-3.95,5.95-.17,7.81.47,6.25.47,6.25l-4.21-.81s2-3.42-.68-5.74S132.45,186.8,132.45,186.8Z" style="fill:#fff"></path><polygon points="100.9 182.87 104.39 177.39 96.18 174.53 100.9 182.87" style="fill:#fff"></polygon><polygon points="124.02 159.04 117.66 159.21 117.82 152.02 125.5 153.34 124.02 159.04" style="fill:#fff;opacity:0.5"></polygon><path d="M151.38,264.94a3,3,0,1,1,3.22,2.7A3,3,0,0,1,151.38,264.94Z" style="fill:#fff"></path></g></g><g id="freepik--Table--inject-40"><path d="M370.17,316.37h88c0,4.41-2.54,8-5.77,8.23-9.46.58-24,2.62-28.62,9.77-8.6,13.31-7.77,60.09,2.53,70.93,3.24,3.39,12.65,10.14,12.65,10.14H389.39s8.8-6.88,11.85-10.14c10.25-10.93,10.54-57.68,1.9-70.93-4.43-6.8-18.07-9-27.22-9.69C372.7,324.43,370.17,320.78,370.17,316.37Z" style="fill:#65C3C8"></path><path d="M447.28,325c-8.94,1-19.65,3.39-23.49,9.34a26.63,26.63,0,0,0-2.91,6.88H406.1a26.78,26.78,0,0,0-3-6.88c-3.85-5.91-14.65-8.35-23.42-9.34Z" style="opacity:0.2;isolation:isolate"></path><path d="M370.17,316.37h88c0,4.41-2.54,8-5.77,8.23-9.46.58-24,2.62-28.62,9.77-8.6,13.31-7.77,60.09,2.53,70.93,3.24,3.39,12.65,10.14,12.65,10.14H389.39s8.8-6.88,11.85-10.14c10.25-10.93,10.54-57.68,1.9-70.93-4.43-6.8-18.07-9-27.22-9.69C372.7,324.43,370.17,320.78,370.17,316.37Z" style="fill:#fff;opacity:0.4"></path><path d="M449.9,297.15a3.12,3.12,0,1,1-3.11-3.11A3.12,3.12,0,0,1,449.9,297.15Z" style="fill:#65C3C8"></path><path d="M449.9,297.15a3.12,3.12,0,1,1-3.11-3.11A3.12,3.12,0,0,1,449.9,297.15Z" style="fill:#fff;opacity:0.4"></path><polygon points="438.75 314.89 436 316.37 443.1 316.37 440.35 314.89 440.35 307.41 446.79 297.15 432.31 297.15 438.75 307.41 438.75 314.89" style="fill:#65C3C8"></polygon><polygon points="438.75 314.89 436 316.37 443.1 316.37 440.35 314.89 440.35 307.41 446.79 297.15 432.31 297.15 438.75 307.41 438.75 314.89" style="fill:#fff;opacity:0.7000000000000001"></polygon><path d="M435.47,301.08h8.2l-3.35,5a.92.92,0,0,1-1.54,0Z" style="fill:#65C3C8"></path><path d="M409.31,297.15a3.12,3.12,0,1,0,3.12-3.11A3.12,3.12,0,0,0,409.31,297.15Z" style="fill:#65C3C8"></path><path d="M409.31,297.15a3.12,3.12,0,1,0,3.12-3.11A3.12,3.12,0,0,0,409.31,297.15Z" style="fill:#fff;opacity:0.4"></path><polygon points="420.46 314.89 423.21 316.37 416.12 316.37 418.87 314.89 418.87 307.41 412.43 297.15 426.9 297.15 420.46 307.41 420.46 314.89" style="fill:#65C3C8"></polygon><polygon points="420.46 314.89 423.21 316.37 416.12 316.37 418.87 314.89 418.87 307.41 412.43 297.15 426.9 297.15 420.46 307.41 420.46 314.89" style="fill:#fff;opacity:0.7000000000000001"></polygon><path d="M423.75,301.08h-8.21l3.35,5a.92.92,0,0,0,1.54,0Z" style="fill:#65C3C8"></path><path d="M401.9,297.15a3.12,3.12,0,1,1-3.11-3.11A3.12,3.12,0,0,1,401.9,297.15Z" style="fill:#65C3C8"></path><path d="M401.9,297.15a3.12,3.12,0,1,1-3.11-3.11A3.12,3.12,0,0,1,401.9,297.15Z" style="fill:#fff;opacity:0.4"></path><polygon points="390.75 314.89 388 316.37 395.1 316.37 392.35 314.89 392.35 307.41 398.79 297.15 384.31 297.15 390.75 307.41 390.75 314.89" style="fill:#65C3C8"></polygon><polygon points="390.75 314.89 388 316.37 395.1 316.37 392.35 314.89 392.35 307.41 398.79 297.15 384.31 297.15 390.75 307.41 390.75 314.89" style="fill:#fff;opacity:0.7000000000000001"></polygon><path d="M387.47,301.08h8.2l-3.35,5a.92.92,0,0,1-1.54,0Z" style="fill:#65C3C8"></path></g><g id="freepik--gifts-2--inject-40"><path d="M358,384.81l-.91-2.39c-12.15.56-13.51-4-13.64-5.48-.23-2.7,2.22-5.16,5.45-5.49,4.45-.45,7.42,3.54,8.93,6.16,2.3-2.76,6.73-5,10.08-5h0c2.56,0,4.38,1.21,5,3.65a4,4,0,0,1-.87,3.92c-2.83,3.19-11,2.57-13.43,2.32Zm1.44-4.88c3.69.33,9,.11,10.56-1.6a1.29,1.29,0,0,0,.27-1.43c-.31-1.23-1-1.67-2.36-1.67h0C365,375.23,360.82,377.77,359.47,379.93Zm-9.85-5.8-.42,0c-1.84.18-3.11,1.51-3,2.56.1,1.2,2.34,3.23,9.85,3C355.11,377.88,352.85,374.13,349.62,374.13Z" style="fill:#65C3C8"></path><rect x="331.4" y="381" width="52.74" height="36.23" style="fill:#65C3C8"></rect><rect x="331.4" y="381" width="52.74" height="36.23" style="fill:#fff;opacity:0.6000000000000001"></rect><rect x="331.4" y="393.51" width="52.74" height="23.71" style="opacity:0.1;isolation:isolate"></rect><rect x="331.4" y="381" width="20.95" height="36.23" style="fill:#fff;opacity:0.2"></rect><rect x="366.54" y="381" width="4.29" height="36.23" style="fill:#65C3C8"></rect><rect x="338.8" y="381" width="3.15" height="36.23" style="fill:#65C3C8"></rect><path d="M388.66,394.32l-.69-1.79c-9.11.42-10.13-3-10.22-4.11-.17-2,1.66-3.87,4.08-4.11,3.34-.34,5.57,2.65,6.7,4.62a11.22,11.22,0,0,1,7.56-3.79h0a3.5,3.5,0,0,1,3.74,2.74,3,3,0,0,1-.65,2.94c-2.12,2.39-8.23,1.93-10.07,1.74Zm1.07-3.65c2.77.24,6.8.07,7.93-1.2a1,1,0,0,0,.2-1.08c-.23-.92-.78-1.25-1.77-1.25h0A9.19,9.19,0,0,0,389.73,390.67Zm-7.38-4.36-.32,0c-1.37.14-2.33,1.13-2.26,1.92s1.76,2.42,7.39,2.28C386.46,389.13,384.77,386.31,382.35,386.31Z" style="fill:#65C3C8"></path><rect x="368.68" y="391.47" width="39.55" height="27.17" style="fill:#263238"></rect><rect x="368.68" y="400.85" width="39.55" height="17.78" style="opacity:0.2;isolation:isolate"></rect><rect x="368.68" y="391.47" width="15.71" height="27.17" style="fill:#fff;opacity:0.1"></rect><rect x="395.04" y="391.47" width="3.21" height="27.17" style="fill:#65C3C8"></rect><rect x="374.24" y="391.47" width="2.36" height="27.17" style="fill:#65C3C8"></rect></g><g id="freepik--gifts-1--inject-40"><path d="M80.73,368.8c-2.19.23-9.49.78-12-2.07a3.59,3.59,0,0,1-.78-3.51A4.17,4.17,0,0,1,72.4,360h0a13.36,13.36,0,0,1,9,4.51c1.35-2.35,4-5.92,8-5.51,2.9.29,5.08,2.49,4.88,4.91-.11,1.3-1.33,5.4-12.21,4.89l-.81,2.14Zm-8.33-6.42h0c-1.19,0-1.84.37-2.12,1.47-.19.78,0,1,.25,1.27,1.35,1.52,6.15,1.74,9.45,1.45A10.9,10.9,0,0,0,72.4,362.38Zm10.66,4c6.72.17,8.72-1.65,8.81-2.72s-1.05-2.13-2.7-2.29a2.3,2.3,0,0,0-.37,0C85.91,361.35,83.88,364.7,83.06,366.38Z" style="fill:#fff"></path><g style="opacity:0.2;isolation:isolate"><path d="M80.73,368.8c-2.19.23-9.49.78-12-2.07a3.59,3.59,0,0,1-.78-3.51A4.17,4.17,0,0,1,72.4,360h0a13.36,13.36,0,0,1,9,4.51c1.35-2.35,4-5.92,8-5.51,2.9.29,5.08,2.49,4.88,4.91-.11,1.3-1.33,5.4-12.21,4.89l-.81,2.14Zm-8.33-6.42h0c-1.19,0-1.84.37-2.12,1.47-.19.78,0,1,.25,1.27,1.35,1.52,6.15,1.74,9.45,1.45A10.9,10.9,0,0,0,72.4,362.38Zm10.66,4c6.72.17,8.72-1.65,8.81-2.72s-1.05-2.13-2.7-2.29a2.3,2.3,0,0,0-.37,0C85.91,361.35,83.88,364.7,83.06,366.38Z"></path></g><rect x="57.91" y="367.5" width="47.2" height="49.42" transform="translate(163.01 784.41) rotate(180)" style="fill:#65C3C8"></rect><rect x="57.91" y="367.5" width="47.2" height="49.42" transform="translate(163.01 784.41) rotate(180)" style="fill:#fff;opacity:0.4"></rect><rect x="57.91" y="378.7" width="47.2" height="38.22" transform="translate(163.01 795.62) rotate(180)" style="opacity:0.2;isolation:isolate"></rect><rect x="69.82" y="367.5" width="3.83" height="49.42" transform="translate(143.47 784.41) rotate(180)" style="fill:#fff"></rect><rect x="95.66" y="367.5" width="2.82" height="49.42" transform="translate(194.14 784.41) rotate(180)" style="fill:#fff"></rect><rect x="86.35" y="367.5" width="18.75" height="49.42" transform="translate(191.45 784.41) rotate(180)" style="opacity:0.2;isolation:isolate"></rect><rect x="69.82" y="367.5" width="3.83" height="49.42" transform="translate(143.47 784.41) rotate(180)" style="opacity:0.1;isolation:isolate"></rect><path d="M119.35,378.38c-2.72.28-11.75,1-14.88-2.57a4.45,4.45,0,0,1-1-4.34c.68-2.71,2.69-4,5.53-4h0c3.71,0,8.63,2.53,11.17,5.59,1.68-2.92,5-7.34,9.91-6.84,3.58.36,6.29,3.09,6,6.09-.14,1.61-1.65,6.68-15.11,6.06L120,381ZM109,370.43h0c-1.47,0-2.28.45-2.62,1.82a1.42,1.42,0,0,0,.3,1.57c1.68,1.89,7.62,2.16,11.71,1.8C116.93,373.22,112.31,370.43,109,370.43Zm13.2,4.95c8.33.2,10.81-2.05,10.92-3.37s-1.31-2.64-3.34-2.84a3.7,3.7,0,0,0-.47,0C125.76,369.15,123.26,373.3,122.23,375.38Z" style="fill:#263238"></path><rect x="91.08" y="376.76" width="58.46" height="40.16" transform="translate(240.62 793.68) rotate(180)" style="fill:#65C3C8"></rect><rect x="91.08" y="390.64" width="58.46" height="26.28" transform="translate(240.62 807.55) rotate(180)" style="opacity:0.2;isolation:isolate"></rect><rect x="105.83" y="376.76" width="4.75" height="40.16" transform="translate(216.41 793.68) rotate(180)" style="fill:#263238"></rect><rect x="137.84" y="376.76" width="3.49" height="40.16" transform="translate(279.18 793.68) rotate(180)" style="fill:#263238"></rect><rect x="126.31" y="376.76" width="23.23" height="40.16" transform="translate(275.85 793.68) rotate(180)" style="opacity:0.2;isolation:isolate"></rect><path d="M117.23,352.39l-.68-1.79c-9.11.42-10.14-3-10.23-4.1-.17-2,1.66-3.88,4.08-4.12,3.34-.34,5.57,2.65,6.7,4.62a11.24,11.24,0,0,1,7.56-3.79h0A3.49,3.49,0,0,1,128.4,346a3,3,0,0,1-.65,2.95c-2.12,2.39-8.23,1.92-10.07,1.73Zm1.08-3.65c2.77.24,6.79.08,7.92-1.2a1,1,0,0,0,.2-1.07c-.23-.93-.77-1.26-1.77-1.26h0A9.15,9.15,0,0,0,118.31,348.74Zm-7.39-4.35h-.31c-1.38.14-2.33,1.13-2.27,1.93s1.76,2.41,7.39,2.27C115,347.2,113.34,344.39,110.92,344.39Z" style="fill:#65C3C8"></path><rect x="97.26" y="349.54" width="39.55" height="27.17" style="fill:#263238"></rect><rect x="97.26" y="358.92" width="39.55" height="17.78" style="opacity:0.2;isolation:isolate"></rect><rect x="97.26" y="349.54" width="15.71" height="27.17" style="fill:#fff;opacity:0.1"></rect><rect x="123.61" y="349.54" width="3.21" height="27.17" style="fill:#65C3C8"></rect><rect x="102.81" y="349.54" width="2.36" height="27.17" style="fill:#65C3C8"></rect><path d="M63.37,392.61l-.68-1.8c-9.11.42-10.14-3-10.23-4.1-.17-2,1.66-3.87,4.08-4.12,3.34-.34,5.57,2.65,6.7,4.62a11.21,11.21,0,0,1,7.56-3.78h0a3.5,3.5,0,0,1,3.74,2.73,3,3,0,0,1-.65,2.95c-2.12,2.39-8.23,1.93-10.07,1.73ZM64.45,389c2.77.25,6.79.08,7.92-1.2a1,1,0,0,0,.2-1.07c-.23-.93-.77-1.25-1.77-1.25h0A9.14,9.14,0,0,0,64.45,389Zm-7.39-4.35h-.31c-1.38.14-2.33,1.13-2.27,1.93s1.76,2.41,7.39,2.27C61.18,387.41,59.48,384.6,57.06,384.6Z" style="fill:#65C3C8"></path><rect x="43.4" y="389.75" width="39.55" height="27.17" style="fill:#65C3C8"></rect><rect x="43.4" y="389.75" width="39.55" height="27.17" style="fill:#fff;opacity:0.6000000000000001"></rect><rect x="43.4" y="399.14" width="39.55" height="17.78" style="opacity:0.1;isolation:isolate"></rect><rect x="43.4" y="389.75" width="15.71" height="27.17" style="fill:#fff;opacity:0.2"></rect><rect x="69.75" y="389.75" width="3.21" height="27.17" style="fill:#65C3C8"></rect><rect x="48.95" y="389.75" width="2.36" height="27.17" style="fill:#65C3C8"></rect></g><g id="freepik--character-4--inject-40"><g id="freepik--group--inject-40"><path d="M356.07,197.66l1.68-4.75a16.57,16.57,0,0,0-.84-3.95c-.65-1.59,4-6.13,4-6.13l4.85,6.32s-3.07,4.23-3.66,4.74a1.47,1.47,0,0,1-1.19.38l-1.23,4.78Z" style="fill:#b97964"></path><path d="M376.21,197.78c-1.94.21-11.73,12.34-14.94,12.08s0-13.58,0-13.58l-4.8-2s-4.61,16.91,0,22.18,19.74-3.16,19.74-3.16Z" style="fill:#263238"></path><path d="M376.21,197.78v15.51a53.11,53.11,0,0,1-7.85,3.46c-4.43,1.51-9.53,2.4-11.89-.3-4.62-5.27,0-22.18,0-22.18l4.79,2s-3.21,13.31,0,13.58S374.27,198,376.21,197.78Z" style="fill:#fff;opacity:0.4;isolation:isolate"></path><path d="M376.21,209.5v3.79a53.11,53.11,0,0,1-7.85,3.46c1.25-5.19,6.9-7.48,6.9-7.48Z" style="opacity:0.2;isolation:isolate"></path><path d="M405.71,413.43h8.69a.63.63,0,0,1,.61.49l1.41,6.37a1.06,1.06,0,0,1-.81,1.26l-.23,0c-2.82-.05-4.86-.22-8.4-.22-2.17,0-8.73.23-11.73.23s-3.4-3-2.17-3.24c5.51-1.2,9.66-2.87,11.43-4.45A1.74,1.74,0,0,1,405.71,413.43Z" style="fill:#263238"></path><path d="M368.85,413.21h8.69a.61.61,0,0,1,.61.49l1.41,6.37a1,1,0,0,1-.81,1.25l-.23,0c-2.81,0-4.86-.22-8.39-.22-2.18,0-8.74.23-11.74.23s-3.4-3-2.17-3.24c5.52-1.2,9.67-2.87,11.43-4.45A1.73,1.73,0,0,1,368.85,413.21Z" style="fill:#263238"></path><path d="M405.71,413.43h8.69a.63.63,0,0,1,.61.49l1.41,6.37a1.06,1.06,0,0,1-.81,1.26l-.23,0c-2.82-.05-4.86-.22-8.4-.22-2.17,0-8.73.23-11.73.23s-3.4-3-2.17-3.24c5.51-1.2,9.66-2.87,11.43-4.45A1.74,1.74,0,0,1,405.71,413.43Z" style="fill:#fff;opacity:0.30000000000000004"></path><path d="M368.85,413.21h8.69a.61.61,0,0,1,.61.49l1.41,6.37a1,1,0,0,1-.81,1.25l-.23,0c-2.81,0-4.86-.22-8.39-.22-2.18,0-8.74.23-11.74.23s-3.4-3-2.17-3.24c5.52-1.2,9.67-2.87,11.43-4.45A1.73,1.73,0,0,1,368.85,413.21Z" style="fill:#fff;opacity:0.30000000000000004"></path><path d="M410.32,252.33h-38c-3.61,19.71-14.91,99.77-6.81,161.93H378.4s-1.19-94.41,10.16-124.92c1.3,16.33,14.58,124.86,14.58,124.86h13.08s-2-40.83-3.91-79.39C411.08,310.53,410.37,257.31,410.32,252.33Z" style="fill:#65C3C8"></path><path d="M388.56,289.35a101.65,101.65,0,0,0-4.25,16.42c-1.06-14.52,3.19-29.93,3.19-29.93Z" style="opacity:0.2;isolation:isolate"></path><polygon points="372.03 252.78 410.25 252.78 410.25 257.33 371.54 256.86 372.03 252.78"></polygon><rect x="396.6" y="250.73" width="1.37" height="8.08" style="fill:#65C3C8"></rect><rect x="377.26" y="250.73" width="1.37" height="8.08" style="fill:#65C3C8"></rect><rect x="382.38" y="251.98" width="7.07" height="5.09" style="fill:#fff"></rect><path d="M372.05,253.52h38.32c.87-18.65,5.69-43.93,7.05-50.77a1.84,1.84,0,0,0-1.41-2.17c-1.92-.42-3.91-.78-5.91-1.09a185.6,185.6,0,0,0-27.31-1.83c-4,0-6.58.12-6.58.12C371.56,214.39,371.65,241.18,372.05,253.52Z" style="fill:#263238"></path><path d="M372.05,253.52h38.32a311.41,311.41,0,0,1,3.9-33.29c1.3-7.95,2.56-14.49,3.15-17.48a2,2,0,0,0,0-.49,1.83,1.83,0,0,0-1.44-1.68c-1.93-.42-3.91-.78-5.91-1.09a185.6,185.6,0,0,0-27.31-1.83c-4,0-6.58.12-6.58.12C371.56,214.39,371.65,241.18,372.05,253.52Z" style="fill:#fff;opacity:0.5;isolation:isolate"></path><path d="M388.74,215.58l21.51-16-.15-.12a185.6,185.6,0,0,0-27.31-1.83Z" style="fill:#263238"></path><path d="M403.7,198.59c-3.28,3-11.33,1.88-11.33,1.88s-5-1.38-4-2.95c3-.49,4.39-1.87,5-3.63a8.75,8.75,0,0,0,.3-3.38c-.05-.63-.14-1.26-.25-1.89l9.94-7.36C402.08,186.12,400.49,195.06,403.7,198.59Z" style="fill:#b97964"></path><path d="M401.09,185.94c-.4,6-5.3,7.61-7.7,7.95a8.75,8.75,0,0,0,.3-3.38Z" style="opacity:0.2;isolation:isolate"></path><path d="M404.67,221.7c3,1.67,6.89.1,9.6-1.47,1.3-7.95,2.56-14.49,3.15-17.48a2,2,0,0,0,0-.49C411.19,208.62,401.1,219.71,404.67,221.7Z" style="opacity:0.2;isolation:isolate"></path><path d="M389.53,165.06s-3.77,8.63.08,13.37,8.32-12,8.32-12Z" style="fill:#263238"></path><path d="M403,187.78a10.45,10.45,0,0,1-1.48,1.5,8.46,8.46,0,0,1-10.22.66,9.44,9.44,0,0,1-4.06-5.61c-.08-.32-.15-.65-.2-1a18.58,18.58,0,0,1-.19-2.44c-.16-6,2-13.76,7.9-15.55a9.15,9.15,0,0,1,11.45,6,9,9,0,0,1,.29,4.25C405.68,181.24,405.35,184.91,403,187.78Z" style="fill:#b97964"></path><path d="M396.24,176.57c0,.54-.37,1-.73.92s-.6-.51-.55-1.05.38-.95.73-.92S396.29,176,396.24,176.57Z" style="fill:#263238"></path><path d="M390.11,176c0,.54-.38,1-.73.92s-.6-.5-.56-1,.39-1,.74-.92S390.16,175.49,390.11,176Z" style="fill:#263238"></path><path d="M392,176.45a18.9,18.9,0,0,1-3,4.4,3.17,3.17,0,0,0,2.57.73Z" style="fill:#a24e3f"></path><path d="M398.33,174.76a.37.37,0,0,1-.3-.16,2.57,2.57,0,0,0-1.94-1.25.33.33,0,0,1-.31-.33.32.32,0,0,1,.32-.31h0a3.19,3.19,0,0,1,2.46,1.55.31.31,0,0,1-.09.44h0Z" style="fill:#263238"></path><path d="M387.67,173.64a.31.31,0,0,1-.19,0,.32.32,0,0,1-.11-.44h0a3.14,3.14,0,0,1,2.46-1.58.32.32,0,0,1,.33.31h0a.34.34,0,0,1-.31.33h0a2.56,2.56,0,0,0-1.93,1.28A.3.3,0,0,1,387.67,173.64Z" style="fill:#263238"></path><path d="M402.41,166.87l-.77,2.87a2.21,2.21,0,0,1,.71,2.9c-1.29,2.32-.43,6.33,1.24,8.11,0,0,.21-1.05,1.07-.67s-.16,5.88-2.29,8.28c0,0,3-2,5.3-7.63,2.14-5.18,2.95-9.65,2.13-11.88Z" style="fill:#263238"></path><path d="M409.53,181.52a6.38,6.38,0,0,1-3.93,2.88c-2.17.51-3.17-1.46-2.5-3.47.62-1.77,2.49-4.24,4.64-3.84A2.84,2.84,0,0,1,409.53,181.52Z" style="fill:#b97964"></path><path d="M391.49,183.6a21.23,21.23,0,0,1,.59,3l.55,0c2.47.08,3.64-.7,4.19-1.59a3.17,3.17,0,0,0,.44-1.44,3,3,0,0,0-.05-.87,11.58,11.58,0,0,1-4.88.85C391.82,183.62,391.49,183.6,391.49,183.6Z" style="fill:#263238"></path><path d="M391.93,183.7l.2.89c2.11.12,4.18-.24,4.93-.92a1.59,1.59,0,0,0-.15-.84A11.92,11.92,0,0,1,391.93,183.7Z" style="fill:#fff"></path><path d="M392.63,186.66c2.47.08,3.64-.7,4.19-1.59a8.07,8.07,0,0,0-2.76.46A3,3,0,0,0,392.63,186.66Z" style="fill:#de5753"></path><path d="M411.08,170.06c1.95-5.09-3.52-9.61-9.18-11.07s-9.34.75-9.34.75-2.23-2.15-4.36-1.65c-2.4.55-4.35,6.65,2.33,10.18,5,2.64,11.11,1.47,11.11,1.47S409.51,174.13,411.08,170.06Z" style="fill:#263238"></path><path d="M372.47,200.2a5,5,0,0,1-1.16-.14,5.14,5.14,0,0,1-3.41-3.3c-.95-2.34-4.68-5.4-4.72-5.43l.63-.78c.16.14,4,3.26,5,5.83a4.11,4.11,0,0,0,2.73,2.71c1.56.39,3.52-.27,5.38-1.82a6.49,6.49,0,0,1,6.14-1.46,5.23,5.23,0,0,1,3.37,4l-1,.23a4.24,4.24,0,0,0-2.71-3.29,5.48,5.48,0,0,0-5.18,1.28A8.28,8.28,0,0,1,372.47,200.2Z" style="fill:#65C3C8"></path><polygon points="347.91 164 348.97 166.05 349.7 167.43 351.58 171.06 352.29 172.45 354.18 176.07 354.89 177.46 356.52 180.59 353.57 183.34 352.6 182.74 351.56 182.11 348.82 180.43 347.79 179.79 345.05 178.11 344 177.47 341.27 175.8 340.24 175.16 337.63 173.57 347.91 164" style="fill:#65C3C8"></polygon><rect x="358.25" y="179.91" width="4.03" height="15.31" transform="translate(-31.2 295.86) rotate(-42.97)" style="fill:#263238"></rect><polygon points="345.38 166.35 341.27 175.8 340.24 175.16 343.17 168.41 345.38 166.35" style="fill:#fff;opacity:0.7000000000000001;isolation:isolate"></polygon><polygon points="348.97 166.05 349.7 167.43 345.05 178.11 344 177.47 348.97 166.05" style="fill:#fff;opacity:0.7000000000000001;isolation:isolate"></polygon><polygon points="351.58 171.06 352.29 172.45 348.82 180.43 347.79 179.79 351.58 171.06" style="fill:#fff;opacity:0.7000000000000001;isolation:isolate"></polygon><polygon points="354.18 176.07 354.89 177.46 352.6 182.74 351.56 182.11 354.18 176.07" style="fill:#fff;opacity:0.7000000000000001;isolation:isolate"></polygon><rect x="358.25" y="179.91" width="4.03" height="15.31" transform="translate(-31.2 295.86) rotate(-42.97)" style="fill:#fff;opacity:0.4;isolation:isolate"></rect><path d="M382.48,208l-2.91-5.43v-2.86c0,.12-5.14-3.64-6.72-4.4s-3,5.27-2.9,6.35,5.36,3.24,5.36,3.24h1.05l2.82,4.36Z" style="fill:#b97964"></path><path d="M417.42,202.31c1.36,8.36-10.22,26.31-21.44,25.15s-18.72-19.56-18.72-19.56l5.12-3.76s6.32,18.48,14.14,15.37,12.59-15.73,15.93-18S417.42,202.31,417.42,202.31Z" style="fill:#263238"></path><path d="M417.42,202.31c1.36,8.36-10.22,26.31-21.44,25.15s-18.72-19.56-18.72-19.56l5.12-3.76s6.32,18.48,14.14,15.37,12.59-15.73,15.93-18S417.42,202.31,417.42,202.31Z" style="fill:#fff;opacity:0.4;isolation:isolate"></path></g></g><g id="freepik--character-3--inject-40"><path d="M289.86,293l-.91,5.58s-5.85,2.26-6.32,2.69-.48,2.94.19,4,8.07-1.72,8.55-2.38-.2-2.29-.2-2.29l1.24-6.2Z" style="fill:#eec1bb"></path><path d="M280.46,247.4c-3,2.89,8.13,25.32,8.75,29s-.33,19.66-.33,19.66l3.7,2.05s2.57-19.31,2.45-22.43-3.65-16.57-3.65-16.57.25-3.8-3.5-7.81S280.46,247.4,280.46,247.4Z" style="fill:#65C3C8"></path><path d="M292.58,298.08l-3.7-2.05s.95-16,.34-19.65-11.72-26.08-8.76-29a7.53,7.53,0,0,1,2.62.54,12.72,12.72,0,0,1,4.81,3.32c3.74,4,3.5,7.82,3.5,7.82s1.56,6,2.65,10.85a43.16,43.16,0,0,1,1,5.71C295.15,278.77,292.58,298.08,292.58,298.08Z" style="fill:#fff;opacity:0.6000000000000001;isolation:isolate"></path><path d="M294,269.94c-9.27-5.5-10.75-17.22-11-22a12.72,12.72,0,0,1,4.81,3.32c3.74,4,3.5,7.82,3.5,7.82S293,265,294,269.94Z" style="opacity:0.2;isolation:isolate"></path><path d="M302.42,279.23s-8.65,49.94-10.86,70.42c-2.89,26.73-15.67,65.94-15.67,65.94l5.35,1.3s18.32-33.42,21.57-63.32C317.3,322.87,318,285.3,318,285.3Z" style="fill:#eec1bb"></path><path d="M266.14,427.8a7.63,7.63,0,0,1,2.73-.73h0s3.25-2,6.39-9.51l3.65-.07a3,3,0,0,1,2.83,2,1.72,1.72,0,0,1,.11.5,19.33,19.33,0,0,1-.24,2.64,72.4,72.4,0,0,1-2,8.61l-.62-.15,1-5.46c.35-1.85-1.57,0-2.45,1.84s-2.23,3.78-6.27,2.91C266.58,429.32,264.68,428.67,266.14,427.8Z" style="fill:#2e353a"></path><path d="M312.12,278.3S314,329,316.06,349.45c2.7,26.74-1.69,67.75-1.69,67.75l5.5.17s11-36.49,8-66.41c7.83-33,.73-69.94.73-69.94Z" style="fill:#eec1bb"></path><path d="M306,428.92a7.85,7.85,0,0,1,2.63-1h0s3-2.31,5.33-10.14l3.62-.47a3,3,0,0,1,3,1.66,1.66,1.66,0,0,1,.16.49,19.39,19.39,0,0,1,0,2.64,72.11,72.11,0,0,1-1.07,8.78l-.63-.08.45-5.54c.15-1.88-1.56.13-2.23,2.09s-1.81,4-5.93,3.57C306.58,430.37,304.61,429.93,306,428.92Z" style="fill:#2e353a"></path><path d="M275.89,415.59s-4.42,9.6-7,11.48c0,0,3.55,2.05,7.15-2.67,4.65-6.11,5.83-4.44,5.83-4.44a17.4,17.4,0,0,0-.61-3.07C280.5,415,275.89,415.59,275.89,415.59Z" style="fill:#eec1bb"></path><path d="M314.89,415s-1.24,3.55-2.91,7.45a16.69,16.69,0,0,1-3.38,5.47s3,.93,4.6-1,4.27-8.72,7.38-8a7.35,7.35,0,0,0-.71-1.57C319.39,416.61,314.89,415,314.89,415Z" style="fill:#eec1bb"></path><path d="M289.9,205.26s-12.76-5.81-19.15,2.48S277,240.13,277,240.13l25.56-5.87s-2-3.06-2.57-11.47S299,202.86,289.9,205.26Z" style="fill:#2e353a"></path><polygon points="300.33 281.36 280.45 247.39 309.61 229.37 328.09 269.09 300.33 281.36" style="fill:#65C3C8"></polygon><polygon points="328.09 269.09 300.33 281.36 280.46 247.39 309.61 229.37 316.04 243.2 321.46 254.85 328.09 269.09" style="fill:#fff;opacity:0.7000000000000001;isolation:isolate"></polygon><path d="M294.45,244.48c5.35-4.63,5.44-8.3,5.44-8.3-6-1-7-9.14-7-9.14l-6.16,6a24.55,24.55,0,0,1,2.25,2.78c2.89,4.23,1,5.55,1,5.55C290.29,244.5,294.45,244.48,294.45,244.48Z" style="fill:#eec1bb"></path><path d="M286.75,233a24.55,24.55,0,0,1,2.25,2.78c4.75-3.16,3.91-8.77,3.91-8.77Z" style="opacity:0.2;isolation:isolate"></path><path d="M279.91,210.39c-7,2.38-7.92,6.87-6,14.21,2.43,9.17,6.59,14.86,14.63,10C299.49,227.94,291.47,206.44,279.91,210.39Z" style="fill:#eec1bb"></path><path d="M278.3,222.67a15.89,15.89,0,0,1-1,3.58,2,2,0,0,0,2.1.16Z" style="fill:#d4827d"></path><path d="M282.36,220.65c.18.57.64.94,1,.82s.55-.68.37-1.26-.64-1-1-.82S282.18,220.07,282.36,220.65Z" style="fill:#2e353a"></path><path d="M282.89,219.36l-1.4-.09S282.44,220.12,282.89,219.36Z" style="fill:#2e353a"></path><path d="M275.16,222.79c.18.58.64,1,1,.82s.54-.68.36-1.26-.64-.94-1-.82S275,222.21,275.16,222.79Z" style="fill:#2e353a"></path><path d="M275.7,221.51l-1.41-.1S275.25,222.27,275.7,221.51Z" style="fill:#2e353a"></path><path d="M284.16,216.32a.4.4,0,0,1-.21-.07,3.52,3.52,0,0,0-3-.21.36.36,0,0,1-.47-.19.37.37,0,0,1,.19-.48,4.21,4.21,0,0,1,3.72.29.37.37,0,0,1,.08.51A.38.38,0,0,1,284.16,216.32Z" style="fill:#2e353a"></path><path d="M273.17,219.28a.29.29,0,0,1-.18-.05.35.35,0,0,1-.13-.49,3.73,3.73,0,0,1,2.64-2,.35.35,0,0,1,.4.32.36.36,0,0,1-.32.4,3.07,3.07,0,0,0-2.1,1.64A.34.34,0,0,1,273.17,219.28Z" style="fill:#2e353a"></path><path d="M291.52,219.51s-5.2-4.6-6.22-9.18c0,0-15.71-.92-11.6,13.3,0,0-5.6-12,6.26-16.32s17.8,13.14,13.4,20.47C293.36,227.78,294.76,222.4,291.52,219.51Z" style="fill:#2e353a"></path><path d="M290.89,221.37a3.22,3.22,0,0,1,2.33-3.91c2.24-.5,4.78,3.57-.22,6.47C292.28,224.34,291.59,223.74,290.89,221.37Z" style="fill:#eec1bb"></path><path d="M279.3,229.91a1,1,0,0,1-.26,1.38c-.41.19-1-.11-1.23-.68a1,1,0,0,1,.27-1.38C278.49,229,279,229.34,279.3,229.91Z" style="fill:#2e353a"></path><path d="M304.94,226.43c-6.95,0-10.41-6.31-13.19-11.39-1.64-3-3.05-5.56-4.69-5.77a.25.25,0,1,1,.06-.5c1.89.25,3.29,2.8,5.06,6,2.72,5,6.11,11.13,12.76,11.13a.25.25,0,0,1,0,.5Z" style="fill:#263238"></path><path d="M270.16,228.94a.26.26,0,0,1-.24-.18c-4.87-16.86,1.07-20.51,1.32-20.66a.25.25,0,0,1,.25.43c-.06,0-5.83,3.67-1.09,20.09a.24.24,0,0,1-.17.31Z" style="fill:#263238"></path><path d="M287.5,239.24l9.75-8a6.71,6.71,0,0,0,5.26,2.5s-1.32,10.47-6.61,12.21-8.81-2.68-8.81-2.68S288.66,240.48,287.5,239.24Z" style="fill:#65C3C8"></path><path d="M287.5,239.24l9.75-8a6.71,6.71,0,0,0,5.26,2.5s-1.32,10.47-6.61,12.21-8.81-2.68-8.81-2.68S288.66,240.48,287.5,239.24Z" style="fill:#fff;opacity:0.6000000000000001;isolation:isolate"></path><path d="M298.11,278.3l-8.65,63.56s18,6.09,49.54.53c0,0,4.36-38.3-9-67.58l-1.9-3.85Z" style="fill:#65C3C8"></path><polygon points="296.97 275.38 297.59 281.05 329.99 274.81 328.01 269.09 296.97 275.38" style="fill:#2e353a"></polygon><path d="M312,272.07c-.42-.27-8.59,1.2-9.08,2,0,0,.61,5.62,1.08,6s8.19-1.56,8.92-1.7S312.43,272.34,312,272.07Zm.05,6c-.61.11-7,1.74-7.34,1.39s-.88-5-.88-5c.4-.68,7.12-1.89,7.46-1.67S312.65,277.91,312.05,278Z" style="fill:#fff"></path><path d="M310.93,274.51l-1.61.31a.6.6,0,0,0-.48.65v0a.61.61,0,0,0,.72.53l1.61-.34a.6.6,0,0,0,.46-.74A.62.62,0,0,0,310.93,274.51Z" style="fill:#fff"></path><path d="M263.78,234a2.45,2.45,0,0,1-1.22-.26,1.52,1.52,0,0,1-.9-1.37,1.69,1.69,0,0,1,1-1.37,1.39,1.39,0,0,1,1.46.08,1.2,1.2,0,0,1,.6,1,1.28,1.28,0,0,1-.62.94.24.24,0,0,1-.34-.07.26.26,0,0,1,.08-.35c.1-.06.38-.29.38-.54s-.12-.38-.4-.59a.92.92,0,0,0-.95,0,1.18,1.18,0,0,0-.71.94,1.07,1.07,0,0,0,.65.92c1.46.85,6.34-1.22,8.1-2.09a.26.26,0,0,1,.34.11.25.25,0,0,1-.12.34C270.91,231.76,266.38,234,263.78,234Z" style="fill:#263238"></path><path d="M266.54,238.62a1.81,1.81,0,0,1-.78-.18,1.43,1.43,0,0,1-.84-1.49c.18-1.85,6-4,6.66-4.28a.25.25,0,0,1,.17.47c-2.39.87-6.22,2.7-6.33,3.86a.94.94,0,0,0,.55,1,1.07,1.07,0,0,0,1.07,0s.15-.15,0-.43a.27.27,0,0,1,.13-.33.25.25,0,0,1,.33.13.85.85,0,0,1-.13,1A1.23,1.23,0,0,1,266.54,238.62Z" style="fill:#263238"></path><path d="M261.06,236.83a2,2,0,0,1-1-.25c-.65-.36-.65-.8-.59-1a1.6,1.6,0,0,1,1.43-1,.64.64,0,0,1,.7.45.25.25,0,0,1-.17.31.24.24,0,0,1-.31-.17c0-.06-.1-.09-.21-.09a1.14,1.14,0,0,0-1,.6c0,.15.07.31.35.47,1.34.77,3.94-1.13,4-1.15a.25.25,0,0,1,.3.4A7.38,7.38,0,0,1,261.06,236.83Z" style="fill:#263238"></path><path d="M303.44,230a.23.23,0,0,1-.14,0c-2.32-1.54-3-5.89-3.75-10.5-.56-3.5-1.14-7.12-2.45-9.86a.25.25,0,1,1,.46-.22c1.33,2.81,1.92,6.47,2.48,10,.72,4.49,1.4,8.73,3.53,10.15a.25.25,0,0,1,.07.35A.23.23,0,0,1,303.44,230Z" style="fill:#263238"></path><path d="M321.46,254.86c-8.08-4.55-9.81-14.73-9.81-14.73s1.86,1.25,4.39,3.07Z" style="opacity:0.2;isolation:isolate"></path><path d="M345.78,259.6l5.32,1.9s4.82-4,5.42-4.21,2.81,1,3.41,2.11-5.42,6.22-6.22,6.32-1.91-1.29-1.91-1.29l-6-1.92Z" style="fill:#eec1bb"></path><path d="M309.61,229.37c4-1.18,19,19.27,21.94,21.59s17.34,9.24,17.34,9.24v4.23s-18.13-7.11-20.8-8.73-12.71-11.23-12.71-11.23-3.45-1.63-5.14-6.85S309.61,229.37,309.61,229.37Z" style="fill:#65C3C8"></path><path d="M309.61,229.37c4-1.18,19,19.27,21.94,21.59s17.34,9.24,17.34,9.24v4.23s-18.13-7.11-20.8-8.73-12.71-11.23-12.71-11.23-3.45-1.63-5.14-6.85S309.61,229.37,309.61,229.37Z" style="fill:#fff;opacity:0.6000000000000001;isolation:isolate"></path></g><g id="freepik--character-2--inject-40"><g id="freepik--group--inject-40"><path d="M221.34,257.12l6.14,5.83a26.13,26.13,0,0,1,2.79-.43c.95,0,5.1,8.87,5.22,9.35s-6.05,1-6.92.57-3.66-4.38-3.9-4.69.11-2.21,0-2.6-5.18-3.47-5.18-3.47Z" style="fill:#e4897b"></path><polygon points="216.77 243.1 218.51 245.23 215.63 247.56 214.22 244.87 216.77 243.1" style="fill:#65C3C8"></polygon><polygon points="216.77 243.1 218.51 245.23 215.63 247.56 214.22 244.87 216.77 243.1" style="fill:#fff;opacity:0.30000000000000004;isolation:isolate"></polygon><path d="M215.12,221.85s-.4,15.56,1.73,19.09-2,4.53-3,4.29-4.56-8.79-3.89-14.94A10.86,10.86,0,0,1,215.12,221.85Z" style="fill:#65C3C8"></path><path d="M215.12,221.85s-.4,15.56,1.73,19.09-2,4.53-3,4.29-4.56-8.79-3.89-14.94A10.86,10.86,0,0,1,215.12,221.85Z" style="fill:#fff;opacity:0.6000000000000001;isolation:isolate"></path><path d="M209,231.51a41,41,0,0,0,.38,8.28c1.28,4.84,16.62,19.37,16.62,19.37l-3.89,5.1s-16.31-11.36-19.68-17.83c-2.46-4.71-4.68-14.08-5.71-18.84Z" style="fill:#65C3C8"></path><path d="M209,231.51a41,41,0,0,0,.38,8.28c1.28,4.84,16.62,19.37,16.62,19.37l-3.89,5.1s-16.31-11.36-19.68-17.83c-2.46-4.71-4.68-14.08-5.71-18.84Z" style="opacity:0.2;isolation:isolate"></path><rect x="233.17" y="237.98" width="0.25" height="2.36" style="fill:#263238"></rect><path d="M231.94,234.75s4,3.87,1.35,3.87S231.94,234.75,231.94,234.75Z" style="fill:#65C3C8"></path><path d="M232.62,236.44s1.88,1.78.52,1.78S232.62,236.44,232.62,236.44Z" style="fill:#fff;opacity:0.7000000000000001;isolation:isolate"></path><rect x="232.27" y="239.73" width="2.14" height="8.95" style="fill:#65C3C8"></rect><polygon points="234.41 246.65 234.41 247.37 232.35 248.68 232.27 248.68 232.27 248.03 234.41 246.65" style="fill:#fff;opacity:0.7000000000000001;isolation:isolate"></polygon><polygon points="234.41 244.71 234.41 245.42 232.27 246.79 232.27 246.08 234.41 244.71" style="fill:#fff;opacity:0.7000000000000001;isolation:isolate"></polygon><polygon points="234.41 242.77 234.41 243.48 232.27 244.85 232.27 244.14 234.41 242.77" style="fill:#fff;opacity:0.7000000000000001;isolation:isolate"></polygon><polygon points="234.41 240.82 234.41 241.53 232.27 242.91 232.27 242.19 234.41 240.82" style="fill:#fff;opacity:0.7000000000000001;isolation:isolate"></polygon><polygon points="234.17 239.73 232.27 240.95 232.27 240.23 233.05 239.73 234.17 239.73" style="fill:#fff;opacity:0.7000000000000001;isolation:isolate"></polygon><rect x="258.35" y="237.98" width="0.25" height="2.36" style="fill:#263238"></rect><path d="M257.12,234.75s4,3.87,1.35,3.87S257.12,234.75,257.12,234.75Z" style="fill:#65C3C8"></path><path d="M257.8,236.44s1.88,1.78.52,1.78S257.8,236.44,257.8,236.44Z" style="fill:#fff;opacity:0.7000000000000001;isolation:isolate"></path><rect x="257.45" y="239.73" width="2.14" height="8.95" style="fill:#65C3C8"></rect><polygon points="259.59 246.65 259.59 247.37 257.53 248.68 257.45 248.68 257.45 248.03 259.59 246.65" style="fill:#fff;opacity:0.7000000000000001;isolation:isolate"></polygon><polygon points="259.59 244.71 259.59 245.42 257.45 246.79 257.45 246.08 259.59 244.71" style="fill:#fff;opacity:0.7000000000000001;isolation:isolate"></polygon><polygon points="259.59 242.77 259.59 243.48 257.45 244.85 257.45 244.14 259.59 242.77" style="fill:#fff;opacity:0.7000000000000001;isolation:isolate"></polygon><polygon points="259.59 240.82 259.59 241.53 257.45 242.91 257.45 242.19 259.59 240.82" style="fill:#fff;opacity:0.7000000000000001;isolation:isolate"></polygon><polygon points="259.35 239.73 257.45 240.95 257.45 240.23 258.23 239.73 259.35 239.73" style="fill:#fff;opacity:0.7000000000000001;isolation:isolate"></polygon><rect x="245.76" y="237.98" width="0.25" height="2.36" style="fill:#263238"></rect><path d="M244.53,234.75s4,3.87,1.35,3.87S244.53,234.75,244.53,234.75Z" style="fill:#65C3C8"></path><path d="M245.21,236.44s1.88,1.78.52,1.78S245.21,236.44,245.21,236.44Z" style="fill:#fff;opacity:0.7000000000000001;isolation:isolate"></path><rect x="244.86" y="239.73" width="2.14" height="8.95" style="fill:#65C3C8"></rect><polygon points="247 246.65 247 247.37 244.94 248.68 244.86 248.68 244.86 248.03 247 246.65" style="fill:#fff;opacity:0.7000000000000001;isolation:isolate"></polygon><polygon points="247 244.71 247 245.42 244.86 246.79 244.86 246.08 247 244.71" style="fill:#fff;opacity:0.7000000000000001;isolation:isolate"></polygon><polygon points="247 242.77 247 243.48 244.86 244.85 244.86 244.14 247 242.77" style="fill:#fff;opacity:0.7000000000000001;isolation:isolate"></polygon><polygon points="247 240.82 247 241.53 244.86 242.91 244.86 242.19 247 240.82" style="fill:#fff;opacity:0.7000000000000001;isolation:isolate"></polygon><polygon points="246.76 239.73 244.86 240.95 244.86 240.23 245.64 239.73 246.76 239.73" style="fill:#fff;opacity:0.7000000000000001;isolation:isolate"></polygon><path d="M248.31,247a1.71,1.71,0,0,0-1.55,1,1.69,1.69,0,0,0-1.54-1,1.71,1.71,0,0,0-1.55,1,1.69,1.69,0,0,0-1.54-1,1.71,1.71,0,0,0-1.55,1,1.69,1.69,0,0,0-1.54-1,1.71,1.71,0,0,0-1.55,1,1.69,1.69,0,0,0-3.09,0,1.69,1.69,0,0,0-3.09,0,1.7,1.7,0,0,0-1.54-1,1.72,1.72,0,1,0,0,3.43,1.7,1.7,0,0,0,1.54-1,1.69,1.69,0,0,0,3.09,0,1.69,1.69,0,0,0,3.09,0,1.71,1.71,0,0,0,1.55,1,1.69,1.69,0,0,0,1.54-1,1.71,1.71,0,0,0,1.55,1,1.69,1.69,0,0,0,1.54-1,1.71,1.71,0,0,0,1.55,1,1.69,1.69,0,0,0,1.54-1,1.71,1.71,0,1,0,1.55-2.43Z" style="fill:#65C3C8"></path><path d="M248.31,247a1.71,1.71,0,0,0-1.55,1,1.69,1.69,0,0,0-1.54-1,1.71,1.71,0,0,0-1.55,1,1.69,1.69,0,0,0-1.54-1,1.71,1.71,0,0,0-1.55,1,1.69,1.69,0,0,0-1.54-1,1.71,1.71,0,0,0-1.55,1,1.69,1.69,0,0,0-3.09,0,1.69,1.69,0,0,0-3.09,0,1.7,1.7,0,0,0-1.54-1,1.72,1.72,0,1,0,0,3.43,1.7,1.7,0,0,0,1.54-1,1.69,1.69,0,0,0,3.09,0,1.69,1.69,0,0,0,3.09,0,1.71,1.71,0,0,0,1.55,1,1.69,1.69,0,0,0,1.54-1,1.71,1.71,0,0,0,1.55,1,1.69,1.69,0,0,0,1.54-1,1.71,1.71,0,0,0,1.55,1,1.69,1.69,0,0,0,1.54-1,1.71,1.71,0,1,0,1.55-2.43Z" style="fill:#fff;opacity:0.7000000000000001;isolation:isolate"></path><path d="M262.3,247a1.71,1.71,0,0,0-1.55,1,1.69,1.69,0,0,0-1.54-1,1.71,1.71,0,0,0-1.55,1,1.69,1.69,0,0,0-3.09,0,1.69,1.69,0,0,0-3.09,0,1.69,1.69,0,0,0-3.09,0,1.69,1.69,0,0,0-3.09,0,1.72,1.72,0,1,0,0,1.43,1.69,1.69,0,0,0,3.09,0,1.69,1.69,0,0,0,3.09,0,1.69,1.69,0,0,0,3.09,0,1.69,1.69,0,0,0,3.09,0,1.71,1.71,0,0,0,1.55,1,1.69,1.69,0,0,0,1.54-1A1.71,1.71,0,1,0,262.3,247Z" style="fill:#65C3C8"></path><path d="M262.3,247a1.71,1.71,0,0,0-1.55,1,1.69,1.69,0,0,0-1.54-1,1.71,1.71,0,0,0-1.55,1,1.69,1.69,0,0,0-3.09,0,1.69,1.69,0,0,0-3.09,0,1.69,1.69,0,0,0-3.09,0,1.69,1.69,0,0,0-3.09,0,1.72,1.72,0,1,0,0,1.43,1.69,1.69,0,0,0,3.09,0,1.69,1.69,0,0,0,3.09,0,1.69,1.69,0,0,0,3.09,0,1.69,1.69,0,0,0,3.09,0,1.71,1.71,0,0,0,1.55,1,1.69,1.69,0,0,0,1.54-1A1.71,1.71,0,1,0,262.3,247Z" style="fill:#fff;opacity:0.7000000000000001;isolation:isolate"></path><rect x="223.56" y="250.86" width="44.64" height="18.51" style="fill:#65C3C8"></rect><rect x="223.56" y="250.86" width="44.64" height="18.51" style="fill:#fff;opacity:0.7000000000000001;isolation:isolate"></rect><path d="M226.59,256.6h0a2.47,2.47,0,0,1,3.5,0h0a2.48,2.48,0,0,0,3.51,0h0a2.48,2.48,0,0,1,3.51,0h0a2.48,2.48,0,0,0,3.51,0h0a2.48,2.48,0,0,1,3.51,0h0a2.48,2.48,0,0,0,3.51,0h0a2.47,2.47,0,0,1,3.5,0h0a2.48,2.48,0,0,0,3.51,0h0a2.48,2.48,0,0,1,3.51,0h0a2.48,2.48,0,0,0,3.51,0h0a2.48,2.48,0,0,1,3.51,0h0a2.48,2.48,0,0,0,3.51,0l.31-.31a2.52,2.52,0,0,0,.72-1.76v-3.76a1.22,1.22,0,0,0-1.22-1.22H223.26a1.22,1.22,0,0,0-1.22,1.22v3.76a2.48,2.48,0,0,0,.73,1.76l.31.31A2.48,2.48,0,0,0,226.59,256.6Z" style="fill:#65C3C8"></path><path d="M226.59,256.6h0a2.47,2.47,0,0,1,3.5,0h0a2.48,2.48,0,0,0,3.51,0h0a2.48,2.48,0,0,1,3.51,0h0a2.48,2.48,0,0,0,3.51,0h0a2.48,2.48,0,0,1,3.51,0h0a2.48,2.48,0,0,0,3.51,0h0a2.47,2.47,0,0,1,3.5,0h0a2.48,2.48,0,0,0,3.51,0h0a2.48,2.48,0,0,1,3.51,0h0a2.48,2.48,0,0,0,3.51,0h0a2.48,2.48,0,0,1,3.51,0h0a2.48,2.48,0,0,0,3.51,0l.31-.31a2.52,2.52,0,0,0,.72-1.76v-3.76a1.22,1.22,0,0,0-1.22-1.22H223.26a1.22,1.22,0,0,0-1.22,1.22v3.76a2.48,2.48,0,0,0,.73,1.76l.31.31A2.48,2.48,0,0,0,226.59,256.6Z" style="fill:#fff;opacity:0.4;isolation:isolate"></path><path d="M267.67,265.76a1.78,1.78,0,0,0-1.56.95,1.76,1.76,0,0,0-1.55-.95,1.78,1.78,0,0,0-1.56.95,1.75,1.75,0,0,0-3.11,0,1.78,1.78,0,0,0-1.56-.95,1.76,1.76,0,0,0-1.55.95,1.76,1.76,0,0,0-3.12,0,1.76,1.76,0,0,0-1.55-.95,1.78,1.78,0,0,0-1.56.95,1.78,1.78,0,0,0-1.56-.95,1.76,1.76,0,0,0-1.55.95,1.78,1.78,0,0,0-1.56-.95,1.76,1.76,0,0,0-1.55.95,1.76,1.76,0,0,0-3.12,0,1.76,1.76,0,0,0-1.55-.95,1.78,1.78,0,0,0-1.56.95,1.78,1.78,0,0,0-1.56-.95,1.76,1.76,0,0,0-1.55.95,1.76,1.76,0,0,0-3.12,0,1.76,1.76,0,0,0-1.55-.95,1.78,1.78,0,0,0-1.56.95,1.75,1.75,0,0,0-3.11,0,1.78,1.78,0,0,0-1.56-.95,1.8,1.8,0,0,0,0,3.6,1.78,1.78,0,0,0,1.56-.95,1.75,1.75,0,0,0,3.11,0,1.78,1.78,0,0,0,1.56.95,1.76,1.76,0,0,0,1.55-.95,1.76,1.76,0,0,0,3.12,0,1.76,1.76,0,0,0,1.55.95,1.78,1.78,0,0,0,1.56-.95,1.78,1.78,0,0,0,1.56.95,1.76,1.76,0,0,0,1.55-.95,1.76,1.76,0,0,0,3.12,0,1.76,1.76,0,0,0,1.55.95,1.78,1.78,0,0,0,1.56-.95,1.76,1.76,0,0,0,1.55.95,1.78,1.78,0,0,0,1.56-.95,1.78,1.78,0,0,0,1.56.95,1.76,1.76,0,0,0,1.55-.95,1.76,1.76,0,0,0,3.12,0,1.76,1.76,0,0,0,1.55.95,1.78,1.78,0,0,0,1.56-.95,1.75,1.75,0,0,0,3.11,0,1.78,1.78,0,0,0,1.56.95,1.76,1.76,0,0,0,1.55-.95,1.78,1.78,0,0,0,1.56.95,1.8,1.8,0,0,0,0-3.6Z" style="fill:#65C3C8"></path><path d="M267.67,265.76a1.78,1.78,0,0,0-1.56.95,1.76,1.76,0,0,0-1.55-.95,1.78,1.78,0,0,0-1.56.95,1.75,1.75,0,0,0-3.11,0,1.78,1.78,0,0,0-1.56-.95,1.76,1.76,0,0,0-1.55.95,1.76,1.76,0,0,0-3.12,0,1.76,1.76,0,0,0-1.55-.95,1.78,1.78,0,0,0-1.56.95,1.78,1.78,0,0,0-1.56-.95,1.76,1.76,0,0,0-1.55.95,1.78,1.78,0,0,0-1.56-.95,1.76,1.76,0,0,0-1.55.95,1.76,1.76,0,0,0-3.12,0,1.76,1.76,0,0,0-1.55-.95,1.78,1.78,0,0,0-1.56.95,1.78,1.78,0,0,0-1.56-.95,1.76,1.76,0,0,0-1.55.95,1.76,1.76,0,0,0-3.12,0,1.76,1.76,0,0,0-1.55-.95,1.78,1.78,0,0,0-1.56.95,1.75,1.75,0,0,0-3.11,0,1.78,1.78,0,0,0-1.56-.95,1.8,1.8,0,0,0,0,3.6,1.78,1.78,0,0,0,1.56-.95,1.75,1.75,0,0,0,3.11,0,1.78,1.78,0,0,0,1.56.95,1.76,1.76,0,0,0,1.55-.95,1.76,1.76,0,0,0,3.12,0,1.76,1.76,0,0,0,1.55.95,1.78,1.78,0,0,0,1.56-.95,1.78,1.78,0,0,0,1.56.95,1.76,1.76,0,0,0,1.55-.95,1.76,1.76,0,0,0,3.12,0,1.76,1.76,0,0,0,1.55.95,1.78,1.78,0,0,0,1.56-.95,1.76,1.76,0,0,0,1.55.95,1.78,1.78,0,0,0,1.56-.95,1.78,1.78,0,0,0,1.56.95,1.76,1.76,0,0,0,1.55-.95,1.76,1.76,0,0,0,3.12,0,1.76,1.76,0,0,0,1.55.95,1.78,1.78,0,0,0,1.56-.95,1.75,1.75,0,0,0,3.11,0,1.78,1.78,0,0,0,1.56.95,1.76,1.76,0,0,0,1.55-.95,1.78,1.78,0,0,0,1.56.95,1.8,1.8,0,0,0,0-3.6Z" style="fill:#fff;opacity:0.4;isolation:isolate"></path><path d="M227.42,262.84a.37.37,0,0,1-.31-.17l-1.1-1.94a.35.35,0,0,1,.13-.48.37.37,0,0,1,.48.13l1.1,1.94a.35.35,0,0,1-.13.48A.33.33,0,0,1,227.42,262.84Z" style="fill:#65C3C8"></path><path d="M228.91,260.49a.31.31,0,0,1-.21-.07.34.34,0,0,1-.07-.49l1-1.29a.36.36,0,0,1,.49-.07.34.34,0,0,1,.07.49l-.95,1.29A.37.37,0,0,1,228.91,260.49Z" style="fill:#65C3C8"></path><path d="M231.48,261.88a.35.35,0,0,1-.3-.17l-.6-1a.35.35,0,1,1,.59-.37l.6,1a.34.34,0,0,1-.11.48A.32.32,0,0,1,231.48,261.88Z" style="fill:#65C3C8"></path><path d="M226.31,258.33h-.06l-1.43-.28a.35.35,0,1,1,.13-.68l1.43.27a.35.35,0,0,1-.07.7Z" style="fill:#65C3C8"></path><path d="M224.88,261.88a.35.35,0,0,1-.33-.24L224,260a.35.35,0,1,1,.66-.23l.55,1.61a.35.35,0,0,1-.21.45Z" style="fill:#65C3C8"></path><path d="M223.56,263.81a.35.35,0,0,1-.32-.2.34.34,0,0,1,.18-.46l1.32-.6a.34.34,0,0,1,.46.17.35.35,0,0,1-.17.46l-1.32.6A.4.4,0,0,1,223.56,263.81Z" style="fill:#65C3C8"></path><path d="M227.42,264.32h-.06l-1.11-.19a.34.34,0,0,1-.28-.4.35.35,0,0,1,.4-.29l1.11.19a.34.34,0,0,1,.28.4A.34.34,0,0,1,227.42,264.32Z" style="fill:#65C3C8"></path><path d="M229.38,263.81h-.06a.36.36,0,0,1-.28-.41l.25-1.34a.35.35,0,0,1,.41-.28.37.37,0,0,1,.28.41l-.25,1.34A.35.35,0,0,1,229.38,263.81Z" style="fill:#65C3C8"></path><path d="M236.55,259h-.08l-1.84-.41a.36.36,0,0,1-.27-.42.34.34,0,0,1,.42-.26l1.85.41a.36.36,0,0,1,.26.42A.35.35,0,0,1,236.55,259Z" style="fill:#65C3C8"></path><path d="M232.35,259a.22.22,0,0,1-.11,0,.34.34,0,0,1-.22-.44l.33-.93a.34.34,0,0,1,.65.23l-.32.93A.35.35,0,0,1,232.35,259Z" style="fill:#65C3C8"></path><path d="M236.36,262.48a.31.31,0,0,1-.22-.09l-1.85-1.57a.35.35,0,1,1,.46-.53l1.84,1.57a.34.34,0,0,1,0,.49A.37.37,0,0,1,236.36,262.48Z" style="fill:#65C3C8"></path><path d="M241.89,258.88a.35.35,0,0,1-.22-.08l-1.85-1.57a.36.36,0,0,1,0-.5.37.37,0,0,1,.5,0l1.84,1.57a.35.35,0,0,1-.23.62Z" style="fill:#65C3C8"></path><path d="M231.94,263.14a.35.35,0,0,1-.11-.68l2-.67a.35.35,0,0,1,.22.67l-2,.67Z" style="fill:#65C3C8"></path><path d="M235.12,264.69a.32.32,0,0,1-.16,0l-1.07-.55a.35.35,0,1,1,.32-.62l1.07.55a.35.35,0,0,1,.15.47A.34.34,0,0,1,235.12,264.69Z" style="fill:#65C3C8"></path><path d="M243.24,262.87a.35.35,0,0,1-.3-.18l-1.11-1.94a.35.35,0,0,1,.13-.47.35.35,0,0,1,.48.13l1.11,1.93a.36.36,0,0,1-.13.48A.41.41,0,0,1,243.24,262.87Z" style="fill:#65C3C8"></path><path d="M244.73,260.52a.44.44,0,0,1-.21-.07.36.36,0,0,1-.07-.49l1-1.29a.35.35,0,0,1,.49-.08.36.36,0,0,1,.07.49l-1,1.29A.32.32,0,0,1,244.73,260.52Z" style="fill:#65C3C8"></path><path d="M247.3,261.9a.34.34,0,0,1-.29-.17l-.6-1a.35.35,0,1,1,.59-.37l.6,1a.35.35,0,0,1-.11.48A.41.41,0,0,1,247.3,261.9Z" style="fill:#65C3C8"></path><path d="M240.71,261.9a.34.34,0,0,1-.33-.24l-.56-1.61a.35.35,0,0,1,.67-.23l.55,1.62a.35.35,0,0,1-.22.44Z" style="fill:#65C3C8"></path><path d="M239.39,263.84a.36.36,0,0,1-.32-.21.35.35,0,0,1,.17-.46l1.32-.6a.36.36,0,0,1,.47.17.36.36,0,0,1-.18.47l-1.32.59A.23.23,0,0,1,239.39,263.84Z" style="fill:#65C3C8"></path><path d="M243.24,264.34h-.05l-1.11-.19a.35.35,0,0,1-.29-.4.36.36,0,0,1,.4-.29l1.11.19a.35.35,0,0,1,.29.4A.35.35,0,0,1,243.24,264.34Z" style="fill:#65C3C8"></path><path d="M245.21,263.84h-.06a.35.35,0,0,1-.28-.41l.24-1.33a.34.34,0,0,1,.41-.28.34.34,0,0,1,.28.4l-.25,1.34A.34.34,0,0,1,245.21,263.84Z" style="fill:#65C3C8"></path><path d="M237.69,261.76h-.07a.34.34,0,0,1-.28-.4l.25-1.34a.35.35,0,0,1,.41-.28.35.35,0,0,1,.28.41l-.25,1.33A.35.35,0,0,1,237.69,261.76Z" style="fill:#65C3C8"></path><path d="M252.38,259h-.08l-1.85-.42a.35.35,0,1,1,.16-.68l1.84.41a.35.35,0,0,1-.07.69Z" style="fill:#65C3C8"></path><path d="M248.18,259a.25.25,0,0,1-.12,0,.34.34,0,0,1-.21-.44l.32-.92a.35.35,0,0,1,.45-.22.35.35,0,0,1,.21.45l-.32.92A.36.36,0,0,1,248.18,259Z" style="fill:#65C3C8"></path><path d="M252.19,262.5a.4.4,0,0,1-.23-.08l-1.84-1.57a.35.35,0,0,1,0-.5.36.36,0,0,1,.49,0l1.85,1.57a.37.37,0,0,1,0,.5A.36.36,0,0,1,252.19,262.5Z" style="fill:#65C3C8"></path><path d="M247.76,263.17a.37.37,0,0,1-.33-.24.35.35,0,0,1,.22-.44l2-.67a.34.34,0,0,1,.44.22.34.34,0,0,1-.22.44l-2,.67Z" style="fill:#65C3C8"></path><path d="M251,264.71a.29.29,0,0,1-.16,0l-1.08-.55a.35.35,0,1,1,.32-.62l1.08.55a.35.35,0,0,1,.15.47A.37.37,0,0,1,251,264.71Z" style="fill:#65C3C8"></path><path d="M258.71,258.88a.29.29,0,0,1-.16,0l-1.08-.55a.35.35,0,0,1,.32-.63l1.08.56a.35.35,0,0,1,.15.47A.37.37,0,0,1,258.71,258.88Z" style="fill:#65C3C8"></path><path d="M259.07,262.89a.33.33,0,0,1-.3-.18l-1.11-1.93a.35.35,0,0,1,.13-.48.36.36,0,0,1,.48.13l1.1,1.94a.35.35,0,0,1-.13.48A.33.33,0,0,1,259.07,262.89Z" style="fill:#65C3C8"></path><path d="M260.56,260.54a.33.33,0,0,1-.21-.07.35.35,0,0,1-.07-.49l1-1.29a.35.35,0,0,1,.57.42l-1,1.29A.35.35,0,0,1,260.56,260.54Z" style="fill:#65C3C8"></path><path d="M263.13,261.92a.37.37,0,0,1-.3-.16l-.6-1a.35.35,0,0,1,.11-.48.37.37,0,0,1,.49.11l.6,1a.35.35,0,0,1-.12.48A.29.29,0,0,1,263.13,261.92Z" style="fill:#65C3C8"></path><path d="M256.53,261.92a.36.36,0,0,1-.33-.23l-.55-1.62a.34.34,0,0,1,.22-.44.34.34,0,0,1,.44.22l.55,1.61a.34.34,0,0,1-.21.44A.25.25,0,0,1,256.53,261.92Z" style="fill:#65C3C8"></path><path d="M255.21,263.86a.34.34,0,0,1-.31-.21.34.34,0,0,1,.17-.46l1.32-.6a.34.34,0,0,1,.46.18.35.35,0,0,1-.17.46l-1.32.6A.4.4,0,0,1,255.21,263.86Z" style="fill:#65C3C8"></path><path d="M259.07,264.37H259l-1.1-.18a.35.35,0,0,1-.29-.41.34.34,0,0,1,.4-.28l1.11.18a.35.35,0,0,1-.06.7Z" style="fill:#65C3C8"></path><path d="M261,263.86H261a.34.34,0,0,1-.28-.4l.25-1.34a.35.35,0,0,1,.41-.28.35.35,0,0,1,.28.41l-.25,1.33A.35.35,0,0,1,261,263.86Z" style="fill:#65C3C8"></path><path d="M253.73,262.43h-.06a.34.34,0,0,1-.28-.4l.25-1.34a.34.34,0,0,1,.4-.28.35.35,0,0,1,.28.41l-.24,1.33A.36.36,0,0,1,253.73,262.43Z" style="fill:#65C3C8"></path><path d="M268.2,259h-.08l-1.84-.42a.33.33,0,0,1-.26-.41.34.34,0,0,1,.41-.27l1.85.42a.35.35,0,0,1-.08.69Z" style="fill:#65C3C8"></path><path d="M264,259l-.11,0a.37.37,0,0,1-.22-.45l.33-.92a.34.34,0,0,1,.44-.21.34.34,0,0,1,.22.44l-.33.92A.34.34,0,0,1,264,259Z" style="fill:#65C3C8"></path><path d="M252.38,265.38l-.12,0a.34.34,0,0,1-.21-.44l.32-.93a.34.34,0,0,1,.44-.21.34.34,0,0,1,.22.44l-.32.93A.36.36,0,0,1,252.38,265.38Z" style="fill:#65C3C8"></path><path d="M254.4,259.06a.2.2,0,0,1-.11,0,.34.34,0,0,1-.22-.44l.32-.92a.35.35,0,0,1,.45-.22.34.34,0,0,1,.21.45l-.32.92A.35.35,0,0,1,254.4,259.06Z" style="fill:#65C3C8"></path><path d="M268,262.52a.4.4,0,0,1-.23-.08L266,260.87a.35.35,0,1,1,.45-.53l1.84,1.57a.35.35,0,0,1-.22.61Z" style="fill:#65C3C8"></path><path d="M263.59,263.19a.34.34,0,0,1-.33-.24.35.35,0,0,1,.22-.44l2-.67a.35.35,0,0,1,.44.22.35.35,0,0,1-.22.44l-2,.67Z" style="fill:#65C3C8"></path><path d="M266.77,264.74a.47.47,0,0,1-.16,0l-1.07-.56a.35.35,0,0,1,.32-.62l1.07.55a.36.36,0,0,1,.15.48A.34.34,0,0,1,266.77,264.74Z" style="fill:#65C3C8"></path><g style="opacity:0.4;isolation:isolate"><path d="M227.42,262.84a.37.37,0,0,1-.31-.17l-1.1-1.94a.35.35,0,0,1,.13-.48.37.37,0,0,1,.48.13l1.1,1.94a.35.35,0,0,1-.13.48A.33.33,0,0,1,227.42,262.84Z" style="fill:#fff"></path><path d="M228.91,260.49a.31.31,0,0,1-.21-.07.34.34,0,0,1-.07-.49l1-1.29a.36.36,0,0,1,.49-.07.34.34,0,0,1,.07.49l-.95,1.29A.37.37,0,0,1,228.91,260.49Z" style="fill:#fff"></path><path d="M231.48,261.88a.35.35,0,0,1-.3-.17l-.6-1a.35.35,0,1,1,.59-.37l.6,1a.34.34,0,0,1-.11.48A.32.32,0,0,1,231.48,261.88Z" style="fill:#fff"></path><path d="M226.31,258.33h-.06l-1.43-.28a.35.35,0,1,1,.13-.68l1.43.27a.35.35,0,0,1-.07.7Z" style="fill:#fff"></path><path d="M224.88,261.88a.35.35,0,0,1-.33-.24L224,260a.35.35,0,1,1,.66-.23l.55,1.61a.35.35,0,0,1-.21.45Z" style="fill:#fff"></path><path d="M223.56,263.81a.35.35,0,0,1-.32-.2.34.34,0,0,1,.18-.46l1.32-.6a.34.34,0,0,1,.46.17.35.35,0,0,1-.17.46l-1.32.6A.4.4,0,0,1,223.56,263.81Z" style="fill:#fff"></path><path d="M227.42,264.32h-.06l-1.11-.19a.34.34,0,0,1-.28-.4.35.35,0,0,1,.4-.29l1.11.19a.34.34,0,0,1,.28.4A.34.34,0,0,1,227.42,264.32Z" style="fill:#fff"></path><path d="M229.38,263.81h-.06a.36.36,0,0,1-.28-.41l.25-1.34a.35.35,0,0,1,.41-.28.37.37,0,0,1,.28.41l-.25,1.34A.35.35,0,0,1,229.38,263.81Z" style="fill:#fff"></path><path d="M236.55,259h-.08l-1.84-.41a.36.36,0,0,1-.27-.42.34.34,0,0,1,.42-.26l1.85.41a.36.36,0,0,1,.26.42A.35.35,0,0,1,236.55,259Z" style="fill:#fff"></path><path d="M232.35,259a.22.22,0,0,1-.11,0,.34.34,0,0,1-.22-.44l.33-.93a.34.34,0,0,1,.65.23l-.32.93A.35.35,0,0,1,232.35,259Z" style="fill:#fff"></path><path d="M236.36,262.48a.31.31,0,0,1-.22-.09l-1.85-1.57a.35.35,0,1,1,.46-.53l1.84,1.57a.34.34,0,0,1,0,.49A.37.37,0,0,1,236.36,262.48Z" style="fill:#fff"></path><path d="M241.89,258.88a.35.35,0,0,1-.22-.08l-1.85-1.57a.36.36,0,0,1,0-.5.37.37,0,0,1,.5,0l1.84,1.57a.35.35,0,0,1-.23.62Z" style="fill:#fff"></path><path d="M231.94,263.14a.35.35,0,0,1-.11-.68l2-.67a.35.35,0,0,1,.22.67l-2,.67Z" style="fill:#fff"></path><path d="M235.12,264.69a.32.32,0,0,1-.16,0l-1.07-.55a.35.35,0,1,1,.32-.62l1.07.55a.35.35,0,0,1,.15.47A.34.34,0,0,1,235.12,264.69Z" style="fill:#fff"></path><path d="M243.24,262.87a.35.35,0,0,1-.3-.18l-1.11-1.94a.35.35,0,0,1,.13-.47.35.35,0,0,1,.48.13l1.11,1.93a.36.36,0,0,1-.13.48A.41.41,0,0,1,243.24,262.87Z" style="fill:#fff"></path><path d="M244.73,260.52a.44.44,0,0,1-.21-.07.36.36,0,0,1-.07-.49l1-1.29a.35.35,0,0,1,.49-.08.36.36,0,0,1,.07.49l-1,1.29A.32.32,0,0,1,244.73,260.52Z" style="fill:#fff"></path><path d="M247.3,261.9a.34.34,0,0,1-.29-.17l-.6-1a.35.35,0,1,1,.59-.37l.6,1a.35.35,0,0,1-.11.48A.41.41,0,0,1,247.3,261.9Z" style="fill:#fff"></path><path d="M240.71,261.9a.34.34,0,0,1-.33-.24l-.56-1.61a.35.35,0,0,1,.67-.23l.55,1.62a.35.35,0,0,1-.22.44Z" style="fill:#fff"></path><path d="M239.39,263.84a.36.36,0,0,1-.32-.21.35.35,0,0,1,.17-.46l1.32-.6a.36.36,0,0,1,.47.17.36.36,0,0,1-.18.47l-1.32.59A.23.23,0,0,1,239.39,263.84Z" style="fill:#fff"></path><path d="M243.24,264.34h-.05l-1.11-.19a.35.35,0,0,1-.29-.4.36.36,0,0,1,.4-.29l1.11.19a.35.35,0,0,1,.29.4A.35.35,0,0,1,243.24,264.34Z" style="fill:#fff"></path><path d="M245.21,263.84h-.06a.35.35,0,0,1-.28-.41l.24-1.33a.34.34,0,0,1,.41-.28.34.34,0,0,1,.28.4l-.25,1.34A.34.34,0,0,1,245.21,263.84Z" style="fill:#fff"></path><path d="M237.69,261.76h-.07a.34.34,0,0,1-.28-.4l.25-1.34a.35.35,0,0,1,.41-.28.35.35,0,0,1,.28.41l-.25,1.33A.35.35,0,0,1,237.69,261.76Z" style="fill:#fff"></path><path d="M252.38,259h-.08l-1.85-.42a.35.35,0,1,1,.16-.68l1.84.41a.35.35,0,0,1-.07.69Z" style="fill:#fff"></path><path d="M248.18,259a.25.25,0,0,1-.12,0,.34.34,0,0,1-.21-.44l.32-.92a.35.35,0,0,1,.45-.22.35.35,0,0,1,.21.45l-.32.92A.36.36,0,0,1,248.18,259Z" style="fill:#fff"></path><path d="M252.19,262.5a.4.4,0,0,1-.23-.08l-1.84-1.57a.35.35,0,0,1,0-.5.36.36,0,0,1,.49,0l1.85,1.57a.37.37,0,0,1,0,.5A.36.36,0,0,1,252.19,262.5Z" style="fill:#fff"></path><path d="M247.76,263.17a.37.37,0,0,1-.33-.24.35.35,0,0,1,.22-.44l2-.67a.34.34,0,0,1,.44.22.34.34,0,0,1-.22.44l-2,.67Z" style="fill:#fff"></path><path d="M251,264.71a.29.29,0,0,1-.16,0l-1.08-.55a.35.35,0,1,1,.32-.62l1.08.55a.35.35,0,0,1,.15.47A.37.37,0,0,1,251,264.71Z" style="fill:#fff"></path><path d="M258.71,258.88a.29.29,0,0,1-.16,0l-1.08-.55a.35.35,0,0,1,.32-.63l1.08.56a.35.35,0,0,1,.15.47A.37.37,0,0,1,258.71,258.88Z" style="fill:#fff"></path><path d="M259.07,262.89a.33.33,0,0,1-.3-.18l-1.11-1.93a.35.35,0,0,1,.13-.48.36.36,0,0,1,.48.13l1.1,1.94a.35.35,0,0,1-.13.48A.33.33,0,0,1,259.07,262.89Z" style="fill:#fff"></path><path d="M260.56,260.54a.33.33,0,0,1-.21-.07.35.35,0,0,1-.07-.49l1-1.29a.35.35,0,0,1,.57.42l-1,1.29A.35.35,0,0,1,260.56,260.54Z" style="fill:#fff"></path><path d="M263.13,261.92a.37.37,0,0,1-.3-.16l-.6-1a.35.35,0,0,1,.11-.48.37.37,0,0,1,.49.11l.6,1a.35.35,0,0,1-.12.48A.29.29,0,0,1,263.13,261.92Z" style="fill:#fff"></path><path d="M256.53,261.92a.36.36,0,0,1-.33-.23l-.55-1.62a.34.34,0,0,1,.22-.44.34.34,0,0,1,.44.22l.55,1.61a.34.34,0,0,1-.21.44A.25.25,0,0,1,256.53,261.92Z" style="fill:#fff"></path><path d="M255.21,263.86a.34.34,0,0,1-.31-.21.34.34,0,0,1,.17-.46l1.32-.6a.34.34,0,0,1,.46.18.35.35,0,0,1-.17.46l-1.32.6A.4.4,0,0,1,255.21,263.86Z" style="fill:#fff"></path><path d="M259.07,264.37H259l-1.1-.18a.35.35,0,0,1-.29-.41.34.34,0,0,1,.4-.28l1.11.18a.35.35,0,0,1-.06.7Z" style="fill:#fff"></path><path d="M261,263.86H261a.34.34,0,0,1-.28-.4l.25-1.34a.35.35,0,0,1,.41-.28.35.35,0,0,1,.28.41l-.25,1.33A.35.35,0,0,1,261,263.86Z" style="fill:#fff"></path><path d="M253.73,262.43h-.06a.34.34,0,0,1-.28-.4l.25-1.34a.34.34,0,0,1,.4-.28.35.35,0,0,1,.28.41l-.24,1.33A.36.36,0,0,1,253.73,262.43Z" style="fill:#fff"></path><path d="M268.2,259h-.08l-1.84-.42a.33.33,0,0,1-.26-.41.34.34,0,0,1,.41-.27l1.85.42a.35.35,0,0,1-.08.69Z" style="fill:#fff"></path><path d="M264,259l-.11,0a.37.37,0,0,1-.22-.45l.33-.92a.34.34,0,0,1,.44-.21.34.34,0,0,1,.22.44l-.33.92A.34.34,0,0,1,264,259Z" style="fill:#fff"></path><path d="M252.38,265.38l-.12,0a.34.34,0,0,1-.21-.44l.32-.93a.34.34,0,0,1,.44-.21.34.34,0,0,1,.22.44l-.32.93A.36.36,0,0,1,252.38,265.38Z" style="fill:#fff"></path><path d="M254.4,259.06a.2.2,0,0,1-.11,0,.34.34,0,0,1-.22-.44l.32-.92a.35.35,0,0,1,.45-.22.34.34,0,0,1,.21.45l-.32.92A.35.35,0,0,1,254.4,259.06Z" style="fill:#fff"></path><path d="M268,262.52a.4.4,0,0,1-.23-.08L266,260.87a.35.35,0,1,1,.45-.53l1.84,1.57a.35.35,0,0,1-.22.61Z" style="fill:#fff"></path><path d="M263.59,263.19a.34.34,0,0,1-.33-.24.35.35,0,0,1,.22-.44l2-.67a.35.35,0,0,1,.44.22.35.35,0,0,1-.22.44l-2,.67Z" style="fill:#fff"></path><path d="M266.77,264.74a.47.47,0,0,1-.16,0l-1.07-.56a.35.35,0,0,1,.32-.62l1.07.55a.36.36,0,0,1,.15.48A.34.34,0,0,1,266.77,264.74Z" style="fill:#fff"></path></g><path d="M272.23,270.84H219.54a1.24,1.24,0,0,1-1.25-1.24h0a1.25,1.25,0,0,1,1.25-1.25h52.69a1.25,1.25,0,0,1,1.24,1.25h0A1.24,1.24,0,0,1,272.23,270.84Z" style="fill:#263238"></path><path d="M175.93,424.65s15.84-85.31,16-133.41l-16-.51s2.3,44.1-6.88,133.58Z" style="fill:#e4897b"></path><path d="M215.44,424s4.32-86.66-1.9-134.35l-16,1.63s8.15,43.4,11,133.3Z" style="fill:#e4897b"></path><path d="M177,422.91h-8.86a.63.63,0,0,0-.62.5l-1.44,6.5a1.07,1.07,0,0,0,.83,1.27.65.65,0,0,0,.24,0c2.86,0,4.95-.22,8.55-.22,2.22,0,8.91.23,12,.23s3.46-3,2.21-3.3c-5.63-1.22-9.86-2.92-11.66-4.54A1.77,1.77,0,0,0,177,422.91Z" style="fill:#263238"></path><path d="M216.4,422.68h-8.86a.63.63,0,0,0-.62.5l-1.44,6.49a1.08,1.08,0,0,0,.83,1.28,1,1,0,0,0,.24,0c2.86,0,4.95-.22,8.55-.22,2.22,0,8.91.23,12,.23s3.46-3,2.21-3.3c-5.63-1.23-9.86-2.92-11.66-4.54A1.77,1.77,0,0,0,216.4,422.68Z" style="fill:#263238"></path><path d="M168.44,417.55l9.83.7s7.36-57,11.86-93.41c1.8-14.59,3.16-25.86,3.39-28.81,4,10.86,13.71,52.66,13.71,122l9.67-1.61c5.44-69.42-3.7-145.55-5.92-157.26H172.27C172.22,263.78,169.82,392.75,168.44,417.55Z" style="fill:#263238"></path><path d="M219.18,173.75s7.15,1.88,9.29,4.62-.66,8.55-4.28,7.45S216.58,175.43,219.18,173.75Z" style="fill:#263238"></path><path d="M222.38,199.55a9.4,9.4,0,0,1-.62.89,10,10,0,0,1-4.91,3.45,11.46,11.46,0,0,1-1.51.37,9.19,9.19,0,0,1-9.85-5c-2.33-4.65-.92-8.67.93-15.65a9.74,9.74,0,0,1,2.1-4.09,9.88,9.88,0,0,1,13.93-1.07C228.28,183.36,225.88,193.86,222.38,199.55Z" style="fill:#e4897b"></path><path d="M216.85,203.89a11.46,11.46,0,0,1-1.51.37,9.21,9.21,0,0,1-7.62-2.12,10.63,10.63,0,0,1,2-1.93A14.33,14.33,0,0,1,216.85,203.89Z" style="opacity:0.2;isolation:isolate"></path><path d="M195.13,206.54c1.18,4.65,11.71,5.28,11.71,5.28s5.35,1.75,5.33-.29c-2.38-2.21-2.84-4.31-2.32-6.26a9.32,9.32,0,0,1,1.74-3.22c.42-.54.88-1.06,1.35-1.56l-4.57-12.58C206.64,193.07,200.14,205.28,195.13,206.54Z" style="fill:#e4897b"></path><path d="M221.46,174.83s2.17-.52,4.32,3.41c1.81,3.31-1.47,4.43-.91,8.1s-2.59,6.08-2.59,6.08-2.56,2.75-5.11,1.69c0,0-3,1.9-3.51,4.68s-5.94-1.54-10.25-.32c0,0-3.28-2.45-3.8-9.21a23.45,23.45,0,0,1,1.18-8.68,11.57,11.57,0,0,1,5.61-7C211.17,170.84,220.14,171.57,221.46,174.83Z" style="fill:#263238"></path><path d="M216.34,192.2a4.71,4.71,0,0,0,1.29,3.79c1.21,1,2.76-.63,3.23-2.75.41-1.89.3-4.77-1.31-4.92S216.46,190.19,216.34,192.2Z" style="fill:#e4897b"></path><path d="M186.35,296l3.78,28.81c1.8-14.59,3.16-25.86,3.39-28.81,0,0-9-7.16-9.18-16.88C184.34,279.15,180.05,288,186.35,296Z" style="opacity:0.2;isolation:isolate"></path><path d="M210,207.17a14.22,14.22,0,0,0-9.48-2.62c-6,.35-8.27,2.49-8.27,2.49Z" style="fill:#263238"></path><path d="M210,207.17a14.22,14.22,0,0,0-9.48-2.62c-6,.35-8.27,2.49-8.27,2.49Z" style="fill:#fff;opacity:0.7000000000000001"></path><path d="M219.18,207.83c-1.37,5.73-2.47,11.17-3.37,16.27-.17.91-.32,1.81-.47,2.7q-.65,3.8-1.12,7.28l-.09.7c-.63,4.58-1.06,8.73-1.39,12.38a165,165,0,0,0-.73,17.3l-40.13-.59c.62-6.94,1-13,1.83-19.57.43-3.6,1-7.36,1.73-11.5.54-3,1.19-6.13,2-9.58,2.71-11.83,6-15.39,6-15.39C198.43,203.7,219.18,207.83,219.18,207.83Z" style="fill:#65C3C8"></path><path d="M177,422.91h-8.86a.63.63,0,0,0-.62.5l-1.44,6.5a1.07,1.07,0,0,0,.83,1.27.65.65,0,0,0,.24,0c2.86,0,4.95-.22,8.55-.22,2.22,0,8.91.23,12,.23s3.46-3,2.21-3.3c-5.63-1.22-9.86-2.92-11.66-4.54A1.77,1.77,0,0,0,177,422.91Z" style="fill:#fff;opacity:0.4"></path><path d="M216.4,422.68h-8.86a.63.63,0,0,0-.62.5l-1.44,6.49a1.08,1.08,0,0,0,.83,1.28,1,1,0,0,0,.24,0c2.86,0,4.95-.22,8.55-.22,2.22,0,8.91.23,12,.23s3.46-3,2.21-3.3c-5.63-1.23-9.86-2.92-11.66-4.54A1.77,1.77,0,0,0,216.4,422.68Z" style="fill:#fff;opacity:0.4"></path><path d="M217.13,207.17s-2.42-3.39-4.85-2.64-11.81,5.26-17.74,5.4-3-3.56-3-3.56a12.67,12.67,0,0,0-3.62-1.24c-1.47-.13-8.29,3.54-9.63,7.39S166.79,244.78,167.06,248a8.1,8.1,0,0,0,1.84,4.79s23.21-1.34,32.23,1.07c0,0,4.32-.75,4.06-6.93S210.21,211.88,217.13,207.17Z" style="fill:#65C3C8"></path><path d="M217.13,207.17s-2.42-3.39-4.85-2.64-11.81,5.26-17.74,5.4-3-3.56-3-3.56a12.67,12.67,0,0,0-3.62-1.24c-1.47-.13-8.29,3.54-9.63,7.39S166.79,244.78,167.06,248a8.1,8.1,0,0,0,1.84,4.79s23.21-1.34,32.23,1.07c0,0,4.32-.75,4.06-6.93S210.21,211.88,217.13,207.17Z" style="fill:#fff;opacity:0.6000000000000001;isolation:isolate"></path><path d="M168.27,251.88a36,36,0,0,0,0,3.89c.13.07,32,1.1,32,1.1l.89-3.71S184.32,249.67,168.27,251.88Z" style="fill:#65C3C8"></path><path d="M168.27,251.88a36,36,0,0,0,0,3.89c.13.07,32,1.1,32,1.1l.89-3.71S184.32,249.67,168.27,251.88Z" style="fill:#fff;opacity:0.30000000000000004;isolation:isolate"></path><path d="M190.86,207.83s-2.93,2.39-2.66,3.72,6.42,1.94,8.83,1a7.3,7.3,0,0,0,3.51-3.68S193.17,210.43,190.86,207.83Z" style="fill:#65C3C8"></path><path d="M190.86,207.83s-2.93,2.39-2.66,3.72,6.42,1.94,8.83,1a7.3,7.3,0,0,0,3.51-3.68S193.17,210.43,190.86,207.83Z" style="fill:#fff;opacity:0.30000000000000004;isolation:isolate"></path><path d="M190.88,208.61s-1.14,1.47,0,2.14,6,2.14,8-1.07C198.84,209.68,193.22,210.08,190.88,208.61Z" style="opacity:0.2;isolation:isolate"></path><path d="M215.81,224.1c-.17.91-.32,1.81-.47,2.7q-.65,3.8-1.12,7.28c-3.16-3.74-1.28-12-1.28-12A7.23,7.23,0,0,1,215.81,224.1Z" style="opacity:0.2;isolation:isolate"></path><path d="M249.09,257.1l6.14,5.84a23.69,23.69,0,0,1,2.79-.43c1,0,5.1,8.87,5.22,9.35s-6.05.95-6.92.56-3.66-4.38-3.9-4.69.11-2.2,0-2.59-5.18-3.47-5.18-3.47Z" style="fill:#e4897b"></path><path d="M219.18,207.83c3.07,1.47,10.8,29,12.9,33.55s19.77,16.15,19.77,16.15l-2.94,5.71s-18-8.32-22.5-14.1-13.47-27.07-13.47-27.07Z" style="fill:#65C3C8"></path></g></g><g id="freepik--character-1--inject-40"><path d="M110.76,196.22s4.9-6.12,13-4.75,6.6,16.25,6.6,16.25a10.71,10.71,0,0,1,3.42,10.62c-1.56,6.73-19.88,10.63-26.88,5.94s-1.59-19.53,1.78-21.63S110.76,196.22,110.76,196.22Z" style="fill:#263238"></path><path d="M132.92,221.42a.27.27,0,0,1-.15,0,.25.25,0,0,1-.05-.35,8.11,8.11,0,0,0,1.92-6.45c-.72-4.26-5.14-7.17-5.18-7.2a.24.24,0,0,1-.07-.34.25.25,0,0,1,.34-.08c.19.13,4.64,3.05,5.4,7.54a8.57,8.57,0,0,1-2,6.83A.25.25,0,0,1,132.92,221.42Z" style="fill:#263238"></path><path d="M148,213.62l-5.21-2.35s-3.22-3.17-4.78-3.61-5.94,1.77-5.76,2.18a54.22,54.22,0,0,0,4.89,4.76c.57.4,4.2-.43,4.2-.43l4.89,2,2.14-2.7" style="fill:#ebb376"></path><path d="M148.84,234.4a90.5,90.5,0,0,1-9.69,1.34l-.25-4-.3-4.69c7-.1,15.11-1.29,17.29-2.87s-13.06-9-13.06-9L145.6,212s17,6.9,18.79,11.67C165.84,227.5,161.21,231.94,148.84,234.4Z" style="fill:#263238"></path><path d="M148.84,234.4a90.5,90.5,0,0,1-9.69,1.34l-.25-4C142,231.83,147.32,232.24,148.84,234.4Z" style="opacity:0.2;isolation:isolate"></path><polygon points="92.97 408.65 89.65 404.3 95.28 398.88 100.4 393.94 105.21 398.44 98.74 403.84 92.97 408.65" style="fill:#ebb376"></polygon><path d="M89.46,403c.48-.36,4.61,5.82,4.61,5.82s-.92,6.43.94,10.59-1.76,3.79-4.76-.14-5.3-6.93-7.43-9.73S84.4,406.66,89.46,403Z" style="fill:#263238"></path><path d="M95.46,413.46c-.93-.22-1.54-2.89-1.65-3.42a.11.11,0,0,1,0-.08h0a.14.14,0,0,1,0-.06h0a.1.1,0,0,1,0,0h0l.07,0c.08,0,1.83-.58,2.77,0a1.11,1.11,0,0,1,.56.77c.08.37,0,.63-.2.77s-1,0-1.58-.25a3,3,0,0,1,.87,1.43.78.78,0,0,1-.16.62.76.76,0,0,1-.6.35Zm.09-.38s.16,0,.34-.2a.41.41,0,0,0,.08-.33c-.08-.61-1-1.5-1.65-2.05C94.61,411.65,95.11,413,95.55,413.08Zm-1.07-3c1,.62,2.09,1.12,2.37.93.09-.06.06-.26,0-.36a.77.77,0,0,0-.38-.53,1.8,1.8,0,0,0-.89-.18A5.3,5.3,0,0,0,94.48,410.07Z" style="fill:#65C3C8"></path><polygon points="98.74 403.84 95.28 398.88 100.4 393.94 105.21 398.44 98.74 403.84" style="opacity:0.2;isolation:isolate"></polygon><polygon points="126.23 415.53 120.76 415.53 119.86 407.92 119.05 400.93 125.55 399.87 125.91 408.16 126.23 415.53" style="fill:#ebb376"></polygon><path d="M119.59,415.18c0-.6,7.42-.13,7.42-.13s4.56,4.64,9,5.68,1.95,3.7-3,3.7H120.76C117.25,424.43,119.44,421.43,119.59,415.18Z" style="fill:#263238"></path><path d="M127.84,416l-.06-.05h0l0,0h0s0,0,0-.06h0a.19.19,0,0,1,0-.08c0-.09.65-1.81,1.65-2.22a1.11,1.11,0,0,1,1,0c.34.16.5.37.49.63s-.55.78-1.15,1.1a3,3,0,0,1,1.66.18.77.77,0,0,1,.39.5.71.71,0,0,1-.17.79,1,1,0,0,1-.66.18A9.23,9.23,0,0,1,127.84,416Zm.68-.12c1.09.46,2.45.87,2.8.58,0,0,.12-.1.05-.39a.4.4,0,0,0-.22-.26,1.78,1.78,0,0,0-.87-.16A8.31,8.31,0,0,0,128.52,415.89Zm1-2a3.23,3.23,0,0,0-1.28,1.59c1.1-.42,2.16-1,2.18-1.33,0-.1-.16-.2-.26-.24a.76.76,0,0,0-.35-.09A.82.82,0,0,0,129.55,413.91Z" style="fill:#65C3C8"></path><polygon points="125.91 408.33 119.86 408.07 119.05 401 125.55 399.91 125.91 408.33" style="opacity:0.2;isolation:isolate"></polygon><path d="M139.89,283.92s16.16,38.21,18.7,55-54.88,61.72-54.88,61.72l-5.87-6.25s42.72-43.92,42.72-51.47-16.66-42-16.66-42S122.29,286.94,139.89,283.92Z" style="fill:#65C3C8"></path><path d="M128.19,379.71c-5.87,5.4-11.55,10.27-16,14-5.12,4.28-8.53,6.94-8.53,6.94l-5.87-6.24s5.87-6,13.25-14c5.8-6.27,12.56-13.75,18.13-20.44,6.45-7.76,11.34-14.47,11.34-17,0-4-4.64-15.45-9-25.42-3.93-8.92-7.65-16.63-7.65-16.63a14.07,14.07,0,0,1,.46-4.72c1.12-4.33,4.67-10.34,15.53-12.21,0,0,16.16,38.21,18.7,55C160,348.06,143.45,365.65,128.19,379.71Z" style="fill:#fff;opacity:0.6000000000000001;isolation:isolate"></path><path d="M129.22,359.92l-1,19.79c-5.87,5.4-11.55,10.27-16,14a46.83,46.83,0,0,1-1.15-13.31C116.89,374.09,123.65,366.61,129.22,359.92Z" style="opacity:0.2;isolation:isolate"></path><path d="M131.55,317.48c-3.93-8.92-7.65-16.63-7.65-16.63a14.07,14.07,0,0,1,.46-4.72,5.83,5.83,0,0,1,1.83-.78S131,302.86,131.55,317.48Z" style="opacity:0.2;isolation:isolate"></path><path d="M126.42,295.35l1.06,53.81v55h-9.32c-21.88-104.32-6.88-130.48-6.88-130.48l.06,0a.43.43,0,0,1,0-.12c3.51-7.82,26.56-2.06,26.56-2.06,1.66,6.48,2.72,19.63,2.72,19.63Z" style="fill:#65C3C8"></path><path d="M126.42,295.35l1.06,53.81v55h-9.32c-21.88-104.32-6.88-130.48-6.88-130.48l.06,0a.43.43,0,0,1,0-.12c3.51-7.82,26.56-2.06,26.56-2.06,1.66,6.48,2.72,19.63,2.72,19.63Z" style="fill:#fff;opacity:0.6000000000000001;isolation:isolate"></path><polygon points="111.3 269.71 111.3 273.62 137.99 271.57 137.99 266.95 111.3 269.71" style="fill:#263238"></polygon><rect x="118.96" y="268.09" width="1.33" height="6.75" transform="translate(-13.69 6.45) rotate(-2.92)" style="fill:#65C3C8"></rect><rect x="126.02" y="268.15" width="5.86" height="4.44" transform="translate(-23.6 12.58) rotate(-5.12)" style="fill:#fff"></rect><rect x="135.26" y="266.3" width="1.33" height="6.75" transform="translate(-13.58 7.28) rotate(-2.92)" style="fill:#65C3C8"></rect><rect x="118.96" y="268.09" width="1.33" height="6.75" transform="translate(-13.69 6.45) rotate(-2.92)" style="fill:#fff;opacity:0.6000000000000001;isolation:isolate"></rect><rect x="135.26" y="266.3" width="1.33" height="6.75" transform="translate(-13.58 7.28) rotate(-2.92)" style="fill:#fff;opacity:0.6000000000000001;isolation:isolate"></rect><path d="M138,267.41l-26.69,2.31c-.63-9.92-1.27-16.32-7.14-34-.51-1.55-1.06-3.19-1.67-4.93a81.24,81.24,0,0,1,11.08-2.67,87.71,87.71,0,0,1,12-1.27c5.2,0,11.16.55,11.16.55s.85.21,1.38,5.71C138.55,238.28,139,248.61,138,267.41Z" style="fill:#65C3C8"></path><path d="M138,267.41l-26.69,2.31c-.63-9.92-1.27-16.32-7.14-34-.51-1.55-1.06-3.19-1.67-4.93a81.24,81.24,0,0,1,11.08-2.67,87.71,87.71,0,0,1,12-1.27c5.2,0,11.16.55,11.16.55s.85.21,1.38,5.71C138.55,238.28,139,248.61,138,267.41Z" style="opacity:0.30000000000000004;isolation:isolate"></path><path d="M123.31,232.75c-6.58-.84-8.55-3.65-8.55-3.65,4.17-3.94.7-10.76.7-10.76l7.92,1.48a22.6,22.6,0,0,0-.31,3.33C123,228,125.19,228,125.19,228,126.58,230.61,123.31,232.75,123.31,232.75Z" style="fill:#ebb376"></path><path d="M123.38,219.82a22.6,22.6,0,0,0-.31,3.33c-3.82-.88-7.61-4.81-7.61-4.81Z" style="opacity:0.2;isolation:isolate"></path><path d="M116.32,197.9c6.71-1.59,9.72,1.49,11.85,8.29,2.66,8.49,2.2,15.08-6.62,15.22C109.56,221.61,105.18,200.54,116.32,197.9Z" style="fill:#ebb376"></path><path d="M123.74,206.84a14.73,14.73,0,0,0,2.62,2.32,1.9,1.9,0,0,1-1.59,1.18Z" style="fill:#d58745"></path><path d="M120.23,206.47l-.81.58c-.18-.42-.52-.69-.83-.6s-.55.61-.4,1.16a1,1,0,0,0,.12.3c-.12-.53,0-1.09.41-1.11s.44.45.44.45a.65.65,0,0,0,.35.06h0C120,207.23,120.23,206.47,120.23,206.47Z" style="fill:#263238"></path><path d="M127.4,204.65l-.8.58c-.19-.42-.52-.69-.84-.61s-.54.62-.4,1.17a1.57,1.57,0,0,0,.12.3c-.11-.53,0-1.09.41-1.11s.44.45.44.45a.65.65,0,0,0,.35.06h0v0C127.17,205.41,127.4,204.65,127.4,204.65Z" style="fill:#263238"></path><path d="M115.67,204.71l-.15,0a.37.37,0,0,1-.17-.49,3.92,3.92,0,0,1,3-1.9.35.35,0,0,1,.39.32.36.36,0,0,1-.32.4,3.23,3.23,0,0,0-2.38,1.5A.35.35,0,0,1,115.67,204.71Z" style="fill:#263238"></path><path d="M123.15,201.57a.38.38,0,0,1-.3-.16.37.37,0,0,1,.1-.5,3.52,3.52,0,0,1,3.13-.12.36.36,0,0,1,.22.46.37.37,0,0,1-.47.22,2.9,2.9,0,0,0-2.48,0A.36.36,0,0,1,123.15,201.57Z" style="fill:#263238"></path><path d="M111.67,210.94s1.83-6.25.35-10.39c0,0,12-8.58,15.86,4.75,0,0-1.54-12.28-13.14-9.82s-7.55,19.33-.4,22.94C114.34,218.42,110.55,214.85,111.67,210.94Z" style="fill:#263238"></path><path d="M113.1,212.1a3,3,0,0,0-3.8-1.94c-2,.72-2,5.22,3.41,5C113.48,215.16,113.73,214.33,113.1,212.1Z" style="fill:#ebb376"></path><path d="M138.05,233.11c-10,5-25.38,3.8-33.93,2.61-.51-1.55-1.06-3.19-1.67-4.93a81.24,81.24,0,0,1,11.08-2.67,87.71,87.71,0,0,1,12-1.27c5.2,0,11.16.55,11.16.55S137.52,227.61,138.05,233.11Z" style="fill:#ebb376"></path><path d="M109,303.12l-8-2.27a240.68,240.68,0,0,0,2-54.39c-.31-3.66-.74-7.37-1.29-11.08-.2-1.34-.42-2.67-.66-4l7-3.27s7.19,9.18,7.41,19.14S109,303.12,109,303.12Z" style="fill:#263238"></path><path d="M130.33,227.1s2.94,9.52,2.54,16.36,7,40.52,7,40.52l2.15,5.18-2.13-20.89s1.29-30.66-1.31-41.17Z" style="fill:#263238"></path><path d="M116.32,197.9s2.49,8.45-5.08,12.28c-9.13,4.62-8.27,14.61.65,15.88,0,0-9-.9-10.75-6.78s3.21-14.93,3.21-14.93-2.73-5,4.65-8.88C113.17,193.27,116.32,197.9,116.32,197.9Z" style="fill:#263238"></path><polygon points="116.98 402.89 128.44 401.21 127.48 405.79 118.03 407.06 116.98 402.89" style="fill:#65C3C8"></polygon><polygon points="97.84 392.26 105.53 400.61 101.68 402.81 95.76 396.52 97.84 392.26" style="fill:#65C3C8"></polygon><path d="M116.34,206.11l-.09,0a.25.25,0,0,1-.14-.32c2.45-6.21-.66-8.58-.79-8.67a.25.25,0,0,1-.06-.35.25.25,0,0,1,.35-.06c.15.11,3.57,2.67,1,9.26A.24.24,0,0,1,116.34,206.11Z" style="fill:#263238"></path><path d="M151.93,202.45a2.63,2.63,0,0,1-.06.49,2.44,2.44,0,0,1-.14.46,2.34,2.34,0,0,1-.61.76,5,5,0,0,1-.53.45,19.55,19.55,0,0,1-1.71,1.13l-.75.42c-.63.35-1.33.72-2.09,1.09l-.86.41c-.74.35-1.52.71-2.35,1.06l-1,.4c-.84.35-1.7.7-2.6,1l-1,.39c-.93.35-1.88.69-2.84,1l-1.16.38c-1.8.59-3.64,1.13-5.46,1.6l-2.43.62v-.62s2.12-.78,5-1.89l1-.39,2.66-1,1-.4,2.61-1,1-.4c.88-.35,1.74-.7,2.54-1l1-.4c.89-.38,1.7-.74,2.39-1.06.32-.14.61-.28.87-.41l.62-.32c.5-.27.94-.54,1.32-.79A6.44,6.44,0,0,0,149,204a4.35,4.35,0,0,0,1.13-1.18,2.81,2.81,0,0,0,.21-.48,1.84,1.84,0,0,0-.12-1.3,3.9,3.9,0,0,0-.28-.53,8.22,8.22,0,0,0-.5-.66,2.09,2.09,0,0,0-.86-.65,1.51,1.51,0,0,0-.72-.07,1.42,1.42,0,0,0-1.09,2.13l-.52.68-.07.09,0-.1a3.54,3.54,0,0,1,.08-3,2,2,0,0,1,.46-.46,2.62,2.62,0,0,1,1-.44,2.92,2.92,0,0,1,2.75.81,3.76,3.76,0,0,1,.5.55,4.89,4.89,0,0,1,.68,1.25,5.17,5.17,0,0,1,.18.51A4.24,4.24,0,0,1,151.93,202.45Z" style="fill:#65C3C8"></path><path d="M135.41,211.57l-1.16.38-2.86-.29,1-.39Z" style="fill:#fff;opacity:0.6000000000000001;isolation:isolate"></path><path d="M139.28,210.16l-1,.39-3.17-.31,1-.4Z" style="fill:#fff;opacity:0.6000000000000001;isolation:isolate"></path><path d="M142.83,208.72l-1,.4-3.17-.31,1-.4Z" style="fill:#fff;opacity:0.6000000000000001;isolation:isolate"></path><path d="M146,207.25l-.86.41-2.94-.29,1-.4Z" style="fill:#fff;opacity:0.6000000000000001;isolation:isolate"></path><path d="M148.88,205.74l-.75.42-2.53-.25c.32-.14.61-.28.87-.41Z" style="fill:#fff;opacity:0.6000000000000001;isolation:isolate"></path><path d="M151.12,204.16a5,5,0,0,1-.53.45l-2.18-.22A6.44,6.44,0,0,0,149,204Z" style="fill:#fff;opacity:0.6000000000000001;isolation:isolate"></path><path d="M146.16,201.88h.11l-.07.09Z" style="fill:#fff;opacity:0.6000000000000001;isolation:isolate"></path><path d="M151.93,202.45a2.63,2.63,0,0,1-.06.49l-1.72-.17a2.81,2.81,0,0,0,.21-.48Z" style="fill:#fff;opacity:0.6000000000000001;isolation:isolate"></path><path d="M151.79,201.14l-1.55-.15a3.9,3.9,0,0,0-.28-.53l1.65.17A5.17,5.17,0,0,1,151.79,201.14Z" style="fill:#fff;opacity:0.6000000000000001;isolation:isolate"></path><path d="M150.93,199.38l-2.33-.23-.72-.07-1.64-.16a2,2,0,0,1,.46-.46l3.73.37A3.76,3.76,0,0,1,150.93,199.38Z" style="fill:#fff;opacity:0.6000000000000001;isolation:isolate"></path><path d="M103,246.46c-.31-3.66-.74-7.37-1.29-11.08a16.94,16.94,0,0,1,4-.18S106.88,244.41,103,246.46Z" style="opacity:0.2;isolation:isolate"></path><path d="M80.46,203.5l-1.72-4.58a14.54,14.54,0,0,1-.2-2,66.78,66.78,0,0,0-5-5.62c-.3-.07-4.45,1.11-4,2.3s3.85,5.48,4.35,5.81,2.07,1.08,2.07,1.08l1.29,4.15Z" style="fill:#ebb376"></path><path d="M108.06,228.1S92,224.18,90.41,223.61s-10.28-22.4-10.28-22.4l-4.16.67s8.31,27.07,10.68,29,15.8,8.68,15.8,8.68S109.25,231.91,108.06,228.1Z" style="fill:#263238"></path></g></svg>