<svg xmlns="http://www.w3.org/2000/svg" viewBox="0 0 500 500"><g id="freepik--Coins--inject-75"><rect x="121.91" y="409.67" width="39.03" height="7.66" style="fill:#72B085"></rect><rect x="152.34" y="409.67" width="8.6" height="7.66" style="opacity:0.2"></rect><rect x="148.21" y="409.67" width="3.13" height="7.66" transform="translate(299.55 827) rotate(180)" style="opacity:0.2"></rect><rect x="144.2" y="409.67" width="2.14" height="7.66" transform="translate(290.54 827) rotate(180)" style="opacity:0.2"></rect><rect x="140.27" y="409.67" width="1.07" height="7.66" transform="translate(281.61 827) rotate(180)" style="opacity:0.2"></rect><rect x="133.81" y="409.67" width="0.54" height="7.66" transform="translate(268.15 827) rotate(180)" style="opacity:0.2"></rect><rect x="120.07" y="402.05" width="39.03" height="7.66" style="fill:#72B085"></rect><rect x="150.5" y="402.05" width="8.6" height="7.66" style="opacity:0.2"></rect><rect x="146.36" y="402.05" width="3.13" height="7.66" transform="translate(295.86 811.76) rotate(180)" style="opacity:0.2"></rect><rect x="142.35" y="402.05" width="2.14" height="7.66" transform="translate(286.85 811.76) rotate(180)" style="opacity:0.2"></rect><rect x="138.42" y="402.05" width="1.07" height="7.66" transform="translate(277.92 811.76) rotate(180)" style="opacity:0.2"></rect><rect x="131.96" y="402.05" width="0.54" height="7.66" transform="translate(264.46 811.76) rotate(180)" style="opacity:0.2"></rect><rect x="123.56" y="394.43" width="39.03" height="7.66" style="fill:#72B085"></rect><rect x="153.99" y="394.43" width="8.6" height="7.66" style="opacity:0.2"></rect><rect x="149.85" y="394.43" width="3.13" height="7.66" transform="translate(302.84 796.52) rotate(180)" style="opacity:0.2"></rect><rect x="145.84" y="394.43" width="2.14" height="7.66" transform="translate(293.83 796.52) rotate(180)" style="opacity:0.2"></rect><rect x="141.91" y="394.43" width="1.07" height="7.66" transform="translate(284.9 796.52) rotate(180)" style="opacity:0.2"></rect><rect x="135.45" y="394.43" width="0.54" height="7.66" transform="translate(271.44 796.52) rotate(180)" style="opacity:0.2"></rect><rect x="121.91" y="386.81" width="39.03" height="7.66" style="fill:#72B085"></rect><rect x="152.34" y="386.81" width="8.6" height="7.66" style="opacity:0.2"></rect><rect x="148.21" y="386.81" width="3.13" height="7.66" transform="translate(299.55 781.28) rotate(180)" style="opacity:0.2"></rect><rect x="144.2" y="386.81" width="2.14" height="7.66" transform="translate(290.54 781.28) rotate(180)" style="opacity:0.2"></rect><rect x="140.27" y="386.81" width="1.07" height="7.66" transform="translate(281.61 781.28) rotate(180)" style="opacity:0.2"></rect><rect x="133.81" y="386.81" width="0.54" height="7.66" transform="translate(268.15 781.28) rotate(180)" style="opacity:0.2"></rect><rect x="120.91" y="379.19" width="39.03" height="7.66" style="fill:#72B085"></rect><rect x="151.34" y="379.19" width="8.6" height="7.66" style="opacity:0.2"></rect><rect x="147.21" y="379.19" width="3.13" height="7.66" transform="translate(297.55 766.04) rotate(180)" style="opacity:0.2"></rect><rect x="143.2" y="379.19" width="2.14" height="7.66" transform="translate(288.54 766.04) rotate(180)" style="opacity:0.2"></rect><rect x="139.27" y="379.19" width="1.07" height="7.66" transform="translate(279.61 766.04) rotate(180)" style="opacity:0.2"></rect><rect x="132.81" y="379.19" width="0.54" height="7.66" transform="translate(266.15 766.04) rotate(180)" style="opacity:0.2"></rect><rect x="121.91" y="371.57" width="39.03" height="7.66" style="fill:#72B085"></rect><rect x="152.34" y="371.57" width="8.6" height="7.66" style="opacity:0.2"></rect><rect x="148.21" y="371.57" width="3.13" height="7.66" transform="translate(299.55 750.8) rotate(180)" style="opacity:0.2"></rect><rect x="144.2" y="371.57" width="2.14" height="7.66" transform="translate(290.54 750.8) rotate(180)" style="opacity:0.2"></rect><rect x="140.27" y="371.57" width="1.07" height="7.66" transform="translate(281.61 750.8) rotate(180)" style="opacity:0.2"></rect><rect x="133.81" y="371.57" width="0.54" height="7.66" transform="translate(268.15 750.8) rotate(180)" style="opacity:0.2"></rect><rect x="121.91" y="363.95" width="39.03" height="7.66" style="fill:#72B085"></rect><rect x="152.34" y="363.95" width="8.6" height="7.66" style="opacity:0.2"></rect><rect x="148.21" y="363.95" width="3.13" height="7.66" transform="translate(299.55 735.56) rotate(180)" style="opacity:0.2"></rect><rect x="144.2" y="363.95" width="2.14" height="7.66" transform="translate(290.54 735.56) rotate(180)" style="opacity:0.2"></rect><rect x="140.27" y="363.95" width="1.07" height="7.66" transform="translate(281.61 735.56) rotate(180)" style="opacity:0.2"></rect><rect x="133.81" y="363.95" width="0.54" height="7.66" transform="translate(268.15 735.56) rotate(180)" style="opacity:0.2"></rect><rect x="119.91" y="356.33" width="39.03" height="7.66" style="fill:#72B085"></rect><rect x="150.34" y="356.33" width="8.6" height="7.66" style="opacity:0.2"></rect><rect x="146.21" y="356.33" width="3.13" height="7.66" transform="translate(295.55 720.32) rotate(180)" style="opacity:0.2"></rect><rect x="142.2" y="356.33" width="2.14" height="7.66" transform="translate(286.54 720.32) rotate(180)" style="opacity:0.2"></rect><rect x="138.27" y="356.33" width="1.07" height="7.66" transform="translate(277.61 720.32) rotate(180)" style="opacity:0.2"></rect><rect x="131.81" y="356.33" width="0.54" height="7.66" transform="translate(264.15 720.32) rotate(180)" style="opacity:0.2"></rect><rect x="121.91" y="348.71" width="39.03" height="7.66" style="fill:#72B085"></rect><rect x="152.34" y="348.71" width="8.6" height="7.66" style="opacity:0.2"></rect><rect x="148.21" y="348.71" width="3.13" height="7.66" transform="translate(299.55 705.08) rotate(180)" style="opacity:0.2"></rect><rect x="144.2" y="348.71" width="2.14" height="7.66" transform="translate(290.54 705.08) rotate(180)" style="opacity:0.2"></rect><rect x="140.27" y="348.71" width="1.07" height="7.66" transform="translate(281.61 705.08) rotate(180)" style="opacity:0.2"></rect><rect x="133.81" y="348.71" width="0.54" height="7.66" transform="translate(268.15 705.08) rotate(180)" style="opacity:0.2"></rect><rect x="123.91" y="341.09" width="39.03" height="7.66" style="fill:#72B085"></rect><rect x="154.34" y="341.09" width="8.6" height="7.66" style="opacity:0.2"></rect><rect x="150.21" y="341.09" width="3.13" height="7.66" transform="translate(303.55 689.84) rotate(180)" style="opacity:0.2"></rect><rect x="146.2" y="341.09" width="2.14" height="7.66" transform="translate(294.54 689.84) rotate(180)" style="opacity:0.2"></rect><rect x="142.27" y="341.09" width="1.07" height="7.66" transform="translate(285.61 689.84) rotate(180)" style="opacity:0.2"></rect><rect x="135.81" y="341.09" width="0.54" height="7.66" transform="translate(272.15 689.84) rotate(180)" style="opacity:0.2"></rect><rect x="89.33" y="409.67" width="39.03" height="7.66" style="fill:#72B085"></rect><rect x="119.77" y="409.67" width="8.6" height="7.66" style="opacity:0.2"></rect><rect x="115.63" y="409.67" width="3.13" height="7.66" transform="translate(234.4 827) rotate(180)" style="opacity:0.2"></rect><rect x="111.62" y="409.67" width="2.14" height="7.66" transform="translate(225.39 827) rotate(180)" style="opacity:0.2"></rect><rect x="107.69" y="409.67" width="1.07" height="7.66" transform="translate(216.46 827) rotate(180)" style="opacity:0.2"></rect><rect x="101.23" y="409.67" width="0.54" height="7.66" transform="translate(202.99 827) rotate(180)" style="opacity:0.2"></rect><rect x="87.33" y="402.05" width="39.03" height="7.66" style="fill:#72B085"></rect><rect x="117.77" y="402.05" width="8.6" height="7.66" style="opacity:0.2"></rect><rect x="113.63" y="402.05" width="3.13" height="7.66" transform="translate(230.4 811.76) rotate(180)" style="opacity:0.2"></rect><rect x="109.62" y="402.05" width="2.14" height="7.66" transform="translate(221.39 811.76) rotate(180)" style="opacity:0.2"></rect><rect x="105.69" y="402.05" width="1.07" height="7.66" transform="translate(212.46 811.76) rotate(180)" style="opacity:0.2"></rect><rect x="99.23" y="402.05" width="0.54" height="7.66" transform="translate(198.99 811.76) rotate(180)" style="opacity:0.2"></rect><rect x="89.33" y="394.43" width="39.03" height="7.66" style="fill:#72B085"></rect><rect x="119.77" y="394.43" width="8.6" height="7.66" style="opacity:0.2"></rect><rect x="115.63" y="394.43" width="3.13" height="7.66" transform="translate(234.4 796.52) rotate(180)" style="opacity:0.2"></rect><rect x="111.62" y="394.43" width="2.14" height="7.66" transform="translate(225.39 796.52) rotate(180)" style="opacity:0.2"></rect><rect x="107.69" y="394.43" width="1.07" height="7.66" transform="translate(216.46 796.52) rotate(180)" style="opacity:0.2"></rect><rect x="101.23" y="394.43" width="0.54" height="7.66" transform="translate(202.99 796.52) rotate(180)" style="opacity:0.2"></rect><rect x="88.33" y="386.81" width="39.03" height="7.66" style="fill:#72B085"></rect><rect x="118.77" y="386.81" width="8.6" height="7.66" style="opacity:0.2"></rect><rect x="114.63" y="386.81" width="3.13" height="7.66" transform="translate(232.4 781.28) rotate(180)" style="opacity:0.2"></rect><rect x="110.62" y="386.81" width="2.14" height="7.66" transform="translate(223.39 781.28) rotate(180)" style="opacity:0.2"></rect><rect x="106.69" y="386.81" width="1.07" height="7.66" transform="translate(214.46 781.28) rotate(180)" style="opacity:0.2"></rect><rect x="100.23" y="386.81" width="0.54" height="7.66" transform="translate(200.99 781.28) rotate(180)" style="opacity:0.2"></rect><rect x="89.33" y="379.19" width="39.03" height="7.66" style="fill:#72B085"></rect><rect x="119.77" y="379.19" width="8.6" height="7.66" style="opacity:0.2"></rect><rect x="115.63" y="379.19" width="3.13" height="7.66" transform="translate(234.4 766.04) rotate(180)" style="opacity:0.2"></rect><rect x="111.62" y="379.19" width="2.14" height="7.66" transform="translate(225.39 766.04) rotate(180)" style="opacity:0.2"></rect><rect x="107.69" y="379.19" width="1.07" height="7.66" transform="translate(216.46 766.04) rotate(180)" style="opacity:0.2"></rect><rect x="101.23" y="379.19" width="0.54" height="7.66" transform="translate(202.99 766.04) rotate(180)" style="opacity:0.2"></rect><rect x="86.33" y="371.57" width="39.03" height="7.66" style="fill:#72B085"></rect><rect x="116.77" y="371.57" width="8.6" height="7.66" style="opacity:0.2"></rect><rect x="112.63" y="371.57" width="3.13" height="7.66" transform="translate(228.4 750.8) rotate(180)" style="opacity:0.2"></rect><rect x="108.62" y="371.57" width="2.14" height="7.66" transform="translate(219.39 750.8) rotate(180)" style="opacity:0.2"></rect><rect x="104.69" y="371.57" width="1.07" height="7.66" transform="translate(210.46 750.8) rotate(180)" style="opacity:0.2"></rect><rect x="98.23" y="371.57" width="0.54" height="7.66" transform="translate(196.99 750.8) rotate(180)" style="opacity:0.2"></rect></g><g id="freepik--piggy-bank--inject-75"><path d="M324.57,363.92l5.14,53.41H297.27l-16.22-37.95S304,360.43,324.57,363.92Z" style="fill:#72B085"></path><path d="M386.68,348l9,69.29H363.27l-19.43-45.46S354.64,347.79,386.68,348Z" style="fill:#72B085"></path><path d="M324.57,363.92l5.14,53.41H297.27l-16.22-37.95S304,360.43,324.57,363.92Z" style="fill:#fff;opacity:0.2"></path><path d="M386.68,348l9,69.29H363.27l-19.43-45.46S354.64,347.79,386.68,348Z" style="fill:#fff;opacity:0.2"></path><path d="M329.71,417.33H297.27l-16.22-37.95s22.95-18.95,43.52-15.45l3.5,36.41Z" style="opacity:0.2"></path><path d="M395.71,417.33H363.27l-19.43-45.46s10.8-24.08,42.84-23.83L389,365.92Z" style="opacity:0.2"></path><path d="M328.07,400.34a195.62,195.62,0,0,1-31.18,10l.38,7-16.22-37.95s22.95-18.95,43.52-15.45Z" style="opacity:0.2"></path><path d="M356.27,386.75l7,30.58-19.43-45.46s10.8-24.08,42.84-23.83L389,365.92A328.8,328.8,0,0,1,356.27,386.75Z" style="opacity:0.2"></path><ellipse cx="291.37" cy="311.11" rx="96.21" ry="76.66" style="fill:#72B085"></ellipse><path d="M387.58,311.11c0,1.9-.09,3.79-.26,5.66C385.72,334.21,376.8,350,363,362.3c-17.61,15.64-43.18,25.48-71.63,25.48-53.13,0-96.2-34.33-96.2-76.67,0-.84,0-1.67.06-2.5,1.65-41.18,44.06-74.16,96.14-74.16,23.87,0,45.7,6.92,62.51,18.38C374.51,266.9,387.58,287.79,387.58,311.11Z" style="fill:#fff;opacity:0.2"></path><path d="M369.37,356c.48-.53,1-1.06,1.42-1.6l1-1.2c.43-.52.86-1.05,1.27-1.59l1-1.26c.4-.54.78-1.08,1.17-1.62s.61-.86.91-1.3.75-1.15,1.11-1.72.55-.84.81-1.27c.53-.87,1-1.75,1.52-2.64.27-.5.53-1,.79-1.51s.65-1.25.95-1.89.45-1,.67-1.47.51-1.14.75-1.71.4-1,.6-1.55.44-1.14.64-1.71.36-1,.53-1.57.37-1.18.55-1.77.3-1,.43-1.56.32-1.25.47-1.88.23-1,.33-1.49c.15-.71.27-1.43.4-2.15.07-.42.15-.85.22-1.27.17-1.15.31-2.31.42-3.47.17-1.87.26-3.76.26-5.66,0-23.32-13.07-44.21-33.7-58.28-11.5-4.51-29,14.19-30.65,40.84-1.37,22.58,9.15,45.57,24.74,59.26-19.09,19.3-52.66,30.32-89.62,21.61-39.21-9.25-61.48-45.15-63.12-65.93,0,.83-.06,1.66-.06,2.5,0,42.34,43.07,76.67,96.2,76.67,28.45,0,54-9.85,71.62-25.49h0l.12-.12c.16-.13.31-.28.46-.42.76-.69,1.51-1.38,2.23-2.09l.91-.91c.56-.56,1.11-1.12,1.65-1.69C368.71,356.71,369,356.34,369.37,356Z" style="opacity:0.2"></path><path d="M331.79,243.7l-6,1.28-6.53,1.4C297,237.76,271.12,240.15,259,242c-4.07.63-6.6,1.19-6.93,1.27l11.63-4.63C304.31,229.88,331.79,243.7,331.79,243.7Z" style="opacity:0.2"></path><path d="M325.8,245l-6.53,1.4C297,237.76,271.12,240.15,259,242l4.72-1.88C293,234.18,315.53,240.81,325.8,245Z" style="opacity:0.2"></path><path d="M373.87,261s7.38-14.16,31.38-18.68c0,0,3.7.77,0,4.32,0,0,.79,19.17-2.37,29S373.87,261,373.87,261Z" style="fill:#72B085"></path><path d="M405.25,246.64s.79,19.17-2.37,29a4,4,0,0,1-.49,1A3.37,3.37,0,0,1,399,278a9.16,9.16,0,0,0,1.17-2.39c.14-.4.28-.85.4-1.33,4-15.22-1.38-22.84-1.38-22.84l2.57-3.1c-14.18,4.77-17.41,18.42-17.41,18.42l.23.42a63.52,63.52,0,0,0,3.54,5.54A141.1,141.1,0,0,1,373.87,261s7.38-14.17,31.38-18.69c0,0,1.69.35,1.64,1.68A4.36,4.36,0,0,1,405.25,246.64Z" style="fill:#fff;opacity:0.2"></path><path d="M405.25,246.64s.79,19.17-2.37,29a4,4,0,0,1-.49,1l-2.22-1.1c-4.74-2.39-10.78-5.55-15.59-8.43a32.82,32.82,0,0,1-8.14-7c2.35-1.87,9.69-1.87,9.69-1.87,6.53-8.1,20.76-14.3,20.76-14.3A4.36,4.36,0,0,1,405.25,246.64Z" style="opacity:0.2"></path><path d="M422.22,298.93l-6.14.71c-4.54-23.65-22.81-41.34-44.66-41.34-25.28,0-45.76,23.64-45.76,52.81s20.48,52.81,45.76,52.81c16.75,0,31.39-10.39,39.37-25.9h0s23.78-11.08,24.68-16.15Z" style="fill:#72B085"></path><path d="M435.47,321.87c-.9,5.07-24.68,16.15-24.68,16.15h0c-8,15.5-22.62,25.9-39.37,25.9-25.28,0-45.76-23.65-45.76-52.82v-.35c.09-15.83,6.22-30,15.86-39.63a43.54,43.54,0,0,1,20.53-11.72,39.85,39.85,0,0,1,9.37-1.11c20,0,36.95,14.78,43.19,35.37a57.81,57.81,0,0,1,1.47,6l6.14-.71Z" style="fill:#fff;opacity:0.2"></path><path d="M363.19,272.85c-2.74,7.42-16.59.95-21.67-1.72a43.54,43.54,0,0,1,20.53-11.72C363.67,263,365,268,363.19,272.85Z" style="opacity:0.2"></path><path d="M416.08,299.64s-9.18-.39-14.32,7.78c0,0,3.86-11.12,12.85-13.75A57.81,57.81,0,0,1,416.08,299.64Z" style="opacity:0.2"></path><path d="M410.79,338h0c-8,15.5-22.62,25.9-39.37,25.9-25.28,0-45.76-23.65-45.76-52.82v-.35c3.4,18.78,15.44,37.09,33.37,44,22.55,8.71,32.64-4.55,32.64-4.55A13.67,13.67,0,0,1,382,340.13C393.45,344.48,410.79,338,410.79,338Z" style="opacity:0.2"></path><path d="M422.22,298.93c4.94,0,14.44,15.22,13.25,22.94s-29.08,9.5-31.86,2C401.66,318.61,416.48,298.93,422.22,298.93Z" style="fill:#72B085"></path><path d="M422.22,298.93c4.94,0,14.44,15.22,13.25,22.94s-29.08,9.5-31.86,2C401.66,318.61,416.48,298.93,422.22,298.93Z" style="fill:#fff;opacity:0.6000000000000001"></path><path d="M419.26,319c-.61,2.52-2.17,4.3-3.48,4s-1.87-2.61-1.26-5.12,2.16-4.3,3.47-4S419.87,316.44,419.26,319Z" style="opacity:0.30000000000000004"></path><ellipse cx="428.22" cy="318.11" rx="2.44" ry="4.68" transform="translate(-22.82 33.28) rotate(-4.33)" style="opacity:0.30000000000000004"></ellipse><path d="M378.78,307.42c0,2.91-1.44,5.27-3.22,5.27s-3.22-2.36-3.22-5.27,1.44-5.27,3.22-5.27S378.78,304.51,378.78,307.42Z" style="fill:#263238"></path><path d="M331.8,287.62s-.93-28.7,17.35-44.9c0,0,3.57-1.23,2.22,3.71,0,0,10.52,16.05,12.86,26.13S331.8,287.62,331.8,287.62Z" style="fill:#72B085"></path><path d="M331.8,287.62s-.93-28.7,17.35-44.9c0,0,3.57-1.23,2.22,3.71,0,0,10.52,16.05,12.86,26.13S331.8,287.62,331.8,287.62Z" style="fill:#fff;opacity:0.2"></path><path d="M349.46,250s-7.64,16.09-7,31.64c0,0,12.85-2.64,17.8-12.13C360.22,269.51,356.9,258,349.46,250Z" style="fill:#72B085"></path><path d="M272.2,363.92l-5.15,53.41h32.44l16.22-37.95S292.77,360.43,272.2,363.92Z" style="fill:#72B085"></path><path d="M210.09,348l-9,69.29h32.44l16.22-37.95S242.13,347.79,210.09,348Z" style="fill:#72B085"></path><path d="M315.71,379.38l-16.22,37.95H267.05l5.15-53.4c8.25-1.4,16.87.8,24.25,3.95A88,88,0,0,1,315.71,379.38Z" style="fill:#fff;opacity:0.2"></path><path d="M249.71,379.38l-16.22,37.95H201.05l9-69.29c11-.09,19.11,3.58,25,8.43C246.44,365.76,249.71,379.38,249.71,379.38Z" style="fill:#fff;opacity:0.2"></path><path d="M249.71,379.38l-16.22,37.95H201.05l9-69.29-5.94,65.59H229l15.11-37.11s-1-9.11-9-20C246.44,365.76,249.71,379.38,249.71,379.38Z" style="opacity:0.2"></path><path d="M315.71,379.38l-16.22,37.95H267.05l5.15-53.4-2.77,49.7h26.26L305.87,381s-1.51-6.22-9.42-13.14A88,88,0,0,1,315.71,379.38Z" style="opacity:0.2"></path></g><g id="freepik--Character--inject-75"><path d="M193.18,201.12c-6.41,1.93-9,25.56-12.74,34.61s-11.47,27-11.47,27l3,3.13s13.26-22,15-25.29,9.57-28,9.57-28Z" style="fill:#e4897b"></path><path d="M193.18,201.12c-3.84,1.07-5.41,1.13-10.89,28.85l-11.94,27.47L176,261s12.22-21.19,15-26.55,6.06-26.56,6.06-26.56Z" style="fill:#72B085"></path><path d="M197.09,207.9s-1.16,7.55-2.69,14.77c-1,4.88-2.25,9.62-3.37,11.78-.65,1.25-1.81,3.35-3.21,5.85-.76,1.36-1.6,2.84-2.46,4.36C181,252.32,176,261,176,261l-5.67-3.57L182.29,230c5.48-27.71,7.05-27.78,10.89-28.84Z" style="fill:#fff;opacity:0.4"></path><path d="M194.4,222.67c-1,4.88-2.25,9.62-3.37,11.78-.65,1.25-1.81,3.35-3.21,5.85-1.79-13,2.52-25.85,2.52-25.85C192.07,215.87,193.42,218.89,194.4,222.67Z" style="opacity:0.2;isolation:isolate"></path><path d="M175.56,229.69h-3.71c-10.59,0-19.17,10.06-19.17,22.47s8.58,22.46,19.17,22.46h3.71c10.58,0,19.17-10.06,19.17-22.46S186.14,229.69,175.56,229.69Z" style="fill:#72B085"></path><path d="M175.56,229.69h-3.71c-10.59,0-19.17,10.06-19.17,22.47s8.58,22.46,19.17,22.46h3.71c10.58,0,19.17-10.06,19.17-22.46S186.14,229.69,175.56,229.69Z" style="opacity:0.2;isolation:isolate"></path><ellipse cx="175.56" cy="252.16" rx="19.17" ry="22.47" style="fill:#72B085"></ellipse><ellipse cx="175.56" cy="252.16" rx="15.85" ry="18.58" style="opacity:0.2;isolation:isolate"></ellipse><path d="M176.66,261.89v3.05h-1.9v-3a9.32,9.32,0,0,1-5.69-2.26l1.05-2.75a8.14,8.14,0,0,0,4.64,2.07v-5.44c-2.58-.73-5.34-1.71-5.34-5.49,0-2.77,1.72-5.19,5.34-5.6v-3.07h1.9v3a8.94,8.94,0,0,1,4.71,1.66l-1,2.75a8.68,8.68,0,0,0-3.76-1.47v5.49c2.57.74,5.38,1.69,5.38,5.47C182,259.06,180.3,261.45,176.66,261.89Zm-1.9-11.64v-4.84a2.47,2.47,0,0,0-2.35,2.48C172.41,249.19,173.41,249.79,174.76,250.25Zm4.31,6.28c0-1.33-1-1.95-2.41-2.42v4.82C178.35,258.63,179.07,257.7,179.07,256.53Z" style="fill:#72B085"></path><path d="M217.71,347.75l-2.54,4.86s-2.18-1.16-5.65-3.06c-1-.54-2.09-1.14-3.27-1.8-3.28-1.8-7.22-4-11.38-6.35l-2.72-1.56c-14.43-8.27-30.3-18-30.3-20.73,0-3,9.3-20.9,16.74-34.74,5-9.24,9.11-16.68,9.11-16.68l17.67,10.82s-6,8.05-12.19,16.91c-7.19,10.33-14.58,21.76-12.89,22.9,1.29.86,7.86,6,15.13,11.75l1.32,1c3.92,3.1,8,6.31,11.46,9.09l2.82,2.23Z" style="fill:#e4897b"></path><path d="M205.37,278.51s-8.29,11.2-14.46,20.06l-14-11.07c5-9.24,10.82-19.81,10.82-19.81Z" style="opacity:0.2;isolation:isolate"></path><path d="M211,342.43l-1.5,7.12c-4.34-2.37-10.7-5.88-17.37-9.71,1.13-3.44,2.43-7.31,3.27-9.77C200.85,334.35,206.68,339,211,342.43Z" style="opacity:0.2;isolation:isolate"></path><path d="M225.5,287.5l-3.4,10.38-.7,2.13-5.19,15.8-.59,1.81-3.43,10.43-4,12.15-1.84,5.61c0,.64-.06,1.29-.11,1.94-1.75,26.83-15.72,61.91-15.72,61.91l-5-1.36c1.77-21.08,5.56-45.64,9.33-66.9.63-3.53,1.25-7,1.87-10.29.35-1.86.69-3.69,1-5.47.72-3.77,1.4-7.34,2.07-10.66.32-1.58.62-3.09.91-4.56.73-3.62,1.39-6.85,2-9.62s1.05-5.06,1.43-6.81c.55-2.56.86-4,.86-4Z" style="fill:#e4897b"></path><path d="M211.7,342.55c-.65,0-.26,8-.26,8s4.9,5,5.95,9.74,3.94,2.16,4-3.16.14-9.37.2-13.14S218.41,342.49,211.7,342.55Z" style="fill:#263238"></path><path d="M213.21,355.43a.76.76,0,0,1-.85.18.88.88,0,0,1-.54-.43,3.3,3.3,0,0,1-.16-1.79c-.36.64-.79,1.2-1.21,1.22-.27,0-.49-.17-.66-.53a1.24,1.24,0,0,1,0-1c.47-1.07,2.33-1.71,2.41-1.74a.22.22,0,0,1,.16,0l.05,0h0a.18.18,0,0,1,0,.07,10,10,0,0,1,1,3.31A1.12,1.12,0,0,1,213.21,355.43Zm-1-.45a.45.45,0,0,0,.28.23c.31.08.39,0,.42,0,.31-.37-.11-1.83-.58-3A5.14,5.14,0,0,0,212.19,355Zm-2-1.08c0,.11.15.3.26.29.36,0,1-1.14,1.46-2.31a3.4,3.4,0,0,0-1.73,1.34.72.72,0,0,0-.08.32A.8.8,0,0,0,210.18,353.9Z" style="fill:#72B085"></path><path d="M192,407.4c0-.65-8-.14-8-.14s-4.9,5-9.65,6.1-2.1,4,3.21,4h13.15C194.47,417.33,192.11,414.11,192,407.4Z" style="fill:#263238"></path><path d="M179.09,409.11a.76.76,0,0,1-.19-.85.83.83,0,0,1,.42-.54,3.34,3.34,0,0,1,1.79-.2c-.65-.34-1.22-.76-1.24-1.18,0-.27.16-.5.52-.67a1.24,1.24,0,0,1,1,0c1.08.45,1.75,2.31,1.78,2.39a.22.22,0,0,1,0,.16l0,0h0a.2.2,0,0,1-.07.06,10,10,0,0,1-3.3,1A1.12,1.12,0,0,1,179.09,409.11Zm.44-1a.45.45,0,0,0-.23.28c-.08.31,0,.39,0,.42.38.31,1.84-.13,3-.63A5.27,5.27,0,0,0,179.53,408.08Zm1-2c-.11.05-.29.16-.28.27,0,.35,1.16,1,2.33,1.42a3.44,3.44,0,0,0-1.36-1.71,1,1,0,0,0-.32-.07A.84.84,0,0,0,180.57,406.05Z" style="fill:#72B085"></path><path d="M197.64,293.25l-1.15,1.08-17.18-11.65,2.17-5.3a17.2,17.2,0,0,0,.81,5.5C183.23,285.1,194.61,291.56,197.64,293.25Z" style="fill:#fff;opacity:0.7000000000000001;isolation:isolate"></path><path d="M225.5,287.5,221.4,300c-9.39,2.23-14.76.82-18.67.79.57-2.76,1.05-5.06,1.43-6.81.55-2.56.86-4,.86-4Z" style="opacity:0.2;isolation:isolate"></path><path d="M225.25,294.53c-.21,1.65-.47,3.34-.77,5.06l-22.94-.81v-9.21L193.89,298l-17-13.8,11.82-24.46,1.52-15.41,30.87,3.28S229,266.1,225.25,294.53Z" style="fill:#263238"></path><polygon points="220.78 243.23 189.52 240.53 189.52 245.88 221.52 248.71 220.78 243.23"></polygon><path d="M198.24,242.9v2.48a1.93,1.93,0,0,0,1.77,1.93l3.9.35h.17a2,2,0,0,0,1.31-.51,2,2,0,0,0,.63-1.43v-2.5a1.93,1.93,0,0,0-1.77-1.93l-3.91-.34a1.93,1.93,0,0,0-1.48.51A2,2,0,0,0,198.24,242.9Zm1,2.48v-.82l0,0,1.09.08a.66.66,0,1,0,.1-1.32l-1.09-.09-.15,0v-.37a.92.92,0,0,1,.3-.7.94.94,0,0,1,.63-.24h.09l3.9.34a.93.93,0,0,1,.86.93v2.5a.93.93,0,0,1-.31.69.89.89,0,0,1-.71.24l-3.91-.34A.94.94,0,0,1,199.24,245.38Z" style="fill:#fff"></path><path d="M193.18,201.12s19.17-1.44,33.08,4.3l-5.48,37.81-29.66-2.7S190.34,212.36,193.18,201.12Z" style="fill:#72B085"></path><path d="M214.33,203s-1.68,3.63-8.55,5.68c0,0-3.79-2-2.71-5.32,0,0,2.19-.38,1.58-5.62q0-.21-.06-.45a33,33,0,0,0-.83-3.89l8.19-3s-2.06,6.69.9,11A6.76,6.76,0,0,0,214.33,203Z" style="fill:#e4897b"></path><path d="M212.85,201.37a12,12,0,0,1-8.2-3.66q0-.21-.06-.45a33,33,0,0,0-.83-3.89l8.19-3S209.89,197.05,212.85,201.37Z" style="opacity:0.2;isolation:isolate"></path><path d="M203.94,171.29s-2.24-11.18-13.76-8.94-6.15,18-3.8,22.89,2.68,9-.11,11.21c0,0,3.8,1.09,5.81-1.52,0,0-.11,2.41-1.45,3.42,0,0,11.58-4.14,8.64-17.67S203.94,171.29,203.94,171.29Z" style="fill:#263238"></path><path d="M216.24,170.4s5.81.22,7.37,5.14.33,10.42-8.33,16.29-15.93.1-19.28-3.9-1.68-17.56,7.94-19.17S216.24,170.4,216.24,170.4Z" style="fill:#263238"></path><path d="M210.69,172c7.38,1.07,9.18,5.36,8.62,13-.7,9.59-3.77,16-12.7,12.68C194.49,193.13,198.45,170.22,210.69,172Z" style="fill:#e4897b"></path><path d="M214.6,183.92a16.06,16.06,0,0,0,1.71,3.37,2.06,2.06,0,0,1-2.07.55Z" style="fill:#de5753"></path><path d="M210.18,182.67c-.07.6-.46,1.06-.87,1s-.67-.58-.6-1.19.46-1.06.87-1S210.25,182.06,210.18,182.67Z" style="fill:#263238"></path><path d="M209.41,181.49l1.38-.36S210,182.16,209.41,181.49Z" style="fill:#263238"></path><path d="M217.75,183.45c-.07.61-.46,1.06-.87,1s-.67-.58-.6-1.19.46-1.06.87-1S217.82,182.84,217.75,183.45Z" style="fill:#263238"></path><path d="M217,182.27l1.38-.36S217.57,182.94,217,182.27Z" style="fill:#263238"></path><path d="M207.48,178.57a.38.38,0,0,1-.26-.11.36.36,0,0,1,0-.5,4.24,4.24,0,0,1,3.7-.74.37.37,0,0,1,.24.44.35.35,0,0,1-.43.25,3.54,3.54,0,0,0-3,.57A.36.36,0,0,1,207.48,178.57Z" style="fill:#263238"></path><path d="M219.1,179.41a.36.36,0,0,1-.24-.09,3.16,3.16,0,0,0-2.54-.95.35.35,0,0,1-.42-.27.35.35,0,0,1,.27-.42,3.85,3.85,0,0,1,3.16,1.11.35.35,0,0,1-.23.62Z" style="fill:#263238"></path><path d="M200.84,183.25s4.32-5.56,4.48-10.31c0,0,15.47-3.86,14.05,11.08,0,0,3.33-13-9.3-15.09s-15.26,16.43-9.51,22.9C200.56,191.83,198.16,186.73,200.84,183.25Z" style="fill:#263238"></path><path d="M201.82,185a3.27,3.27,0,0,0-3-3.46c-2.33-.08-4.09,4.46,1.43,6.41C201,188.21,201.57,187.47,201.82,185Z" style="fill:#e4897b"></path><path d="M212.52,192.05a4.27,4.27,0,0,1-4.26-2.94.36.36,0,0,1,.24-.44.35.35,0,0,1,.44.24,3.58,3.58,0,0,0,3.71,2.43.35.35,0,0,1,.38.33.36.36,0,0,1-.32.38Z" style="fill:#263238"></path><path d="M215.28,167.46s4.72-1.87,4.52,2.38-18.1,14.75-27.16,14.08c0,0,2.46-.64,3.25-1.71a10.59,10.59,0,0,1,3.3-13.45C208.6,161.34,215.28,167.46,215.28,167.46Z" style="fill:#263238"></path><path d="M205.25,184.17A.25.25,0,0,1,205,184a.24.24,0,0,1,.15-.31c12.08-4.15,12.94-12.84,13-12.92a.25.25,0,0,1,.26-.23.25.25,0,0,1,.22.27c0,.09-.88,9.08-13.27,13.34Z" style="fill:#263238"></path><path d="M226.26,205.42c3.83,1.58,17.67,19.87,17.48,27s-16.82,19.79-16.82,19.79l6.53,6.14s-5.54,3.69-6.13,3.49-5.07-8.2-5.8-9.63,2.67-3.45,2.67-3.45,13.81-13.59,14-17.17-14-14.45-14-14.45Z" style="fill:#e4897b"></path><path d="M199.92,207.07c.37,2.5-6.42,35-6.42,35l-5-1s.95-32.33,4.71-39.94l3.91.25Z" style="fill:#72B085"></path><path d="M213.77,207.89c-2,2.61.56,37.55.56,37.55l9.16-.82,2.77-39.2s-1.26-1.56-6.5-3.06Z" style="fill:#72B085"></path><path d="M199.92,207.07c.37,2.5-6.42,35-6.42,35l-5-1s.95-32.33,4.71-39.94l3.91.25Z" style="fill:#fff;opacity:0.4"></path><path d="M226.26,205.42l-.67,9.46-.8,11.33-1.3,18.41-9.16.82s-2.57-34.94-.56-37.54l6-5.53C225,203.86,226.26,205.42,226.26,205.42Z" style="fill:#fff;opacity:0.4"></path><path d="M213.77,207.89s5.71-9.69,7.75-8.7,1.74,2.18,1.74,2.18,1.88.19,2.08,1S221.76,207.14,213.77,207.89Z" style="fill:#72B085"></path><path d="M199.92,207.07s0-8.87-1.28-9.35-2.1,2.17-2.1,2.17-.9-2-2.13,0S199.92,207.07,199.92,207.07Z" style="fill:#72B085"></path><path d="M213.77,207.89s5.71-9.69,7.75-8.7,1.74,2.18,1.74,2.18,1.88.19,2.08,1S221.76,207.14,213.77,207.89Z" style="fill:#fff;opacity:0.2"></path><path d="M199.92,207.07s0-8.87-1.28-9.35-2.1,2.17-2.1,2.17-.9-2-2.13,0S199.92,207.07,199.92,207.07Z" style="fill:#fff;opacity:0.2"></path><path d="M225.59,214.88l-.8,11.33A38.06,38.06,0,0,1,224,213.8Z" style="opacity:0.2;isolation:isolate"></path><path d="M226.26,205.42c2.77,1.12,18.6,18.66,18.33,26s-14,18.54-14,18.54l-5.27-3.62s11.2-14,10.67-17.42-10.67-10.6-10.67-10.6-2-1.67-1.16-6.81S226.26,205.42,226.26,205.42Z" style="fill:#72B085"></path><path d="M226.26,205.42c2.77,1.12,18.6,18.66,18.33,26s-14,18.54-14,18.54l-5.27-3.62s11.2-14,10.67-17.42-10.67-10.6-10.67-10.6-2-1.67-1.16-6.81S226.26,205.42,226.26,205.42Z" style="fill:#fff;opacity:0.4"></path><path d="M157.12,266.54l3.61,1.15,3.17,4.91s-2.83,1.33-4.19.53-3.31-2.9-3.32-3.69A13.58,13.58,0,0,1,157.12,266.54Z" style="fill:#e4897b"></path></g></svg>