<svg xmlns="http://www.w3.org/2000/svg" viewBox="0 0 500 500"><g id="freepik--Wall--inject-19"><rect x="56.11" y="65.66" width="188" height="350.03" style="fill:#263238"></rect><rect x="56.11" y="65.66" width="188" height="350.03" style="fill:#fff;opacity:0.7000000000000001"></rect><rect x="164.73" y="298.14" width="32.6" height="17.02" rx="6.77" transform="translate(362.05 613.3) rotate(-180)" style="fill:#f0f0f0"></rect><rect x="150.68" y="318.25" width="32.6" height="17.02" rx="6.77" transform="translate(333.96 653.52) rotate(180)" style="fill:#e6e6e6"></rect><rect x="87.84" y="216.17" width="32.6" height="17.02" rx="6.77" transform="translate(208.28 449.36) rotate(180)" style="fill:#f0f0f0"></rect><rect x="73.79" y="236.28" width="32.6" height="17.02" rx="6.77" transform="translate(180.18 489.58) rotate(180)" style="fill:#e6e6e6"></rect><rect x="164.73" y="93.99" width="32.6" height="17.02" rx="6.77" transform="translate(362.05 205) rotate(180)" style="fill:#f0f0f0"></rect><rect x="150.68" y="114.1" width="32.6" height="17.02" rx="6.77" transform="translate(333.96 245.22) rotate(180)" style="fill:#e6e6e6"></rect></g><g id="freepik--Paint--inject-19"><path d="M374.84,213.9h41.09a0,0,0,0,1,0,0v46.33a4.64,4.64,0,0,1-4.64,4.64H379.48a4.64,4.64,0,0,1-4.64-4.64V213.9A0,0,0,0,1,374.84,213.9Z" style="fill:#B0BEC5"></path><path d="M374.42,214.28l2,1.41a2.62,2.62,0,0,0,3,0l.47-.34a2.62,2.62,0,0,1,3,0l.47.34a2.62,2.62,0,0,0,3,0l.48-.34a2.62,2.62,0,0,1,3,0l.47.34a2.62,2.62,0,0,0,3,0l.47-.34a2.62,2.62,0,0,1,3,0l.48.34a2.62,2.62,0,0,0,3,0l.47-.34a2.62,2.62,0,0,1,3,0l.48.34a2.6,2.6,0,0,0,3,0l.48-.34a2.62,2.62,0,0,1,3,0l.47.34a2.62,2.62,0,0,0,3,0l2-1.41Z" style="fill:#263238"></path><path d="M415.93,234.22c-3.29,2.16-8.77,3.7-17.15.31l-.37-.15a17.35,17.35,0,0,0-23.57,16.23V251c3.6-2.84,11.34-7.23,20.54-2.22l.27.14a13.87,13.87,0,0,0,20.28-12.34Z" style="fill:#fff;opacity:0.7000000000000001"></path><path d="M382.3,242.13a10.34,10.34,0,0,1-7.84-2.95c-6.77-7.13-1-24.64-.8-25.39l1,.23c-.06.17-5.83,17.85.63,24.64a9.22,9.22,0,0,0,7,2.61c16.75,0,23.94-27.18,24-27.45l1,.17a64.8,64.8,0,0,1-5.79,14C396.29,237.24,389.63,242.13,382.3,242.13Z" style="fill:#263238"></path><path d="M416.46,214.62H374.3a.71.71,0,0,1-.71-.72h0a.71.71,0,0,1,.71-.71h42.16a.71.71,0,0,1,.72.71h0A.72.72,0,0,1,416.46,214.62Z" style="fill:#263238"></path></g><g id="freepik--Character--inject-19"><rect x="213.05" y="91.64" width="39.64" height="5.93" rx="2.33" transform="translate(-2.07 5.27) rotate(-1.29)" style="fill:#263238"></rect><rect x="213.05" y="93.35" width="39.64" height="2.49" transform="translate(-2.07 5.27) rotate(-1.29)" style="fill:#fff;opacity:0.1"></rect><path d="M218.46,94.93a3,3,0,1,1-3-2.9A3,3,0,0,1,218.46,94.93Z" style="fill:#263238"></path><path d="M238.29,98.08h0l-18.38-1.42a5.34,5.34,0,0,1-2.17-.41l-2.6-.86a.5.5,0,1,1,.31-1l2.61.87a4.54,4.54,0,0,0,1.89.35l.88,0,17.54,1.37a.51.51,0,0,1,.46.54A.5.5,0,0,1,238.29,98.08Z" style="fill:#B0BEC5"></path><path d="M255.61,94.11a.5.5,0,0,1-.4.48l-2.53.52-10.89,2.26-2,.4,13.7,6.65a.5.5,0,0,1-.21,1,.54.54,0,0,1-.22-.05l-15-7.29a.49.49,0,0,1-.27-.51.19.19,0,0,1,0-.07.47.47,0,0,1,.37-.36l14.49-3,.13,0-.13,0v-.51a1.89,1.89,0,0,0-.08-.53l2.64.62A.49.49,0,0,1,255.61,94.11Z" style="fill:#B0BEC5"></path><path d="M359.64,157.51a1.32,1.32,0,0,0,.54-2.5l-114-54.94a1.31,1.31,0,0,0-1.13,2.37l114,54.94A1.41,1.41,0,0,0,359.64,157.51Z" style="fill:#263238"></path><path d="M268.76,122.67l-.05-.8,5.81,3.38a12.09,12.09,0,0,1-8.47,1.79,10.76,10.76,0,0,1-4.48-1.76,8.9,8.9,0,0,1-1.83-1.63,7.45,7.45,0,0,1-.74-1,6.38,6.38,0,0,1-.57-.94,23.91,23.91,0,0,1-2.21-6.86,32.64,32.64,0,0,1-.42-6.76l2.86-.4c.77,1.87,1.61,3.79,2.53,5.53a21.25,21.25,0,0,0,3.09,4.59,1.78,1.78,0,0,0,.35.34,1.66,1.66,0,0,0,.32.22,4.25,4.25,0,0,0,.64.32,4.92,4.92,0,0,0,1.46.28,11.43,11.43,0,0,0,3.73-.7l5.87-2,0,5.35v.8Z" style="fill:#b55b52"></path><polygon points="315.65 132.15 311.05 134.75 309.43 128.25 314.9 126.59 315.65 132.15" style="fill:#b55b52"></polygon><path d="M309.69,100.07s6.62-.73,8.35,7.89,6.76,18.21.53,23.55L315,133.8a15.93,15.93,0,0,1-3.62-6.94l2-1.49-1.73-5.92S307,102.15,309.69,100.07Z" style="fill:#B0BEC5"></path><path d="M309.69,100.07s6.62-.73,8.35,7.89,6.76,18.21.53,23.55L315,133.8a15.93,15.93,0,0,1-3.62-6.94l2-1.49-1.73-5.92S307,102.15,309.69,100.07Z" style="fill:#fff;opacity:0.5"></path><path d="M314.45,243.25l6.78,8.68a1.35,1.35,0,0,1,0,1.59,36.15,36.15,0,0,1-2.47,3.21,42.57,42.57,0,0,1-3.9,3.08,1.33,1.33,0,0,0-.44,1.54h0a1.31,1.31,0,0,0,1.67.78l15.18-5.77a1.3,1.3,0,0,0,.64-1.87l-9-15.92a1.29,1.29,0,0,0-1.7-.54l-6.38,3.22A1.32,1.32,0,0,0,314.45,243.25Z" style="fill:#B0BEC5"></path><path d="M312.17,142.52,294,143.6s-.12,53.79,1.45,67.31c1.41,12.14,15.5,25.66,18.34,32.17a1.35,1.35,0,0,0,1.41.93l8-4.76c1.3-1.16-.76-2.13-1.09-2.75-2.35-4.42-7.58-12.53-12.73-26.93-1.06-2.95-.49-28.13.34-37.12C310.4,164.62,316.41,153.7,312.17,142.52Z" style="fill:#263238"></path><path d="M299.56,156.26a174.42,174.42,0,0,1-5.05,41c-.42-8.12-.36-29.1-.44-37.32l2.22-3.61Z" style="opacity:0.2"></path><path d="M277.61,245.72l1.12,11.51a1.31,1.31,0,0,1-.59,1.23,46.72,46.72,0,0,1-4.07,2.41,52.71,52.71,0,0,1-5.08,1.57,1.3,1.3,0,0,0-.95,1.3h0a1.3,1.3,0,0,0,1.31,1.28l16.82-.38a1.31,1.31,0,0,0,1.26-1.3l.1-17.52a1.29,1.29,0,0,0-1.25-1.32l-7.35-.22A1.31,1.31,0,0,0,277.61,245.72Z" style="fill:#B0BEC5"></path><path d="M282.61,143.57s-7.88,53.19-8.55,63.63c-.61,9.46,1.91,31.33,2.37,38.29a1.16,1.16,0,0,0,1.18,1.09l9.7-.22a1.15,1.15,0,0,0,1.12-1.16c0-5.22-.07-17.77-.84-30.47a43.12,43.12,0,0,1,1.65-14.56c1.78-6.11,5.08-20.16,8-29.21,2.29-7.15,4.37-9.33,5-14.76.9-8.09-1.35-13-1.35-13Z" style="fill:#263238"></path><path d="M303.5,98.52s-3.64-.29-3.75-7c0,0-3.39-1.44-5.51.58s2.12,6.54-.52,8.54S303.5,98.52,303.5,98.52Z" style="fill:#b55b52"></path><path d="M281.56,102.09s-3.09-2-8.08,7l-5.7,9-2.93,0s-2,5.62.2,8.84c0,0,5.07,5.7,16.85-9.57l2.28-9.86Z" style="fill:#B0BEC5"></path><path d="M281.56,102.09s-3.09-2-8.08,7l-5.7,9-2.93,0s-2,5.62.2,8.84c0,0,5.07,5.7,16.85-9.57l2.28-9.86Z" style="fill:#fff;opacity:0.5"></path><path d="M313.1,143.93s-19.92,3.78-31,.7c0,0,1.93-4.75-2.33-23.12,0,0,3.63-9.82-.44-19.48,0,0,15.28-5,31.49-2.5A124.9,124.9,0,0,1,313,116.66C313.46,125,314.19,124.16,313.1,143.93Z" style="fill:#B0BEC5"></path><path d="M304.59,100.18s.67-4.44-6.81-3.5-8.74,4.81-8.74,4.81Z" style="fill:#B0BEC5"></path><path d="M313.34,139.74a208.36,208.36,0,0,1-22.46,1.7c-2.68.06-5.51.07-8.43,0,0-.95-.05-2-.1-3.07a207.32,207.32,0,0,0,31.1-1.76C313.42,137.6,313.38,138.64,313.34,139.74Z" style="fill:#263238"></path><path d="M313.38,139.74a211.73,211.73,0,0,1-22.5,1.7c-2.68.06-5.51.07-8.43,0,0-.95-.05-2-.1-3.07a208,208,0,0,0,31.14-1.76C313.46,137.6,313.43,138.64,313.38,139.74Z" style="fill:#fff;opacity:0.8"></path><path d="M291,128.82c-.06-7.4-1-23.28-5.2-27.38a2.68,2.68,0,0,0-1.23-.75c1.17-.25,2.51-.51,4-.76,2.38,2.95,4,8.79,4.88,17.42.47,4.71.59,9,.62,11.29a150.89,150.89,0,0,0,15.05-1.81c-.16-3.82-.66-14.84-1.56-20.23A37.31,37.31,0,0,0,305.63,99c1.12.07,2.24.17,3.38.31a48,48,0,0,1,1.57,6.81c.9,5.42,1.4,15.94,1.58,20.16l1.44-.31c0,1,0,2,0,3.15a151.49,151.49,0,0,1-26.57,3c-1.76,0-3.56,0-5.41,0-.13-1-.27-2-.44-3.08C284.63,129.05,287.9,129,291,128.82Z" style="fill:#263238"></path><path d="M291,128.82c-.06-7.4-1-23.28-5.2-27.38a2.68,2.68,0,0,0-1.23-.75c1.17-.25,2.51-.51,4-.76,2.38,2.95,4,8.79,4.88,17.42.47,4.71.59,9,.62,11.29a150.89,150.89,0,0,0,15.05-1.81c-.16-3.82-.66-14.84-1.56-20.23A37.31,37.31,0,0,0,305.63,99c1.12.07,2.24.17,3.38.31a48,48,0,0,1,1.57,6.81c.9,5.42,1.4,15.94,1.58,20.16l1.42-.31c0,1,.05,2,.05,3.15a151.49,151.49,0,0,1-26.57,3c-1.76,0-3.56,0-5.41,0-.13-1-.27-2-.44-3.08C284.63,129.05,287.9,129,291,128.82Z" style="fill:#fff;opacity:0.8"></path><polygon points="306.86 116.01 295.36 117.31 295.72 124.62 307.22 123.2 306.86 116.01" style="fill:#fff"></polygon><path d="M286.14,83.94c0,.43.17.79.45.81s.55-.33.56-.74-.17-.79-.44-.8S286.18,83.52,286.14,83.94Z" style="fill:#263238"></path><path d="M287.56,84.63l-1.83,3.46a2.93,2.93,0,0,0,2.64,0Z" style="fill:#a02724"></path><path d="M288.33,82.11a.26.26,0,0,1-.21,0,1.74,1.74,0,0,0-1.6.06.22.22,0,0,1-.31-.06.23.23,0,0,1,.07-.31,2.2,2.2,0,0,1,2-.11.22.22,0,0,1,.12.3h0A.25.25,0,0,1,288.33,82.11Z" style="fill:#263238"></path><path d="M302.68,82.21c-.13,5.66-.06,8.06-2.8,11.07-4.25,3.12-11.06,3.13-12.62-2.46-1.41-5-1-13.42,4.48-15.91A7.73,7.73,0,0,1,302,78.72,7.63,7.63,0,0,1,302.68,82.21Z" style="fill:#b55b52"></path><path d="M290.58,86.2s-1.06-4.14-.12-5.32.38-1.43-.68-2.42-2.38-1.76-1-3.71c5.65-8.33,16.45-2.33,16.94,3.44.18,2.16-1.13,6.41-1.22,6.67a30.15,30.15,0,0,1-4.57,8.42,8,8,0,0,1-2.92.07S291.53,88.68,290.58,86.2Z" style="fill:#263238"></path><path d="M291,84.07a4.3,4.3,0,0,0-.78,3.25c.25,1.51,1.77,1.63,2.86.68s2-2.68,1.23-4A2,2,0,0,0,291,84.07Z" style="fill:#b55b52"></path><path d="M305.51,80a10.91,10.91,0,0,1-1.06,4.91c-4.64-.42-8.31-2.27-9.28-4.67Z" style="fill:#263238"></path><path d="M305.51,80a10.91,10.91,0,0,1-1.06,4.91c-4.64-.42-8.31-2.27-9.28-4.67Z" style="fill:#fff;opacity:0.6000000000000001"></path><path d="M305.39,81.8s-.28,1.36-.43,1.76c0,0-1.51.88-5.93-1.78" style="fill:#263238"></path><path d="M286.06,79.56a9.94,9.94,0,0,1,9.78-9.5,10.26,10.26,0,0,1,10.35,9l1,0a.84.84,0,0,1,0,1.67L282,81.32C280.92,81.34,284.72,79.59,286.06,79.56Z" style="fill:#B0BEC5"></path><path d="M306.19,79.1l-20.13.45a13.42,13.42,0,0,1,.46-3l18.65-.42A8.39,8.39,0,0,1,306.19,79.1Z" style="opacity:0.1"></path><path d="M256.27,109.18l2.93.32a7.84,7.84,0,0,0-.8-3c-.69-1.09-1-1.63-1.14-1.9a.74.74,0,0,0-.39-.35l-2.13-.85a.78.78,0,0,0-1.05.94,4.52,4.52,0,0,1,.29,2Z" style="fill:#b55b52"></path></g><g id="freepik--Scaffold--inject-19"><path d="M367.82,409.32a1.42,1.42,0,0,1-.5-.08l-300.63-106a1.5,1.5,0,0,1,1-2.83l300.62,106a1.5,1.5,0,0,1-.49,2.91Z" style="fill:#B0BEC5"></path><path d="M67.19,407.26a1.5,1.5,0,0,1-.5-2.92l298-105.07a1.5,1.5,0,0,1,1,2.83l-298,105.07A1.43,1.43,0,0,1,67.19,407.26Z" style="fill:#B0BEC5"></path><path d="M368.31,406.41,219.09,353.79,365.68,302.1a1.5,1.5,0,0,0-1-2.83L214.58,352.2,67.69,300.41a1.5,1.5,0,0,0-1,2.83l143.38,50.55L66.69,404.34a1.5,1.5,0,0,0,.5,2.92,1.43,1.43,0,0,0,.5-.09l146.89-51.79,152.74,53.86a1.42,1.42,0,0,0,.5.08,1.5,1.5,0,0,0,.49-2.91Z" style="fill:#fff;opacity:0.4"></path><path d="M364.23,417.69a2,2,0,0,1-2-2V265.79a2,2,0,1,1,4,0v149.9A2,2,0,0,1,364.23,417.69Z" style="fill:#B0BEC5"></path><g style="opacity:0.4"><path d="M364.23,417.69a2,2,0,0,1-2-2V265.79a2,2,0,1,1,4,0v149.9A2,2,0,0,1,364.23,417.69Z" style="fill:#fff"></path></g><path d="M440,271.11H364.23a2,2,0,0,1,0-4H440a2,2,0,0,1,0,4Z" style="fill:#B0BEC5"></path><path d="M440,305.79H364.23a2,2,0,0,1,0-4H440a2,2,0,0,1,0,4Z" style="fill:#B0BEC5"></path><path d="M440,340.46H364.23a2,2,0,0,1,0-4H440a2,2,0,0,1,0,4Z" style="fill:#B0BEC5"></path><path d="M440,375.14H364.23a2,2,0,0,1,0-4H440a2,2,0,0,1,0,4Z" style="fill:#B0BEC5"></path><path d="M440,409.82H364.23a2,2,0,0,1,0-4H440a2,2,0,0,1,0,4Z" style="fill:#B0BEC5"></path><path d="M440,305.79H364.23a2,2,0,0,1,0-4H440a2,2,0,0,1,0,4Z" style="fill:#B0BEC5"></path><path d="M440,340.46H364.23a2,2,0,0,1,0-4H440a2,2,0,0,1,0,4Z" style="fill:#B0BEC5"></path><path d="M440,375.14H364.23a2,2,0,0,1,0-4H440a2,2,0,0,1,0,4Z" style="fill:#B0BEC5"></path><path d="M440,409.82H364.23a2,2,0,0,1,0-4H440a2,2,0,0,1,0,4Z" style="fill:#B0BEC5"></path><g style="opacity:0.2"><path d="M440,271.11H364.23a2,2,0,0,1,0-4H440a2,2,0,0,1,0,4Z" style="fill:#fff"></path><path d="M440,305.79H364.23a2,2,0,0,1,0-4H440a2,2,0,0,1,0,4Z" style="fill:#fff"></path><path d="M440,340.46H364.23a2,2,0,0,1,0-4H440a2,2,0,0,1,0,4Z" style="fill:#fff"></path><path d="M440,375.14H364.23a2,2,0,0,1,0-4H440a2,2,0,0,1,0,4Z" style="fill:#fff"></path><path d="M440,409.82H364.23a2,2,0,0,1,0-4H440a2,2,0,0,1,0,4Z" style="fill:#fff"></path><path d="M440,305.79H364.23a2,2,0,0,1,0-4H440a2,2,0,0,1,0,4Z" style="fill:#fff"></path><path d="M440,340.46H364.23a2,2,0,0,1,0-4H440a2,2,0,0,1,0,4Z" style="fill:#fff"></path><path d="M440,375.14H364.23a2,2,0,0,1,0-4H440a2,2,0,0,1,0,4Z" style="fill:#fff"></path><path d="M440,409.82H364.23a2,2,0,0,1,0-4H440a2,2,0,0,1,0,4Z" style="fill:#fff"></path></g><path d="M440,417.69a2,2,0,0,1-2-2V265.79a2,2,0,1,1,4,0v149.9A2,2,0,0,1,440,417.69Z" style="fill:#B0BEC5"></path><path d="M440,269.68H364.23a2,2,0,0,1,0-4H440a2,2,0,0,1,0,4Z" style="fill:#B0BEC5"></path><path d="M66.25,417.69a2,2,0,0,1-2-2V267.88a2,2,0,0,1,4,0V415.69A2,2,0,0,1,66.25,417.69Z" style="fill:#B0BEC5"></path><g style="opacity:0.2"><path d="M66.25,417.69a2,2,0,0,1-2-2V267.88a2,2,0,0,1,4,0V415.69A2,2,0,0,1,66.25,417.69Z" style="fill:#fff"></path></g><path d="M366.23,137V264.84h-4V137a2,2,0,0,1,4,0Z" style="fill:#B0BEC5"></path><path d="M366.23,137V264.84h-4V137a2,2,0,0,1,4,0Z" style="fill:#fff;opacity:0.4"></path><path d="M440,144.92H364.23a2,2,0,0,1,0-4H440a2,2,0,0,1,0,4Z" style="fill:#B0BEC5"></path><path d="M440,206.23H364.23a2,2,0,0,1,0-4H440a2,2,0,0,1,0,4Z" style="fill:#B0BEC5"></path><g style="opacity:0.2"><path d="M440,144.92H364.23a2,2,0,0,1,0-4H440a2,2,0,0,1,0,4Z" style="fill:#fff"></path></g><g style="opacity:0.2"><path d="M440,206.23H364.23a2,2,0,0,1,0-4H440a2,2,0,0,1,0,4Z" style="fill:#fff"></path></g><path d="M365.94,150.05H317.63a1.53,1.53,0,0,0-3.05,0H125a1.53,1.53,0,0,0-3,0H64.8v45.62h57.11a1.53,1.53,0,0,0,3,0H314.58a1.53,1.53,0,0,0,3.05,0h48.31ZM67.85,192.67V153.05h54.06v39.62Zm57.11,0V153.05H314.58v39.62Zm237.93,0H317.63V153.05h45.26Z" style="fill:#B0BEC5"></path><path d="M365.94,150.05H317.63a1.53,1.53,0,0,0-3.05,0H125a1.53,1.53,0,0,0-3,0H64.8v45.62h57.11a1.53,1.53,0,0,0,3,0H314.58a1.53,1.53,0,0,0,3.05,0h48.31ZM67.85,192.67V153.05h54.06v39.62Zm57.11,0V153.05H314.58v39.62Zm237.93,0H317.63V153.05h45.26Z" style="fill:#fff;opacity:0.4"></path><path d="M66.25,271.11a2,2,0,0,1-2-2V137a2,2,0,0,1,4,0V269.11A2,2,0,0,1,66.25,271.11Z" style="fill:#B0BEC5"></path><g style="opacity:0.2"><path d="M66.25,271.11a2,2,0,0,1-2-2V137a2,2,0,0,1,4,0V269.11A2,2,0,0,1,66.25,271.11Z" style="fill:#fff"></path></g><path d="M440,269.68a2,2,0,0,1-2-2V137a2,2,0,0,1,4,0v130.7A2,2,0,0,1,440,269.68Z" style="fill:#B0BEC5"></path><rect x="67.19" y="264.84" width="372.94" height="8.57" style="fill:#263238"></rect><path d="M142,271.11H66.25a2,2,0,0,1,0-4H142a2,2,0,1,1,0,4Z" style="fill:#B0BEC5"></path><path d="M142,305.79H66.25a2,2,0,0,1,0-4H142a2,2,0,0,1,0,4Z" style="fill:#B0BEC5"></path><path d="M142,340.46H66.25a2,2,0,0,1,0-4H142a2,2,0,0,1,0,4Z" style="fill:#B0BEC5"></path><path d="M142,375.14H66.25a2,2,0,0,1,0-4H142a2,2,0,1,1,0,4Z" style="fill:#B0BEC5"></path><path d="M142,409.82H66.25a2,2,0,0,1,0-4H142a2,2,0,0,1,0,4Z" style="fill:#B0BEC5"></path><path d="M142,417.69a2,2,0,0,1-2-2V265.79a2,2,0,0,1,4,0v149.9A2,2,0,0,1,142,417.69Z" style="fill:#B0BEC5"></path><path d="M142,144.92H68.25a2,2,0,0,1,0-4H142a2,2,0,0,1,0,4Z" style="fill:#B0BEC5"></path><path d="M142,206.23H67.19a2,2,0,1,1,0-4H142a2,2,0,0,1,0,4Z" style="fill:#B0BEC5"></path><path d="M142,280a2,2,0,0,1-2-2V137a2,2,0,0,1,4,0V278A2,2,0,0,1,142,280Z" style="fill:#B0BEC5"></path><path d="M440,409.82a1.92,1.92,0,0,1-.67-.11L140.73,304.43a2,2,0,1,1,1.33-3.77L440.63,405.94a2,2,0,0,1-.66,3.88Z" style="fill:#B0BEC5"></path><path d="M142,409.82a2,2,0,0,1-.68-3.88L438.84,298.82A2,2,0,0,1,441.4,300a2,2,0,0,1-1.2,2.55L142.65,409.71A2,2,0,0,1,142,409.82Z" style="fill:#B0BEC5"></path><g style="opacity:0.1"><path d="M142,409.82a2,2,0,0,1-.68-3.88L438.84,298.82A2,2,0,0,1,441.4,300a2,2,0,0,1-1.2,2.55L142.65,409.71A2,2,0,0,1,142,409.82Z" style="fill:#fff"></path></g><path d="M170.43,93.39a1.33,1.33,0,1,1-1.33-1.33A1.34,1.34,0,0,1,170.43,93.39Z" style="fill:#fff;opacity:0.1"></path><path d="M200.53,197.68a2,2,0,0,1-2-2V150.05a2,2,0,0,1,4,0v45.63A2,2,0,0,1,200.53,197.68Z" style="fill:#B0BEC5"></path><path d="M388.72,197.68a2,2,0,0,1-2-2V150.05a2,2,0,1,1,4,0v45.63A2,2,0,0,1,388.72,197.68Z" style="fill:#B0BEC5"></path><path d="M437.77,150.05v45.62H144.52V150.05H437.77m0-4H144.52a4,4,0,0,0-4,4v45.62a4,4,0,0,0,4,4H437.77a4,4,0,0,0,4-4V150.05a4,4,0,0,0-4-4Z" style="fill:#B0BEC5"></path></g></svg>
