<svg xmlns="http://www.w3.org/2000/svg" viewBox="0 0 500 500"><g id="freepik--post-template--inject-19"><rect x="93" y="100.85" width="314" height="198.25" rx="6.58" style="fill:#FF7AC6"></rect><rect x="93" y="100.85" width="314" height="198.25" rx="6.58" style="fill:#fff;opacity:0.6000000000000001"></rect><rect x="103" y="112" width="150" height="149" style="fill:#FF7AC6"></rect><rect x="103" y="112" width="150" height="149" style="fill:#fff;opacity:0.30000000000000004"></rect><polygon points="253 224.31 253 261 103 261 103 186.51 133.9 159.46 179.78 204.21 204.16 186.5 253 224.31" style="fill:#FF7AC6"></polygon><circle cx="213.45" cy="146.45" r="16.45" style="fill:#FF7AC6"></circle><polygon points="253 224.31 253 261 103 261 103 186.51 133.9 159.46 179.78 204.21 204.16 186.5 253 224.31" style="fill:#fff;opacity:0.2"></polygon><circle cx="213.45" cy="146.45" r="16.45" style="fill:#fff;opacity:0.2"></circle><path d="M181.06,273h-8.12c-2,0-3.94,1.32-3.94,3.37v5.37c0,2,1.9,3.26,3.94,3.26h3.2l.86,3.44.86-3.44h3.2c2,0,3.94-1.22,3.94-3.26v-5.37C185,274.32,183.1,273,181.06,273Z" style="fill:#FF7AC6"></path><path d="M218,273.25c-3.29-2.95-7.15,1.05-7.15,1.05s-3.85-4-7.15-1.05c-4.7,4.21,2.13,11.74,7.15,13.25C215.83,285,222.66,277.46,218,273.25Z" style="fill:#FF7AC6"></path><polygon points="250 287.44 244.5 283.44 239 287.44 239 272 250 272 250 287.44" style="fill:#FF7AC6"></polygon><rect x="269.95" y="112" width="31" height="31" rx="3.28" style="fill:#FF7AC6"></rect><rect x="310.06" y="112.45" width="62.62" height="7" style="fill:#FF7AC6"></rect><rect x="269.64" y="155.96" width="62.62" height="7" style="fill:#FF7AC6"></rect><rect x="269.64" y="172.45" width="117.91" height="7" style="fill:#FF7AC6"></rect><rect x="269.64" y="185.55" width="112.54" height="7" style="fill:#FF7AC6"></rect><rect x="269.64" y="198.64" width="117.91" height="7" style="fill:#FF7AC6"></rect><rect x="269.64" y="211.74" width="86.61" height="7" style="fill:#FF7AC6"></rect><polygon points="381.5 112.25 382.44 114.16 384.54 114.46 383.02 115.94 383.38 118.04 381.5 117.05 379.62 118.04 379.98 115.94 378.46 114.46 380.56 114.16 381.5 112.25" style="fill:#FF7AC6"></polygon><path d="M371,245.62a1.62,1.62,0,1,1-1.61-1.62A1.61,1.61,0,0,1,371,245.62Z" style="fill:#FF7AC6"></path><path d="M379,245.62a1.61,1.61,0,1,1-1.61-1.62A1.61,1.61,0,0,1,379,245.62Z" style="fill:#FF7AC6"></path><path d="M387,245.62a1.62,1.62,0,1,1-1.61-1.62A1.61,1.61,0,0,1,387,245.62Z" style="fill:#FF7AC6"></path><g style="opacity:0.30000000000000004;isolation:isolate"><path d="M181.06,273h-8.12c-2,0-3.94,1.32-3.94,3.37v5.37c0,2,1.9,3.26,3.94,3.26h3.2l.86,3.44.86-3.44h3.2c2,0,3.94-1.22,3.94-3.26v-5.37C185,274.32,183.1,273,181.06,273Z" style="fill:#fff"></path><path d="M218,273.25c-3.29-2.95-7.15,1.05-7.15,1.05s-3.85-4-7.15-1.05c-4.7,4.21,2.13,11.74,7.15,13.25C215.83,285,222.66,277.46,218,273.25Z" style="fill:#fff"></path><polygon points="250 287.44 244.5 283.44 239 287.44 239 272 250 272 250 287.44" style="fill:#fff"></polygon><rect x="269.95" y="112" width="31" height="31" rx="3.28" style="fill:#fff"></rect><rect x="310.06" y="112.45" width="62.62" height="7" style="fill:#fff"></rect><rect x="269.64" y="155.96" width="62.62" height="7" style="fill:#fff"></rect><rect x="269.64" y="172.45" width="117.91" height="7" style="fill:#fff"></rect><rect x="269.64" y="185.55" width="112.54" height="7" style="fill:#fff"></rect><rect x="269.64" y="198.64" width="117.91" height="7" style="fill:#fff"></rect><rect x="269.64" y="211.74" width="86.61" height="7" style="fill:#fff"></rect><polygon points="381.5 112.25 382.44 114.16 384.54 114.46 383.02 115.94 383.38 118.04 381.5 117.05 379.62 118.04 379.98 115.94 378.46 114.46 380.56 114.16 381.5 112.25" style="fill:#fff"></polygon><path d="M371,245.62a1.62,1.62,0,1,1-1.61-1.62A1.61,1.61,0,0,1,371,245.62Z" style="fill:#fff"></path><path d="M379,245.62a1.61,1.61,0,1,1-1.61-1.62A1.61,1.61,0,0,1,379,245.62Z" style="fill:#fff"></path><path d="M387,245.62a1.62,1.62,0,1,1-1.61-1.62A1.61,1.61,0,0,1,387,245.62Z" style="fill:#fff"></path></g></g><g id="freepik--character-2--inject-19"><path d="M402,182.17c-3.39.19-5.94.44-5.94.44-3.21.77-7.09,4.82-7.09,4.82s.29,1.38.88,3.29c-3.38,4-7.47,8-10.42,8.28-5.22.56-24.43-19.06-29.2-24a18.15,18.15,0,0,0-.61-3.94l22-7.78a3.28,3.28,0,0,0,2-4.18l-4.1-11.63a3.28,3.28,0,0,0-4.18-2l-15.51,5.48,0-.12-8.08,2.85,0,.12-11.65,4.12,0-.12-30.64,10.82a3.55,3.55,0,0,0-2.16,4.34l4.11,11.63a3.48,3.48,0,0,0,4.38,1.95l16.5-5.83v0l12.06-4.26v0l4-1.43c0,1.17.24,2.16.72,2.49,1,.7,5.06,1.19,7.21,1.3,3.16,4,12.13,15.1,20.21,22.64a3.29,3.29,0,0,0-.26.49l-4.63,11.43a3.47,3.47,0,0,0,2,4.36l16.22,6.57h0l11.86,4.8,0,0,2.73,1.1a1,1,0,0,0,0,.17l-.27,0v5.58l.38,0c-.86,4.56-1.54,10.38-2,14.65L391.21,261l-5.9,30.45h14.33a6.5,6.5,0,0,0,6.58-6.49V144.21C399.81,151.19,397.74,166.48,402,182.17Zm-8.24,27.24-7.38-3a54.77,54.77,0,0,0,7.4-4.94C393.74,203.83,393.73,206.46,393.76,209.41Z" style="opacity:0.1"></path><path d="M428,142.7s-4-7.37-15.11-4.61c-12.23,3-16.63,27.26-7.4,49.57s28.71,19.29,29.84,8.72S434,174,435,162,431.6,143.19,428,142.7Z" style="fill:#263238"></path><path d="M396.84,180.13s-10.65,15.75-16.63,16.39-30.27-25.15-30.27-25.15l-4,3.43s23.16,30.15,32.44,31.54,26.95-17,26.95-17Z" style="fill:#ebb376"></path><path d="M396.84,180.13c-3.21.77-7.09,4.82-7.09,4.82s2.49,11.9,8,14.35S396.84,180.13,396.84,180.13Z" style="fill:#FF7AC6"></path><polygon points="366.81 401.48 373.31 402.63 375.97 393.76 378.41 385.62 370.91 383.01 368.73 392.78 366.81 401.48" style="fill:#e4897b"></polygon><path d="M374.77,402.45c.11-.72-8.79-1.71-8.79-1.71s-6.39,4.56-11.87,4.86-3.1,4,2.78,5l14.55,2.57C375.62,413.94,373.64,409.91,374.77,402.45Z" style="fill:#263238"></path><path d="M360.21,401.83a.85.85,0,0,1,0-1,1,1,0,0,1,.58-.51,3.74,3.74,0,0,1,2,.13c-.65-.51-1.2-1.08-1.14-1.55,0-.3.27-.52.71-.64a1.38,1.38,0,0,1,1.14.17,4.63,4.63,0,0,1,1.5,2.72.79.79,0,0,0,0-.17h0l-.88.55V402h.66s.1-.15.07-.13h0s0-.07,0-.07a13.94,13.94,0,0,1-3.16.48A1.81,1.81,0,0,1,360.21,401.83Zm.69-1.05a.52.52,0,0,0-.31.27c-.15.33-.06.44,0,.47.35.42,2.05.22,3.44-.1C363.07,401,361.59,400.53,360.9,400.78Zm1.54-2c-.13,0-.35.11-.36.24-.05.4,1.09,1.3,2.31,2a4,4,0,0,0-1.18-2.16.91.91,0,0,0-.49-.15A1,1,0,0,0,362.44,398.74Z" style="fill:#FF7AC6"></path><polygon points="368.7 392.99 375.94 393.94 378.39 385.71 370.9 383.05 368.7 392.99" style="opacity:0.2;isolation:isolate"></polygon><polygon points="410.21 404 416.81 404 417.9 394.94 418.88 386.57 411.04 385.33 410.6 395.22 410.21 404" style="fill:#e4897b"></polygon><path d="M418.23,403.84c0-.73-9-.16-9-.16s-5.5,5.6-10.85,6.86S396.06,415,402,415h14.77C421.06,415,418.4,411.38,418.23,403.84Z" style="fill:#263238"></path><path d="M403.77,405.76a.87.87,0,0,1-.21-1,.93.93,0,0,1,.47-.6,3.65,3.65,0,0,1,2-.22c-.73-.39-1.36-.86-1.39-1.33,0-.31.18-.56.59-.75a1.36,1.36,0,0,1,1.15,0c1.22.5,2,2.59,2,2.68a.23.23,0,0,1,0,.18l0,0h0l-.08.06a11.34,11.34,0,0,1-3.71,1.13A1.27,1.27,0,0,1,403.77,405.76Zm.5-1.15a.52.52,0,0,0-.26.31c-.09.35,0,.44.06.47.42.35,2.06-.14,3.38-.7C406.45,404.47,404.91,404.24,404.27,404.61Zm1.17-2.29c-.12.06-.33.18-.32.3,0,.4,1.3,1.1,2.63,1.6a4,4,0,0,0-1.54-1.92.92.92,0,0,0-.36-.07A1,1,0,0,0,405.44,402.32Z" style="fill:#FF7AC6"></path><polygon points="410.6 395.57 417.9 395.25 418.88 386.73 411.04 385.4 410.6 395.57" style="opacity:0.2;isolation:isolate"></polygon><path d="M368.09,387.83l10.68,1.88c10.79-26.87,18.46-49.3,23.88-67.91,2.92-10.05,5.14-19,6.89-26.91L409,324.15V390H420c26.41-125,7.7-154.39,7.7-154.39l-31.59-5.25a145.06,145.06,0,0,0-2.65,17.76L392,258.6l-12.35,63.77Z" style="fill:#263238"></path><path d="M368.09,387.83l10.68,1.88c10.79-26.87,18.46-49.3,23.88-67.91,2.92-10.05,5.14-19,6.89-26.91L409,324.15V390H420c26.41-125,7.7-154.39,7.7-154.39l-31.59-5.25a145.06,145.06,0,0,0-2.65,17.76L392,258.6l-12.35,63.77Z" style="fill:#fff;opacity:0.1;isolation:isolate"></path><polygon points="380.45 388.39 367.19 384 367.37 389.63 378.34 393.13 380.45 388.39" style="fill:#263238"></polygon><polygon points="421.37 389 407.55 386.98 408.71 392.5 420.11 394.04 421.37 389" style="fill:#263238"></polygon><path d="M351,172.54s-.6-2.73-1.67-3.38-8.38-2.38-9.2-1.7-1.52,6.65-.21,7.56,7.87,1.48,8.52,1.28Z" style="fill:#ebb376"></path><polygon points="428 231.19 428 235.91 395 233.44 395 227.86 428 231.19" style="fill:#263238"></polygon><rect x="402.63" y="229.31" width="7.07" height="5.36" transform="translate(790.02 499.3) rotate(-174.88)" style="fill:#fff"></rect><rect x="416.62" y="229.24" width="1.6" height="8.15" transform="translate(822.4 487.63) rotate(-177.08)" style="fill:#263238"></rect><rect x="416.62" y="229.24" width="1.6" height="8.15" transform="translate(822.4 487.63) rotate(-177.08)" style="fill:#fff;opacity:0.1;isolation:isolate"></rect><rect x="396.95" y="227.08" width="1.6" height="8.15" transform="translate(783.2 482.28) rotate(-177.08)" style="fill:#263238"></rect><rect x="396.95" y="227.08" width="1.6" height="8.15" transform="translate(783.2 482.28) rotate(-177.08)" style="fill:#fff;opacity:0.1;isolation:isolate"></rect><path d="M395.3,228.42l32.22,2.79a114.6,114.6,0,0,1,3.42-23.66c.78-3.09,1.74-6.53,3-10.52.67-2.12,1.4-4.41,2.22-6.87q.92-2.79,2-5.93A94.67,94.67,0,0,0,424.78,181a103.37,103.37,0,0,0-14.47-1.53c-6.27,0-13.47.66-13.47.66s-1,.24-1.67,6.89C394.59,193.26,394,205.73,395.3,228.42Z" style="fill:#FF7AC6"></path><path d="M395.3,228.42l32.22,2.79a114.6,114.6,0,0,1,3.42-23.66c.78-3.09,1.74-6.53,3-10.52.67-2.12,1.4-4.41,2.22-6.87q.92-2.79,2-5.93A94.67,94.67,0,0,0,424.78,181a103.37,103.37,0,0,0-14.47-1.53c-6.27,0-13.47.66-13.47.66s-1,.24-1.67,6.89C394.59,193.26,394,205.73,395.3,228.42Z" style="fill:#fff;opacity:0.2;isolation:isolate"></path><path d="M413,186.59c7.94-1,10.33-4.41,10.33-4.41-5-4.75-.86-13-.86-13L412.89,171a28.88,28.88,0,0,1,.37,4c.07,5.8-2.55,5.86-2.55,5.86C409,184,413,186.59,413,186.59Z" style="fill:#ebb376"></path><path d="M412.89,171a28.88,28.88,0,0,1,.37,4c6.46,0,9.18-5.81,9.18-5.81Z" style="opacity:0.2;isolation:isolate"></path><path d="M418.17,144.25c-8.31-.45-11.23,3.85-12.3,12.38-1.35,10.65.61,18.39,11.12,16.67C431.27,171,432,145,418.17,144.25Z" style="fill:#ebb376"></path><path d="M411.26,156.46a17.88,17.88,0,0,1-2.6,3.31,2.28,2.28,0,0,0,2.13,1.06Z" style="fill:#d58745"></path><path d="M416.38,156.06c-.05.68.28,1.26.73,1.29s.87-.48.92-1.16-.27-1.27-.73-1.3S416.44,155.37,416.38,156.06Z" style="fill:#263238"></path><path d="M417.49,154.93l-1.44-.69S416.69,155.54,417.49,154.93Z" style="fill:#263238"></path><path d="M407.92,155.25c-.05.68.27,1.26.73,1.3s.86-.49.92-1.17-.27-1.26-.73-1.3S408,154.57,407.92,155.25Z" style="fill:#263238"></path><path d="M409,154.13l-1.44-.7S408.23,154.74,409,154.13Z" style="fill:#263238"></path><path d="M416.78,150.32a4.36,4.36,0,0,1,3.54,1.46" style="fill:none;stroke:#263238;stroke-linecap:round;stroke-linejoin:round;stroke-width:0.707336px"></path><path d="M410.76,149.64a3.9,3.9,0,0,0-3.35.5" style="fill:none;stroke:#263238;stroke-linecap:round;stroke-linejoin:round;stroke-width:0.707336px"></path><path d="M411.83,164.16a21.89,21.89,0,0,1,.81,2.94,4.87,4.87,0,0,0,.54,0c2.43-.11,3.52-1,4-1.88a3.38,3.38,0,0,0,.21-2.29,11.3,11.3,0,0,1-4.72,1.2C412.15,164.16,411.83,164.16,411.83,164.16Z" style="fill:#263238"></path><path d="M412.66,164.11l.26.86c2.29-.11,3.88-.49,4.57-1.22a3.08,3.08,0,0,0-.11-.84A11.3,11.3,0,0,1,412.66,164.11Z" style="fill:#fff"></path><path d="M413.18,167.08c2.43-.11,3.52-1,4-1.88a7.92,7.92,0,0,0-2.68.66A3,3,0,0,0,413.18,167.08Z" style="fill:#de5753"></path><path d="M426.48,158.75s-3.51-7-2.63-12.27c0,0-16.1-7.63-17.82,9,0,0-.8-14.93,13.5-14.48s13.09,21.34,5.38,27.16C424.91,168.2,428.65,163.15,426.48,158.75Z" style="fill:#263238"></path><path d="M423.85,146.48s-2.36,3.69.26,8.62c2,3.79,4.22,8.07,2.58,12a12.25,12.25,0,0,1-3.81,5.36" style="fill:none;stroke:#263238;stroke-linecap:round;stroke-linejoin:round;stroke-width:0.488033px"></path><path d="M425,160.43a3.65,3.65,0,0,1,4.1-3.11c2.56.42,3.5,5.77-3,6.69C425.23,164.14,424.76,163.22,425,160.43Z" style="fill:#ebb376"></path><path d="M430.66,183.06s-9.33,7.57-18,7.44-11.73-9.88-11.73-9.88S414.39,176.64,430.66,183.06Z" style="fill:#ebb376"></path><path d="M402.65,321.8c2.92-10.05,5.19-19,6.94-26.91a248.93,248.93,0,0,0-2-28.05S402.92,303,402.65,321.8Z" style="opacity:0.2;isolation:isolate"></path><path d="M437.22,186s13.45,21,16.11,36-38.16-2.83-38.16-2.83l1.6-5.43s21.56,6.91,24.23,5.09-7.77-19.53-7.77-19.53Z" style="fill:#ebb376"></path><path d="M438.11,184.32c2.83,1.12,5.33,7.6,5.33,7.6L431,205.34V199.1a18.93,18.93,0,0,1,7.11-14.78Z" style="fill:#FF7AC6"></path><path d="M420,220s-2.46,1.32-3.65.93-7.25-4.84-7.26-5.91,4.07-5.46,5.62-5.06,6.23,5,6.5,5.65Z" style="fill:#ebb376"></path><path d="M404.63,150.32c2.37-2.17,6.11-2.33,9.44-1.87a8,8,0,0,1,2.18-2.87,12.94,12.94,0,0,0-1.2,3,33,33,0,0,1,6.18,1.72c.6-2.06,3.72-4.82,3.72-4.82C407.78,137.5,404.63,150.32,404.63,150.32Z" style="fill:#263238"></path><rect x="298.22" y="154.06" width="76.33" height="18.88" rx="3.27" transform="translate(-35.25 121.38) rotate(-19.46)" style="fill:#ebebeb"></rect><rect x="305.08" y="160" width="62.62" height="7" transform="translate(-35.25 121.39) rotate(-19.46)" style="fill:#FF7AC6"></rect><path d="M331,155.31l-7.82,22.91-16.5,5.83a3.48,3.48,0,0,1-4.38-2l-4.11-11.62a3.56,3.56,0,0,1,2.16-4.34Z" style="fill:#fff;opacity:0.30000000000000004;isolation:isolate"></path><polygon points="350.67 148.34 343.63 170.98 335.19 173.96 342.59 151.19 350.67 148.34" style="fill:#fff;opacity:0.30000000000000004;isolation:isolate"></polygon><rect x="362.19" y="210.13" width="76.33" height="18.88" rx="3.27" transform="translate(111.73 -134.25) rotate(22.05)" style="fill:#ebebeb"></rect><rect x="369.05" y="216.07" width="62.62" height="7" transform="translate(111.73 -134.25) rotate(22.05)" style="fill:#FF7AC6"></rect><path d="M401.71,209.83l-21,12-16.22-6.57a3.48,3.48,0,0,1-2-4.36l4.63-11.43a3.55,3.55,0,0,1,4.49-1.82Z" style="fill:#fff;opacity:0.30000000000000004;isolation:isolate"></path><polygon points="421.1 217.69 400.83 229.97 392.53 226.61 413.16 214.47 421.1 217.69" style="fill:#fff;opacity:0.30000000000000004;isolation:isolate"></polygon><path d="M346.63,172a14.84,14.84,0,0,1,1.54-3.48c.51-.62-1.12-2.49-1.16-3.3s.31-.81.31-.81c2.42,2.11,3.35,3.19,3.7,8.15Z" style="fill:#ebb376"></path><path d="M414.73,210c-1.85-.08-7.35,3.73-6.1,4.51s7.41,6.29,8.61,5.56a10.46,10.46,0,0,0,2.48-2.9Z" style="fill:#ebb376"></path></g><g id="freepik--Image--inject-19"><polygon points="226.31 100.74 164.85 101 93 115.27 97.87 252.87 99.7 262 252.89 231.15 226.31 100.74" style="opacity:0.1;isolation:isolate"></polygon><polygon points="247.79 228.2 93.8 258.79 70.62 142.09 63.21 104.8 217.2 74.21 230.47 141.02 247.79 228.2" style="fill:#fafafa"></polygon><path d="M247.79,228.2l-154,30.59L70.62,142.09c5.64-5.78,12.57-11.33,18.23-11.09,11.65.5,51.6,36.1,51.6,36.1s8.33-25.6,15.94-24.1,61.06,37.13,61.06,37.13,6.29-21.29,13-39.11Z" style="fill:#f0f0f0"></path><path d="M157.66,153.46s-6.59,7.83-19.16,20.18c-1.25,1.24-17.61-6.29-17.61-6.29l-4.64,3s18.4,14.68,22,13.83c3.9-.91,21.55-15.58,21.55-15.58Z" style="fill:#FF7AC6"></path><path d="M157.66,153.46s-6.59,7.83-19.16,20.18c-1.25,1.24-17.61-6.29-17.61-6.29l-4.64,3s18.4,14.68,22,13.83c3.9-.91,21.55-15.58,21.55-15.58Z" style="opacity:0.2;isolation:isolate"></path><path d="M120.72,173.78s3.78-3.2,3.63-4.44-2.54-5.87-3.58-6.09-6.17,2.91-6.08,4.5,1.07,4.17,1.68,4.49A43.09,43.09,0,0,0,120.72,173.78Z" style="fill:#b97964"></path><path d="M156.39,176.38s10.37,16.43,14.89,19.53,28,8.76,28,8.76,2.87,4.91,4.07,4,2.34-2.81,2.2-3.55a46.74,46.74,0,0,0-3.29-5.93c-.32-.36-4.46.21-4.46.21l-21.61-9.13C175,189.73,162.9,170,162.9,170Z" style="fill:#ebb376"></path><path d="M158.71,181.9a.79.79,0,0,0,.32-.18,7.06,7.06,0,0,0,1.23-1.09c3.26-3.49,4.24-9.9,4.24-9.9s-4.49-8.53-7.79-8.52a0,0,0,0,0,0,0s-.41,4.85-.42,9.74C156.25,177.34,156.71,182.79,158.71,181.9Z" style="fill:#FF7AC6"></path><path d="M113.33,175.29s-4.59,14-7.92,15.25-7-35.64-7-35.64L92.76,156s1.11,40.23,9.65,44.74,20.07-19.55,20.07-19.55Z" style="fill:#ebb376"></path><path d="M117.13,130.29s1.68-8.21,13.11-8.82c12.58-.68,23.87,21.22,21.55,45.25s-21.83,26.83-26,17.05-5.25-21.81-9.72-33S113.83,131.81,117.13,130.29Z" style="fill:#263238"></path><path d="M126,252.39,168.12,244l-1.06-3.92-2.15-10.34c-.74-4.22-1.81-10-3-14.46-.29-1.1-.58-2.13-.89-3.05l-.9.22-1.56.37-4.05,1-6.89,1.66-6.84,1.64-1.57.37-9.32,2.24a.85.85,0,0,0-.14.26C129,221.64,125.46,230.07,126,252.39Z" style="fill:#263238"></path><path d="M126,252.39,168.12,244l-1.06-3.92-2.15-10.34c-.74-4.22-1.81-10-3-14.46-.29-1.1-.58-2.13-.89-3.05l-.9.22-1.56.37-4.05,1-6.89,1.66-6.84,1.64-1.57.37-9.32,2.24a.85.85,0,0,0-.14.26C129,221.64,125.46,230.07,126,252.39Z" style="fill:#fff;opacity:0.1;isolation:isolate"></path><polygon points="129.22 215.35 129.55 220.06 162.29 215.26 161.9 209.69 129.22 215.35" style="fill:#263238"></polygon><rect x="147.52" y="211.93" width="7.07" height="5.36" transform="translate(-32.29 26.83) rotate(-9.18)" style="fill:#fff"></rect><rect x="139.12" y="212.65" width="1.6" height="8.15" transform="translate(-25.31 18.62) rotate(-6.98)" style="fill:#263238"></rect><rect x="139.12" y="212.65" width="1.6" height="8.15" transform="translate(-25.31 18.62) rotate(-6.98)" style="fill:#fff;opacity:0.1;isolation:isolate"></rect><rect x="158.59" y="209.1" width="1.6" height="8.15" transform="translate(-24.73 20.95) rotate(-6.98)" style="fill:#263238"></rect><rect x="158.59" y="209.1" width="1.6" height="8.15" transform="translate(-24.73 20.95) rotate(-6.98)" style="fill:#fff;opacity:0.1;isolation:isolate"></rect><path d="M115.77,169.22c.88,2,1.68,4,2.42,5.78,1,2.39,1.89,4.62,2.7,6.7,1.52,3.88,2.72,7.25,3.71,10.28a115,115,0,0,1,5.1,23.35l31.94-5.06c-.11-8.14-.38-15-.71-20.64-.21-3.4-.43-6.38-.67-9-.46-5.24-1-9-1.43-11.66-1-6-2-6.79-2.12-6.86a.52.52,0,0,1,0-.11h-.16c-1.06,0-7.61,0-13.33.41a102.12,102.12,0,0,0-14.32,2.6A95.74,95.74,0,0,0,115.77,169.22Z" style="fill:#FF7AC6"></path><path d="M115.77,169.22c.88,2,1.68,4,2.42,5.78,1,2.39,1.89,4.62,2.7,6.7,1.52,3.88,2.72,7.25,3.71,10.28a115,115,0,0,1,5.1,23.35l31.94-5.06c-.11-8.14-.38-15-.71-20.64-.21-3.4-.43-6.38-.67-9-.46-5.24-1-9-1.43-11.66-1-6-2-6.79-2.12-6.86a.52.52,0,0,1,0-.11h-.16c-1.06,0-7.61,0-13.33.41a102.12,102.12,0,0,0-14.32,2.6A95.74,95.74,0,0,0,115.77,169.22Z" style="fill:#fff;opacity:0.2;isolation:isolate"></path><path d="M141.05,169.8c-8-.45-10.61-3.67-10.61-3.67,4.69-5.1-.07-13-.07-13l9.66,1.11a28.54,28.54,0,0,0-.09,4c.34,5.79,3,5.66,3,5.66C144.8,166.94,141.05,169.8,141.05,169.8Z" style="fill:#ebb376"></path><path d="M140,154.22a28.54,28.54,0,0,0-.09,4c-6.44.45-9.57-5.15-9.57-5.15Z" style="opacity:0.2;isolation:isolate"></path><path d="M127,128.91c7.81-2.86,11.86.4,15.38,8.24,4.4,9.8,4.78,17.77-5.77,19.2C122.26,158.29,114,133.66,127,128.91Z" style="fill:#ebb376"></path><path d="M137.16,138.57a17.54,17.54,0,0,0,3.46,2.4,2.29,2.29,0,0,1-1.74,1.64Z" style="fill:#d58745"></path><path d="M130.09,134.31a4.35,4.35,0,0,0-3,2.42" style="fill:none;stroke:#263238;stroke-linecap:round;stroke-linejoin:round;stroke-width:0.707336px"></path><path d="M135.65,131.9a3.89,3.89,0,0,1,3.34-.5" style="fill:none;stroke:#263238;stroke-linecap:round;stroke-linejoin:round;stroke-width:0.707336px"></path><path d="M138.87,146.1a20.69,20.69,0,0,0,.08,3.05l-.52.14c-2.36.6-3.65.1-4.37-.64a3.09,3.09,0,0,1-.73-1.29,3.26,3.26,0,0,1-.14-.84,11.43,11.43,0,0,0,4.87-.22C138.56,146.19,138.87,146.1,138.87,146.1Z" style="fill:#263238"></path><path d="M138,146.3v.89c-2,.57-3.83.66-4.7.17a3.36,3.36,0,0,1-.16-.84A11.21,11.21,0,0,0,138,146.3Z" style="fill:#fff"></path><path d="M138.43,149.29c-2.36.6-3.65.1-4.37-.64a8,8,0,0,1,2.75-.15A3,3,0,0,1,138.43,149.29Z" style="fill:#de5753"></path><path d="M123.27,145.2s1.3-7.75-1.06-12.51c0,0,13.16-12,19.68,3.45,0,0-3.6-14.51-17.14-9.91s-6.29,24.24,2.79,27.55C127.54,153.78,122.48,150.05,123.27,145.2Z" style="fill:#263238"></path><path d="M122.21,132.69s3.33,2.84,2.26,8.32c-.82,4.23-1.68,9,1,12.22a12.2,12.2,0,0,0,5.21,4" style="fill:none;stroke:#263238;stroke-linecap:round;stroke-linejoin:round;stroke-width:0.488033px"></path><path d="M125.15,146.39a3.64,3.64,0,0,0-4.83-1.78c-2.33,1.15-1.66,6.54,4.8,5.53C126,150,126.22,149,125.15,146.39Z" style="fill:#ebb376"></path><path d="M133.28,139.34a1.89,1.89,0,0,0-2.73,1.3" style="fill:none;stroke:#263238;stroke-linecap:round;stroke-linejoin:round;stroke-width:0.488033px"></path><path d="M137.91,137.59s.85-1.94,2.54-1" style="fill:none;stroke:#263238;stroke-linecap:round;stroke-linejoin:round;stroke-width:0.488033px"></path><path d="M123.16,167.53s9.83,6.89,18.48,6.15,11-10.69,11-10.69S138.93,160,123.16,167.53Z" style="fill:#ebb376"></path><path d="M115.82,169.32c-2.75,1.31-4.78,8-4.78,8l13.35,12.51-.44-6.23a18.89,18.89,0,0,0-8.13-14.23Z" style="fill:#FF7AC6"></path><path d="M141.71,130.76c-2.9-1.39-6.53-.44-9.58,1a7.84,7.84,0,0,0-2.92-2.1,13.23,13.23,0,0,1,2,2.53,34.12,34.12,0,0,0-5.41,3.45c-1.18-1.79-5-3.52-5-3.52C135,119.42,141.71,130.76,141.71,130.76Z" style="fill:#263238"></path><path d="M97.41,156.69c2.16-1,1.23-8.55-.73-13-.93-2.11-2.59-1.71-8.12,2.78-1.58,1.29,2.82,12.24,5,11.56S97.41,156.69,97.41,156.69Z" style="fill:#ebb376"></path><path d="M156.27,172c.6,2.92,1.5,6.51,2.44,10,.78,2.81,1.56,5.53,2.22,7.73-.21-3.4-.43-6.38-.67-9,3.26-3.49,4.24-9.9,4.24-9.9s-4.49-8.63-7.79-8.62a.52.52,0,0,1,0-.11h-.16a11.66,11.66,0,0,0-.95,4.81A28.15,28.15,0,0,0,156.27,172Z" style="opacity:0.2;isolation:isolate"></path><path d="M173.52,110.16s0-9.43,9.52-10.3,11.63,8.9,10.57,16.42,5.92,11,9.37,13.82,4.34,8.2-1.65,11a4.08,4.08,0,0,0,.17-4.73c-1.57-2.78-9.34-.77-14.11-6.81-5.68-7.19-4.23-17.95-8.22-15.8S173.52,110.16,173.52,110.16Z" style="fill:#263238"></path><path d="M184.15,116s-.83,14.68,5.84,17.21c4.26,1.62,4.82,2.86,4,5.23" style="fill:none;stroke:#263238;stroke-linecap:round;stroke-linejoin:round;stroke-width:0.5px"></path><path d="M168.25,244l43.51-8.64a156.28,156.28,0,0,0-6.47-21.23c-.85-2.11-1.65-3.88-2.39-5.38-2.49-5.09-4.21-6.89-4.21-6.89l-9.14.29-22.87.73a138.17,138.17,0,0,0,.74,16.6c.05.46.09.9.13,1.33l.64,10.53Z" style="fill:#FF7AC6"></path><path d="M168.25,244l43.51-8.64a156.28,156.28,0,0,0-6.47-21.23c-.85-2.11-1.65-3.88-2.39-5.38-2.49-5.09-4.21-6.89-4.21-6.89l-9.14.29-22.87.73a138.17,138.17,0,0,0,.74,16.6c.05.46.09.9.13,1.33l.64,10.53Z" style="fill:#fff;opacity:0.5"></path><path d="M206.11,214.05l-8.4-16.47A116.6,116.6,0,0,1,196.36,176c0-.73.06-1.47.1-2.24.15-3.18.42-6.74.86-10.9,0-.15,0-.3.05-.45.23-2.08.49-4.33.79-6.72.24-1.94.51-4,.82-6.21a94.31,94.31,0,0,0-13.75-.56,102.15,102.15,0,0,0-14.49,1.32c-6.14,1.18-13.08,3.27-13.08,3.27s-.95.43-.3,7.08c.65,6.24,2.51,18.58,8.2,40.58l-.16,18.64Z" style="fill:#FF7AC6"></path><path d="M173.92,157.61c6.73-4.34,7.43-8.43,7.43-8.43-6.6-2.12-6.37-11.35-6.37-11.35l-7.85,5.72a28.49,28.49,0,0,1,2.06,3.47c2.57,5.21.22,6.39.22,6.39C169.25,157,173.92,157.61,173.92,157.61Z" style="fill:#b97964"></path><path d="M167.13,143.55a28.49,28.49,0,0,1,2.06,3.47c5.83-2.78,5.79-9.19,5.79-9.19Z" style="opacity:0.2;isolation:isolate"></path><path d="M150,126.69s1.74,6.7,8.22,7,15.49-11.76,9.33-15.83S150.6,118.09,150,126.69Z" style="fill:#263238"></path><path d="M160.39,117.16c-7.7,3.16-8.48,8.3-5.78,16.46,3.38,10.2,8.47,16.34,17.22,10.26C183.71,135.63,173.17,111.9,160.39,117.16Z" style="fill:#b97964"></path><path d="M159.41,131.15a17.46,17.46,0,0,1-.93,4.11,2.29,2.29,0,0,0,2.39,0Z" style="fill:#a24e3f"></path><path d="M163.86,128.58c.25.64.79,1,1.21.86s.58-.81.33-1.45-.79-1-1.21-.86S163.61,127.94,163.86,128.58Z" style="fill:#263238"></path><path d="M164.38,127.09h-1.6S163.92,128,164.38,127.09Z" style="fill:#263238"></path><path d="M155.88,131.5c.24.64.78,1,1.21.86s.57-.82.33-1.46-.79-1-1.22-.85S155.63,130.86,155.88,131.5Z" style="fill:#263238"></path><path d="M156.39,130h-1.6S155.93,130.9,156.39,130Z" style="fill:#263238"></path><path d="M161.75,123.24a4.31,4.31,0,0,1,3.82-.21" style="fill:none;stroke:#263238;stroke-linecap:round;stroke-linejoin:round;stroke-width:0.707336px"></path><path d="M156,125.21a3.89,3.89,0,0,0-2.8,1.9" style="fill:none;stroke:#263238;stroke-linecap:round;stroke-linejoin:round;stroke-width:0.707336px"></path><path d="M166.64,135.17a7.77,7.77,0,0,1-4.78,3.38" style="fill:none;stroke:#263238;stroke-linecap:round;stroke-linejoin:round;stroke-width:0.75px"></path><path d="M155.93,120.35s4.54,8.91,18.79,4.49c0,0,3,7.79,2.06,11,0,0,9.32-1.79,6.45-15.4s-14.93-16.28-22.15-11.1a21.9,21.9,0,0,0-9.35,5.21c-3.37,3-8.11,13.45,2.55,18C154.28,132.55,149.88,123.13,155.93,120.35Z" style="fill:#263238"></path><path d="M173.55,128.81a3.65,3.65,0,0,1,2.36-4.58c2.49-.72,5.64,3.7.2,7.32C175.32,132.07,174.5,131.44,173.55,128.81Z" style="fill:#b97964"></path><path d="M158.59,154.16a26.6,26.6,0,0,0,3.56,2.81,23.08,23.08,0,0,0,2.49,1.49c3,1.57,6.71,2.8,10.56,2.09a34.38,34.38,0,0,0,9.72-3.86q1.61-.88,3.06-1.8a81,81,0,0,0,7.09-4.92,47.67,47.67,0,0,0-6.19-.7c-.8,0-1.61-.06-2.41-.07A81.67,81.67,0,0,0,165.8,152l-2.11.59C160.52,153.43,158.59,154.16,158.59,154.16Z" style="fill:#b97964"></path><path d="M185.36,240.61l1-.21c-.35-1-.89-2.72-1.36-4C185.05,236.37,185.09,237.61,185.36,240.61Z" style="opacity:0.2;isolation:isolate"></path><path d="M184.92,156.69q1.61-.88,3.06-1.8a15.1,15.1,0,0,1,.9-5.62c-.8,0-1.61-.06-2.41-.07A18.13,18.13,0,0,0,184.92,156.69Z" style="fill:#fff"></path><path d="M162.15,157a23.08,23.08,0,0,0,2.49,1.49A12.88,12.88,0,0,1,165.8,152l-2.11.59A11.39,11.39,0,0,0,162.15,157Z" style="fill:#fff"></path><path d="M196.36,176c0-.73.06-1.47.1-2.24.15-3.18.42-6.74.86-10.9,0-.15,0-.3.05-.45a9.39,9.39,0,0,0-3.27-1.5S192.64,172,196.36,176Z" style="opacity:0.2;isolation:isolate"></path><path d="M190.88,181.63l-11.63.29a14.59,14.59,0,0,0-4.2-2.21c-2-.51-7.45-2.31-8.43-1.18s-1.38,8,.4,9,10.16,1,12.15-.24l12.18,1.16Z" style="fill:#b97964"></path><path d="M199,149.43c2.68,1.78,24.28,33.57,25.54,39.88s-40.33-.22-40.33-.22l-.35-8.34,22.58-.41s-5.95-7.35-9.68-11.14a14.21,14.21,0,0,1-2-12.51C196.86,149.22,199,149.43,199,149.43Z" style="fill:#FF7AC6"></path><path d="M199,149.43c2.68,1.78,24.28,33.57,25.54,39.88s-40.33-.22-40.33-.22l-.35-8.34,22.58-.41s-5.95-7.35-9.68-11.14a14.21,14.21,0,0,1-2-12.51C196.86,149.22,199,149.43,199,149.43Z" style="opacity:0.1;isolation:isolate"></path><polygon points="247.8 228.2 238.28 230.09 212.08 235.3 107.28 256.11 93.8 258.79 91.34 246.42 83.45 206.72 63.2 104.8 65.7 104.31 93.76 98.73 127.35 92.06 146.41 88.27 172.63 83.06 196.8 78.26 217.2 74.2 239.43 186.1 247.8 228.2" style="fill:#fff;opacity:0.30000000000000004;isolation:isolate"></polygon><polygon points="146.41 88.27 83.45 206.72 63.2 104.8 65.7 104.31 93.76 98.73 127.35 92.06 146.41 88.27" style="fill:#fff;opacity:0.30000000000000004;isolation:isolate"></polygon><polygon points="196.8 78.26 107.28 256.11 93.8 258.79 91.34 246.42 172.63 83.06 196.8 78.26" style="fill:#fff;opacity:0.30000000000000004;isolation:isolate"></polygon><path d="M216.41,75.39l13.08,65.82,17.12,86.2-152,30.2L71.6,141.9l-7.21-36.31,152-30.2m.79-1.18-154,30.59,7.41,37.29L93.8,258.79l154-30.59L230.47,141,217.2,74.21Z" style="fill:#263238"></path><g style="opacity:0.7000000000000001;isolation:isolate"><path d="M216.41,75.39l13.08,65.82,17.12,86.2-152,30.2L71.6,141.9l-7.21-36.31,152-30.2m.79-1.18-154,30.59,7.41,37.29L93.8,258.79l154-30.59L230.47,141,217.2,74.21Z" style="fill:#fff"></path></g></g><g id="freepik--character-1--inject-19"><path d="M92.76,219s-27.26,16.75-29.51,9.93S76.75,187.75,79.9,186l2.68,10.39,2.08,8.06s-2.14,2.85-4.35,6c-2.61,3.74-5.33,7.94-4.76,8.41,1,.88,12.68-6.61,12.68-6.61Z" style="fill:#FF7AC6"></path><path d="M92.76,219s-27.26,16.75-29.51,9.93S76.75,187.75,79.9,186l2.68,10.39,2.08,8.06s-2.14,2.85-4.35,6c-2.61,3.74-5.33,7.94-4.76,8.41,1,.88,12.68-6.61,12.68-6.61Z" style="opacity:0.1;isolation:isolate"></path><path d="M84.66,204.44s-2.14,2.85-4.35,6c-2.34-4.32,2.27-14.08,2.27-14.08Z" style="opacity:0.2;isolation:isolate"></path><polygon points="63.54 404.15 70.2 405.32 72.94 396.24 75.43 387.9 67.75 385.22 65.52 395.24 63.54 404.15" style="fill:#e4897b"></polygon><polygon points="65.48 395.44 72.9 396.42 75.41 388 67.74 385.27 65.48 395.44" style="opacity:0.2;isolation:isolate"></polygon><polygon points="108.01 405 114.78 405 115.89 395.58 116.89 386.94 108.86 385.63 108.41 395.89 108.01 405" style="fill:#e4897b"></polygon><polygon points="108.41 396.1 115.89 395.77 116.89 387.03 108.86 385.68 108.41 396.1" style="opacity:0.2;isolation:isolate"></polygon><path d="M64.85,388.16l11,1.93c11-27.53,18.91-50.51,24.46-69.58,3-10.29,5.39-19.44,7.18-27.56l-.44,30V391h11c27.05-129,7.88-158.48,7.88-158.48L93.51,227A146.33,146.33,0,0,0,90.8,245.1l-1.46,10.7L76.69,321.12Z" style="fill:#FF7AC6"></path><g style="opacity:0.5;isolation:isolate"><path d="M64.85,388.16l11,1.93c10.09-25.15,17.53-46.5,23-64.54.51-1.71,1.08-3.39,1.57-5,2.71-9.34,4.66-17.74,6.66-25.28v0a10.54,10.54,0,0,1,.51-2.26l-.51,30V391h11c16.52-79,15.8-120.45,12.74-140.95-2-13.07-4.86-17.53-4.86-17.53L93.51,227A146.33,146.33,0,0,0,90.8,245.1l-.44,3.22-1,7.48L76.69,321.12Z" style="fill:#fff"></path></g><polygon points="77.52 388.74 63.94 384.23 64.12 390.01 75.36 393.59 77.52 388.74" style="fill:#FF7AC6"></polygon><polygon points="77.52 388.74 63.94 384.23 64.12 390.01 75.36 393.59 77.52 388.74" style="fill:#fff;opacity:0.6000000000000001;isolation:isolate"></polygon><polygon points="119.44 389.37 105.29 387.29 106.47 392.95 118.16 394.52 119.44 389.37" style="fill:#FF7AC6"></polygon><polygon points="119.44 389.37 105.29 387.29 106.47 392.95 118.16 394.52 119.44 389.37" style="fill:#fff;opacity:0.6000000000000001;isolation:isolate"></polygon><path d="M98.77,325.55c.51-1.71,1.08-3.39,1.56-5,2.71-9.34,4.67-17.74,6.67-25.28v0l1.08-13.88s-6.93-15.25-4.34-26c-.24.61-4.83,12.3-3,24A341.17,341.17,0,0,1,98.77,325.55Z" style="opacity:0.2;isolation:isolate"></path><path d="M94.77,171.35a1.57,1.57,0,0,0,.26.19,11.92,11.92,0,0,0,4.18,2.05c4.42,1,7.44.41,9.41-1.59h0c2.76-3,3.45-8.31,3.06-14.73a24.07,24.07,0,0,0-1.4-7.48s0-.1,0-.12-.07-.19-.11-.27a8.75,8.75,0,0,0-6.43-5.34,17.77,17.77,0,0,0-3.79-.42C87.44,143.51,85.19,164.21,94.77,171.35Z" style="fill:#b97964"></path><path d="M95,171.54a11.61,11.61,0,0,0,4.18,1.87c4.42,1,7.44.27,9.41-1.76a12.46,12.46,0,0,1-7.93-.65C98.9,170.18,96.91,170.6,95,171.54Z" style="opacity:0.2;isolation:isolate"></path><path d="M93.05,181.89c-1.34,3.39,3,5.57,3,5.57,8-2,10-5.7,10-5.7-5.68-4.25-2.39-13.11-2.39-13.11l-1.36.41-9.15.29s1.69,5.12,1.84,6.25v0C95.71,181.53,93.05,181.89,93.05,181.89Z" style="fill:#b97964"></path><path d="M110.3,149.7s.69,8.77-7.62,12.54c0,0-3.57,9.1-8.82,9.23-7.16.18-13.47-10-11-20.39C86.09,137.63,106.47,136.53,110.3,149.7Z" style="fill:#263238"></path><path d="M96.32,139.5s13.61-3.75,15.47,5.75c2.59,13.18-10,14.37-10,14.37s3.3,10.38-8,11.85C75,173.93,72.33,134.17,96.32,139.5Z" style="fill:#263238"></path><path d="M106.89,159.72c0-1.37-1.1-3.67-3.23-3.35s-3.42,5.74,2,6.95C106.42,163.5,106.89,162.57,106.89,159.72Z" style="fill:#b97964"></path><path d="M88.85,142.75S87,133.5,77.5,134.5s-9.67,11-7.17,18.17-3.66,11.93-6.5,15.38-2.65,8.89,3.76,10.42a4.09,4.09,0,0,1-1.09-4.61c1-3,9-2.57,12.51-9.42,4.18-8.17.66-18.44,5-17.11S88.85,142.75,88.85,142.75Z" style="fill:#263238"></path><path d="M79.55,150.5s3.67,14.24-2.37,18c-3.87,2.42-4.17,3.74-2.93,5.92" style="fill:none;stroke:#263238;stroke-linecap:round;stroke-linejoin:round;stroke-width:0.5px"></path><path d="M95,140.55s9.49-5.62,15.34-.16c4.19,3.9,2.61,10.11,2.61,10.11" style="fill:none;stroke:#263238;stroke-linecap:round;stroke-linejoin:round;stroke-width:0.5px"></path><path d="M79.9,186s6.9-2.71,13.09-4.41A104.58,104.58,0,0,1,107.67,179a97.51,97.51,0,0,1,14.09-.56c-.14,2.26-.24,4.4-.33,6.41-.12,2.65-.2,5.11-.26,7.39-.1,4.28-.09,7.94,0,11.2.26,8.7-.81,16.4.56,23L93.22,230h-2c-6.94-20-9.92-30.79-11-36.83C79,186.44,79.9,186,79.9,186Z" style="fill:#b97964"></path><path d="M108,178.05s-2.75,3.45-2.83,10.95c0,0-8.63,6.13-15.54,4.13,0,0-.8-8,.79-10.8l-1.89.59s-3.36,10.16-1.53,15,21.62-5.5,21.62-5.5-1.3-9.37,1.12-13.6Z" style="fill:#fff"></path><path d="M87.7,259.78l2.66-30.11S76,194.52,79.9,186a13.93,13.93,0,0,1,4.68-2.32s-1.17,6,8.21,7.16,21-13.5,21-13.5,5.51.28,7.92,1.14c0,0,0,5.06,0,12.05.06,4.57.18,10,.41,15.33a179.32,179.32,0,0,0,1.53,18.69s7.35,12.79,8.72,24Z" style="fill:#FF7AC6"></path><path d="M106.09,404c0-.72,8.82-.16,8.82-.16s5.41,5.51,10.67,6.75S127.9,415,122,415H107.48C103.31,415,105.92,411.44,106.09,404Z" style="fill:#263238"></path><path d="M115.89,405a.18.18,0,0,1-.07-.05h0s0,0,0-.06h0a.19.19,0,0,1,0-.07h0a.31.31,0,0,1,0-.1c0-.1.78-2.14,2-2.63a1.32,1.32,0,0,1,1.13,0c.41.19.6.44.58.74,0,.46-.65.92-1.37,1.31a3.54,3.54,0,0,1,2,.21,1,1,0,0,1,.47.6.84.84,0,0,1-.22.93,1.2,1.2,0,0,1-.77.22A11,11,0,0,1,115.89,405Zm.81-.15c1.29.55,2.9,1,3.32.7,0,0,.15-.12.06-.47a.54.54,0,0,0-.25-.31,2.22,2.22,0,0,0-1-.19A10.66,10.66,0,0,0,116.7,404.85Zm1.21-2.35a3.8,3.8,0,0,0-1.5,1.9c1.3-.5,2.56-1.18,2.58-1.58,0-.12-.19-.24-.31-.29a.92.92,0,0,0-.77,0Z" style="fill:#FF7AC6"></path><path d="M62.09,404c0-.72,8.82-.16,8.82-.16s5.41,5.51,10.67,6.75S83.9,415,78,415H63.48C59.31,415,61.92,411.44,62.09,404Z" style="fill:#263238"></path><path d="M71.89,405a.18.18,0,0,1-.07-.05h0s0,0,0-.06h0a.19.19,0,0,1,0-.07h0a.31.31,0,0,1,0-.1c0-.1.78-2.14,2-2.63a1.32,1.32,0,0,1,1.13,0c.41.19.6.44.58.74,0,.46-.65.92-1.37,1.31a3.54,3.54,0,0,1,2,.21,1,1,0,0,1,.47.6.84.84,0,0,1-.22.93,1.2,1.2,0,0,1-.77.22A11,11,0,0,1,71.89,405Zm.81-.15c1.29.55,2.9,1,3.32.7,0,0,.15-.12.06-.47a.54.54,0,0,0-.25-.31,2.22,2.22,0,0,0-1-.19A10.66,10.66,0,0,0,72.7,404.85Zm1.21-2.35a3.8,3.8,0,0,0-1.5,1.9c1.3-.5,2.56-1.18,2.58-1.58,0-.12-.19-.24-.31-.29a.92.92,0,0,0-.77,0Z" style="fill:#FF7AC6"></path><path d="M122.21,205.85c-4.44-3.95-2.1-16.07-2.1-16.07l1.69.74C121.86,195.09,122,200.5,122.21,205.85Z" style="opacity:0.2;isolation:isolate"></path><path d="M173.36,228.28l7.41,3.78s3-.86,4.26-.16,7.12,6.94,6.91,8.1-5.64,5-7.28,4.21-5.94-6.92-6.12-7.66L170.41,233Z" style="fill:#e4897b"></path><path d="M121.75,178.47c4.5-1.14,28.2,33.6,28.2,33.6l26.88,16.58-3.45,6.85S150,225.2,142.76,219.76s-21.66-23.38-21.66-23.38A60.25,60.25,0,0,1,119.92,186,18.37,18.37,0,0,1,121.75,178.47Z" style="fill:#FF7AC6"></path><path d="M121.75,178.47c4.5-1.14,28.2,33.6,28.2,33.6l26.88,16.58-3.45,6.85S150,225.2,142.76,219.76s-21.66-23.38-21.66-23.38A60.25,60.25,0,0,1,119.92,186,18.37,18.37,0,0,1,121.75,178.47Z" style="opacity:0.1;isolation:isolate"></path></g></svg>