<svg xmlns="http://www.w3.org/2000/svg" viewBox="0 0 500 500"><g id="freepik--Plant--inject-20"><path d="M79.34,348.18s6.35-5.3,11.79,0,6.5,38.07,6.5,38.07" style="fill:none;stroke:#0D0D0D;stroke-miterlimit:10"></path><path d="M98.08,392.58s-3.74-38.47,10.34-54.64" style="fill:none;stroke:#0D0D0D;stroke-miterlimit:10"></path><path d="M96.74,388.53s2.88-43.8-7.69-53.52" style="fill:none;stroke:#0D0D0D;stroke-miterlimit:10"></path><path d="M98.08,388.53s.24-28.95,8.1-33.44S118,365.26,118,365.26" style="fill:none;stroke:#0D0D0D;stroke-miterlimit:10"></path><path d="M95,388.53s1.28-22.22-4.81-30.16-12.48,3.4-12.48,3.4" style="fill:none;stroke:#0D0D0D;stroke-miterlimit:10"></path><path d="M97.1,391.5s-3.94-52,2.57-60.76" style="fill:none;stroke:#0D0D0D;stroke-miterlimit:10"></path><path d="M112.9,359.3s-3.92,1.45-2.75,4.85,13.54,9,13.54,9,5.19-4.75.42-12.48S113,356.86,112.9,359.3Z" style="fill:#0D0D0D"></path><path d="M112.9,359.3s-3.92,1.45-2.75,4.85,13.54,9,13.54,9,5.19-4.75.42-12.48S113,356.86,112.9,359.3Z" style="fill:#fff;opacity:0.2;isolation:isolate"></path><path d="M95.88,352.82s4.17-.18,4.41,3.41-9,13.54-9,13.54-6.61-2.39-5.19-11.36S94.84,350.61,95.88,352.82Z" style="fill:#0D0D0D"></path><path d="M95.88,352.82s4.17-.18,4.41,3.41-9,13.54-9,13.54-6.61-2.39-5.19-11.36S94.84,350.61,95.88,352.82Z" style="fill:#fff;opacity:0.2;isolation:isolate"></path><path d="M92.35,335.62s2.78-.3,2.56-2-10.81-6.05-17,1c0,0,4,6.87,9.77,7S92.35,335.62,92.35,335.62Z" style="fill:#0D0D0D"></path><path d="M92.35,335.62s2.78-.3,2.56-2-10.81-6.05-17,1c0,0,4,6.87,9.77,7S92.35,335.62,92.35,335.62Z" style="fill:#fff;opacity:0.2;isolation:isolate"></path><path d="M97.53,331.51s-2.52,1.21-3.22-.34,6-10.85,15-8.17c0,0,.24,7.94-4.62,11.07S97.53,331.51,97.53,331.51Z" style="fill:#0D0D0D"></path><path d="M97.53,331.51s-2.52,1.21-3.22-.34,6-10.85,15-8.17c0,0,.24,7.94-4.62,11.07S97.53,331.51,97.53,331.51Z" style="fill:#fff;opacity:0.2;isolation:isolate"></path><path d="M84.37,357.93s1.92-1.55-.15-2.3-12.23-.54-12.34,9.52c0,0,11.83,2,13.3-1.87S84.37,357.93,84.37,357.93Z" style="fill:#0D0D0D"></path><path d="M84.37,357.93s1.92-1.55-.15-2.3-12.23-.54-12.34,9.52c0,0,11.83,2,13.3-1.87S84.37,357.93,84.37,357.93Z" style="fill:#fff;opacity:0.2;isolation:isolate"></path><path d="M108.49,335.36s-1.91-1.54.16-2.3,12.22-.54,12.33,9.52c0,0-11.83,2-13.3-1.87S108.49,335.36,108.49,335.36Z" style="fill:#0D0D0D"></path><path d="M108.49,335.36s-1.91-1.54.16-2.3,12.22-.54,12.33,9.52c0,0-11.83,2-13.3-1.87S108.49,335.36,108.49,335.36Z" style="fill:#fff;opacity:0.2;isolation:isolate"></path><path d="M102.24,343.47s-.17-1.88,1.35-1.14,6.82,6.45,1.33,11.87c0,0-7.39-5.48-6.06-8.32S102.24,343.47,102.24,343.47Z" style="fill:#0D0D0D"></path><path d="M102.24,343.47s-.17-1.88,1.35-1.14,6.82,6.45,1.33,11.87c0,0-7.39-5.48-6.06-8.32S102.24,343.47,102.24,343.47Z" style="fill:#fff;opacity:0.2;isolation:isolate"></path><path d="M82.65,346.15s1.15-1.5-.53-1.69-9.2,1.83-7.45,9.34c0,0,9.17-.69,9.56-3.81S82.65,346.15,82.65,346.15Z" style="fill:#0D0D0D"></path><path d="M82.65,346.15s1.15-1.5-.53-1.69-9.2,1.83-7.45,9.34c0,0,9.17-.69,9.56-3.81S82.65,346.15,82.65,346.15Z" style="fill:#fff;opacity:0.2;isolation:isolate"></path><polygon points="113.63 416.42 82.17 416.42 78.78 381.98 117.03 381.98 113.63 416.42" style="fill:#0D0D0D"></polygon><polygon points="113.63 416.42 82.17 416.42 78.78 381.98 117.03 381.98 113.63 416.42" style="fill:#fff;opacity:0.5;isolation:isolate"></polygon><rect x="77.1" y="378.17" width="41.61" height="7.6" style="fill:#0D0D0D"></rect><rect x="77.1" y="378.17" width="41.61" height="7.6" style="fill:#fff;opacity:0.2;isolation:isolate"></rect></g><g id="freepik--trash-bin--inject-20"><path d="M409.67,397.93a2.23,2.23,0,0,0-1.78-3.19,4.75,4.75,0,0,0-1.5-5.19,1.1,1.1,0,0,0-.66-.29,1.27,1.27,0,0,0-.7.31l-4.16,3a2.64,2.64,0,0,0-.82.81c-.85,1.65,2.21,3.76.95,5.12-.36.39-.94.47-1.39.75-1,.62-1.11,2-1.57,3.05s-2.07,1.9-2.69.91c.46-1-.92-1.91-2-2s-2.29-.19-2.9-1.24c-1.59,1.38-5.13-2.48-5.05-4a3.07,3.07,0,0,0-2.48,2.54,18.6,18.6,0,0,0-.13,3.88c0,2.52-.85,5-.81,7.51,0,2,.79,4.15,2.59,4.93a6.73,6.73,0,0,0,2.79.38l20.45-.13a3.17,3.17,0,0,0,1.44-.24c.92-.48,1.12-1.69,1.2-2.73q.56-6.67,1.1-13.33Z" style="fill:#0D0D0D"></path><path d="M409.67,397.93a2.23,2.23,0,0,0-1.78-3.19,4.75,4.75,0,0,0-1.5-5.19,1.1,1.1,0,0,0-.66-.29,1.27,1.27,0,0,0-.7.31l-4.16,3a2.64,2.64,0,0,0-.82.81c-.85,1.65,2.21,3.76.95,5.12-.36.39-.94.47-1.39.75-1,.62-1.11,2-1.57,3.05s-2.07,1.9-2.69.91c.46-1-.92-1.91-2-2s-2.29-.19-2.9-1.24c-1.59,1.38-5.13-2.48-5.05-4a3.07,3.07,0,0,0-2.48,2.54,18.6,18.6,0,0,0-.13,3.88c0,2.52-.85,5-.81,7.51,0,2,.79,4.15,2.59,4.93a6.73,6.73,0,0,0,2.79.38l20.45-.13a3.17,3.17,0,0,0,1.44-.24c.92-.48,1.12-1.69,1.2-2.73q.56-6.67,1.1-13.33Z" style="fill:#fff;opacity:0.30000000000000004;isolation:isolate"></path><path d="M410.87,376.31H379.13l.26,3.21.18,2.29.49,5.95.27,3.43.37,4.55.16,2,.05.58.19,2.3.25,3.14.16,2,.16,2,.19,2.3.14,1.74.15,1.95.07.85h29.13l.07-.85.15-1.95.15-1.75.18-2.3.17-2,.15-2,.26-3.15.18-2.29,0-.58.15-2,.38-4.55.27-3.42.48-6,.19-2.29.26-3.21Zm1.9,2.1h0l-.61-.61h.67Zm-.15,1.95-.06.77L409.72,384l-3.26-3.26,2.91-2.92h.69Zm-.82,10.16-2.08,2.08-3.26-3.26,3.26-3.25,2.25,2.25Zm-30.21-2.18h0l2.26-2.25,3.26,3.25-3.26,3.26-2.08-2.08ZM408.67,385l-3.26,3.26L402.15,385l3.26-3.26Zm-5.13-7.23h3.73l-1.86,1.87Zm.81,11.54-3.25,3.26-3.26-3.26,3.26-3.25Zm-10.82,4.31,3.26-3.25,3.25,3.25-3.25,3.26Zm2.2,4.31-3.26,3.26L389.22,398l3.26-3.26Zm5.37-3.25,3.25,3.26-3.25,3.25L397.84,398Zm-4.31-6.42L393.53,385l3.26-3.26L400,385Zm-1.06,1-3.25,3.26-3.26-3.26,3.26-3.25Zm-7.57-1L384.91,385l3.25-3.26,3.26,3.26Zm0,2.11,3.26,3.25-3.26,3.26-3.25-3.26Zm3.26,11.88-3.26,3.25-3.25-3.25,3.25-3.26Zm1.05,1.05,3.26,3.26-3.25,3.26-3.26-3.26Zm1.06-1.05,3.26-3.26,3.25,3.26-3.25,3.25Zm7.57,1.05,3.25,3.26-3.25,3.26-3.26-3.26Zm4.31,4.31,3.26,3.26L406.56,413h-2.3l-2.11-2.11Zm-3.26-5.36,3.26-3.26,3.26,3.26-3.26,3.25Zm0-8.63,3.26-3.25,3.26,3.25-3.26,3.26Zm2.2-12.93L401.1,384l-3.26-3.26,2.91-2.92h.69Zm-7.56-1.05-1.87-1.87h3.72Zm-1.06,1.05L392.48,384l-3.26-3.26,2.91-2.92h.69ZM390,377.8l-1.86,1.87-1.86-1.87Zm-5.83,0,2.92,2.92L383.85,384,381,381.13l-.06-.77,2.55-2.56Zm-2.79,0-.6.6h0l-.06-.6Zm-.2,5.63,1.6,1.6-1.36,1.35Zm.89,10.93-.13-1.55h0l.84.84-.71.71Zm.15,2,1.61-1.61,3.26,3.26-3.26,3.25-1.32-1.32Zm.49,6v-.14l.08.08-.07.06Zm.57,7-.41-5,1-1,3.26,3.26-3.26,3.25-.55-.55Zm.29,3.72-.06-.75.32-.31,1.06,1.06Zm1.32-2.11,3.25-3.26,3.26,3.26L389.31,413H387Zm6.51,2.11,1.06-1.06,1,1.06Zm4.22,0-2.11-2.11,3.26-3.26L400,410.9,397.93,413Zm4.4,0L401.1,412l1.06,1.06Zm9.93,0h-1.31l1.06-1.06.31.31Zm.31-3.72-.56.55-3.26-3.25,3.26-3.26,1,1Zm.57-7.1v.15l-.07-.06.08-.09Zm.19-2.29-1.32,1.32L406.46,398l3.26-3.26,1.61,1.61Zm.44-5.54-.71-.71.84-.84Zm.89-10.94-.24,3L410.77,385l1.6-1.61Z" style="fill:#0D0D0D"></path><g style="opacity:0.6000000000000001;isolation:isolate"><path d="M410.87,376.31H379.13l.26,3.21.18,2.29.49,5.95.27,3.43.37,4.55.16,2,.05.58.19,2.3.25,3.14.16,2,.16,2,.19,2.3.14,1.74.15,1.95.07.85h29.13l.07-.85.15-1.95.15-1.75.18-2.3.17-2,.15-2,.26-3.15.18-2.29,0-.58.15-2,.38-4.55.27-3.42.48-6,.19-2.29.26-3.21Zm1.9,2.1h0l-.61-.61h.67Zm-.15,1.95-.06.77L409.72,384l-3.26-3.26,2.91-2.92h.69Zm-.82,10.16-2.08,2.08-3.26-3.26,3.26-3.25,2.25,2.25Zm-30.21-2.18h0l2.26-2.25,3.26,3.25-3.26,3.26-2.08-2.08ZM408.67,385l-3.26,3.26L402.15,385l3.26-3.26Zm-5.13-7.23h3.73l-1.86,1.87Zm.81,11.54-3.25,3.26-3.26-3.26,3.26-3.25Zm-10.82,4.31,3.26-3.25,3.25,3.25-3.25,3.26Zm2.2,4.31-3.26,3.26L389.22,398l3.26-3.26Zm5.37-3.25,3.25,3.26-3.25,3.25L397.84,398Zm-4.31-6.42L393.53,385l3.26-3.26L400,385Zm-1.06,1-3.25,3.26-3.26-3.26,3.26-3.25Zm-7.57-1L384.91,385l3.25-3.26,3.26,3.26Zm0,2.11,3.26,3.25-3.26,3.26-3.25-3.26Zm3.26,11.88-3.26,3.25-3.25-3.25,3.25-3.26Zm1.05,1.05,3.26,3.26-3.25,3.26-3.26-3.26Zm1.06-1.05,3.26-3.26,3.25,3.26-3.25,3.25Zm7.57,1.05,3.25,3.26-3.25,3.26-3.26-3.26Zm4.31,4.31,3.26,3.26L406.56,413h-2.3l-2.11-2.11Zm-3.26-5.36,3.26-3.26,3.26,3.26-3.26,3.25Zm0-8.63,3.26-3.25,3.26,3.25-3.26,3.26Zm2.2-12.93L401.1,384l-3.26-3.26,2.91-2.92h.69Zm-7.56-1.05-1.87-1.87h3.72Zm-1.06,1.05L392.48,384l-3.26-3.26,2.91-2.92h.69ZM390,377.8l-1.86,1.87-1.86-1.87Zm-5.83,0,2.92,2.92L383.85,384,381,381.13l-.06-.77,2.55-2.56Zm-2.79,0-.6.6h0l-.06-.6Zm-.2,5.63,1.6,1.6-1.36,1.35Zm.89,10.93-.13-1.55h0l.84.84-.71.71Zm.15,2,1.61-1.61,3.26,3.26-3.26,3.25-1.32-1.32Zm.49,6v-.14l.08.08-.07.06Zm.57,7-.41-5,1-1,3.26,3.26-3.26,3.25-.55-.55Zm.29,3.72-.06-.75.32-.31,1.06,1.06Zm1.32-2.11,3.25-3.26,3.26,3.26L389.31,413H387Zm6.51,2.11,1.06-1.06,1,1.06Zm4.22,0-2.11-2.11,3.26-3.26L400,410.9,397.93,413Zm4.4,0L401.1,412l1.06,1.06Zm9.93,0h-1.31l1.06-1.06.31.31Zm.31-3.72-.56.55-3.26-3.25,3.26-3.26,1,1Zm.57-7.1v.15l-.07-.06.08-.09Zm.19-2.29-1.32,1.32L406.46,398l3.26-3.26,1.61,1.61Zm.44-5.54-.71-.71.84-.84Zm.89-10.94-.24,3L410.77,385l1.6-1.61Z" style="fill:#fff"></path></g><rect x="377.09" y="374.98" width="39.38" height="4.15" rx="1.64" transform="translate(793.57 754.11) rotate(180)" style="fill:#0D0D0D"></rect><rect x="379.93" y="412.27" width="33.7" height="4.15" rx="1.64" style="fill:#0D0D0D"></rect></g><g id="freepik--Switches--inject-20"><path d="M79,108a4.56,4.56,0,0,0-4.56,4.55v154A4.57,4.57,0,0,0,79,271.13H348.1a4.56,4.56,0,0,0,4.56-4.56v-154A4.56,4.56,0,0,0,348.1,108Z" style="fill:#0D0D0D;opacity:0.8"></path><path d="M84,103a4.56,4.56,0,0,0-4.56,4.55v154A4.57,4.57,0,0,0,84,266.13H353.1a4.56,4.56,0,0,0,4.56-4.56v-154A4.56,4.56,0,0,0,353.1,103Z" style="fill:#0D0D0D"></path><path d="M84,103a4.56,4.56,0,0,0-4.56,4.55v154A4.57,4.57,0,0,0,84,266.13H353.1a4.56,4.56,0,0,0,4.56-4.56v-154A4.56,4.56,0,0,0,353.1,103Z" style="fill:#fff;opacity:0.8"></path><polygon points="331.3 130.38 329.3 126.21 294.75 126.21 294.75 242.95 329.3 242.95 331.3 238.78 331.3 130.38" style="fill:#0D0D0D"></polygon><polygon points="300.51 130.38 294.75 126.21 294.75 242.95 300.51 238.78 300.51 130.38" style="opacity:0.2;isolation:isolate"></polygon><polygon points="294.75 126.21 300.51 130.38 331.3 130.38 329.3 126.21 294.75 126.21" style="fill:#fff;opacity:0.2"></polygon><polygon points="300.51 238.78 331.3 238.78 329.3 242.95 294.75 242.95 300.51 238.78" style="opacity:0.4;isolation:isolate"></polygon><g style="opacity:0.30000000000000004"><path d="M315.91,147.62a6,6,0,1,1,6-6A6,6,0,0,1,315.91,147.62Zm0-10a4,4,0,1,0,4,4A4,4,0,0,0,315.91,137.66Z" style="fill:#fff"></path><path d="M315.91,233.5a1,1,0,0,1-1-1v-10a1,1,0,0,1,2,0v10A1,1,0,0,1,315.91,233.5Z" style="fill:#fff"></path></g><rect x="303.51" y="153.38" width="24.8" height="62.4" style="fill:#263238"></rect><path d="M348.31,172.78l-2.18-18.55h-20l-22.62.05V215h20a228.93,228.93,0,0,0,1.68-29.77v0l23.11-6.13.72-.19Z" style="fill:#0D0D0D"></path><path d="M348.31,172.78l-2.18-18.55h-20l-22.62.05V215h20a228.93,228.93,0,0,0,1.68-29.77v0l23.11-6.13.72-.19Z" style="fill:#fff;opacity:0.4"></path><polygon points="326.13 154.23 346.13 154.23 349.03 178.91 329.03 178.91 326.13 154.23" style="fill:#fff;opacity:0.2"></polygon><polygon points="305.19 185.21 325.2 185.23 349.03 178.91 329.03 178.91 305.19 185.21" style="opacity:0.4;isolation:isolate"></polygon><path d="M329,178.91l-.72.19-23.11,6.13v0A228.93,228.93,0,0,1,303.51,215v-60.7c.27,1.89.52,4.06.74,6.45l21.88-6.5,2.18,18.55Z" style="opacity:0.2;isolation:isolate"></path><polygon points="268.82 130.38 266.82 126.21 232.27 126.21 232.27 242.95 266.82 242.95 268.82 238.78 268.82 130.38" style="fill:#0D0D0D"></polygon><polygon points="238.03 130.38 232.27 126.21 232.27 242.95 238.03 238.78 238.03 130.38" style="opacity:0.2;isolation:isolate"></polygon><polygon points="232.27 126.21 238.03 130.38 268.82 130.38 266.82 126.21 232.27 126.21" style="fill:#fff;opacity:0.2"></polygon><polygon points="238.03 238.78 268.82 238.78 266.82 242.95 232.27 242.95 238.03 238.78" style="opacity:0.4;isolation:isolate"></polygon><g style="opacity:0.30000000000000004"><path d="M253.43,147.62a6,6,0,1,1,6-6A6,6,0,0,1,253.43,147.62Zm0-10a4,4,0,1,0,4,4A4,4,0,0,0,253.43,137.66Z" style="fill:#fff"></path><path d="M253.43,233.5a1,1,0,0,1-1-1v-10a1,1,0,0,1,2,0v10A1,1,0,0,1,253.43,233.5Z" style="fill:#fff"></path></g><rect x="241.03" y="153.38" width="24.8" height="62.4" style="fill:#263238"></rect><path d="M285.83,172.78l-2.18-18.55h-20l-22.62.05V215h20a228.93,228.93,0,0,0,1.68-29.77v0l23.11-6.13.72-.19Z" style="fill:#0D0D0D"></path><path d="M285.83,172.78l-2.18-18.55h-20l-22.62.05V215h20a228.93,228.93,0,0,0,1.68-29.77v0l23.11-6.13.72-.19Z" style="fill:#fff;opacity:0.4"></path><polygon points="263.65 154.23 283.65 154.23 286.55 178.91 266.55 178.91 263.65 154.23" style="fill:#fff;opacity:0.2"></polygon><polygon points="242.71 185.21 262.72 185.23 286.55 178.91 266.55 178.91 242.71 185.21" style="opacity:0.4;isolation:isolate"></polygon><path d="M266.55,178.91l-.72.19-23.11,6.13v0A228.93,228.93,0,0,1,241,215v-60.7c.27,1.89.52,4.06.74,6.45l21.88-6.5,2.18,18.55Z" style="opacity:0.2;isolation:isolate"></path><polygon points="206.34 130.38 204.34 126.21 169.79 126.21 169.79 242.95 204.34 242.95 206.34 238.78 206.34 130.38" style="fill:#0D0D0D"></polygon><polygon points="175.55 130.38 169.79 126.21 169.79 242.95 175.55 238.78 175.55 130.38" style="opacity:0.2;isolation:isolate"></polygon><polygon points="169.79 126.21 175.55 130.38 206.34 130.38 204.34 126.21 169.79 126.21" style="fill:#fff;opacity:0.2"></polygon><polygon points="175.55 238.78 206.34 238.78 204.34 242.95 169.79 242.95 175.55 238.78" style="opacity:0.4;isolation:isolate"></polygon><g style="opacity:0.30000000000000004"><path d="M190.94,147.62a6,6,0,1,1,6-6A6,6,0,0,1,190.94,147.62Zm0-10a4,4,0,1,0,4,4A4,4,0,0,0,190.94,137.66Z" style="fill:#fff"></path><path d="M190.94,233.5a1,1,0,0,1-1-1v-10a1,1,0,0,1,2,0v10A1,1,0,0,1,190.94,233.5Z" style="fill:#fff"></path></g><rect x="178.54" y="153.38" width="24.8" height="62.4" style="fill:#263238"></rect><path d="M223.34,196.43,221.16,215h-20l-22.62,0v-60.7h20A228.93,228.93,0,0,1,200.22,184v0l23.11,6.13.72.19Z" style="fill:#0D0D0D"></path><path d="M223.34,196.43,221.16,215h-20l-22.62,0v-60.7h20A228.93,228.93,0,0,1,200.22,184v0l23.11,6.13.72.19Z" style="fill:#fff;opacity:0.4"></path><polygon points="201.16 214.98 221.16 214.98 224.06 190.3 204.06 190.3 201.16 214.98" style="fill:#fff;opacity:0.2"></polygon><polygon points="180.22 184 200.24 183.98 224.06 190.3 204.06 190.3 180.22 184" style="fill:#fff;opacity:0.4"></polygon><path d="M204.06,190.3l-.72-.19L180.23,184v0a228.93,228.93,0,0,0-1.68-29.77v60.7c.27-1.89.52-4.06.74-6.45l21.88,6.5,2.18-18.55Z" style="opacity:0.2;isolation:isolate"></path><polygon points="143.86 130.38 141.86 126.21 107.31 126.21 107.31 242.95 141.86 242.95 143.86 238.78 143.86 130.38" style="fill:#0D0D0D"></polygon><polygon points="113.07 130.38 107.31 126.21 107.31 242.95 113.07 238.78 113.07 130.38" style="opacity:0.2;isolation:isolate"></polygon><polygon points="107.31 126.21 113.07 130.38 143.86 130.38 141.86 126.21 107.31 126.21" style="fill:#fff;opacity:0.2"></polygon><polygon points="113.07 238.78 143.86 238.78 141.86 242.95 107.31 242.95 113.07 238.78" style="opacity:0.4;isolation:isolate"></polygon><g style="opacity:0.30000000000000004"><path d="M128.46,147.62a6,6,0,1,1,6-6A6,6,0,0,1,128.46,147.62Zm0-10a4,4,0,1,0,4,4A4,4,0,0,0,128.46,137.66Z" style="fill:#fff"></path><path d="M128.46,233.5a1,1,0,0,1-1-1v-10a1,1,0,0,1,2,0v10A1,1,0,0,1,128.46,233.5Z" style="fill:#fff"></path></g><rect x="116.06" y="153.38" width="24.8" height="62.4" style="fill:#263238"></rect><path d="M160.86,196.43,158.68,215h-20l-22.62,0v-60.7h20A228.93,228.93,0,0,1,137.74,184v0l23.11,6.13.72.19Z" style="fill:#0D0D0D"></path><path d="M160.86,196.43,158.68,215h-20l-22.62,0v-60.7h20A228.93,228.93,0,0,1,137.74,184v0l23.11,6.13.72.19Z" style="fill:#fff;opacity:0.4"></path><polygon points="138.68 214.98 158.68 214.98 161.58 190.3 141.58 190.3 138.68 214.98" style="fill:#fff;opacity:0.2"></polygon><polygon points="117.74 184 137.75 183.98 161.58 190.3 141.58 190.3 117.74 184" style="fill:#fff;opacity:0.4"></polygon><path d="M141.58,190.3l-.72-.19L117.75,184v0a228.93,228.93,0,0,0-1.68-29.77v60.7c.27-1.89.52-4.06.74-6.45l21.88,6.5,2.18-18.55Z" style="opacity:0.2;isolation:isolate"></path></g><g id="freepik--Character--inject-20"><g id="freepik--group--inject-20"><path d="M363.13,188.05s10.53,19.72,11.22,24.4S364,246.57,364,246.57s2,7.89-.46,9.14-6.88,3.79-7.43,1.52.27-9.7.27-9.7l1.89-1.53s7.41-30.89,7.45-32-11.36-19.73-11.36-19.73Z" style="fill:#9f5b53"></path><path d="M375,213.46c-.06,3.61-7.35,27.06-7.35,27.06l-8.52-1s4.37-23.23,4.36-25.49a9.79,9.79,0,0,0-1.31-3.3c-1.25-2.35-3.22-5.47-5.12-8.36-2.82-4.29-5.5-8.07-5.5-8.07l7-5.66s.52-1.6,1.27-3.26c.89-2,2.11-4,3.17-3.68C367,183,375.11,209.86,375,213.46Z" style="fill:#263238"></path><polygon points="359.28 235.93 369.93 237.7 367.69 240.53 359.17 239.48 359.28 235.93" style="fill:#0D0D0D"></polygon><polygon points="359.28 235.93 369.93 237.7 367.69 240.53 359.17 239.48 359.28 235.93" style="fill:#fff;opacity:0.6000000000000001"></polygon><path d="M362.22,210.69c-1.25-2.35-3.22-5.47-5.12-8.36-2.82-4.29-5.5-8.07-5.5-8.07l7-5.66s.52-1.6,1.27-3.26C361.81,188.94,367.2,200.42,362.22,210.69Z" style="opacity:0.2;isolation:isolate"></path><path d="M334,166.58a8.79,8.79,0,0,0,.32,1,10.28,10.28,0,0,0,5,5.66,9.26,9.26,0,0,0,7.95.36,9.36,9.36,0,0,0,3-2.1c3.68-3.72,3.58-8,4-15.26a10,10,0,0,0-13.74-9.93C333.35,149.24,332.38,160,334,166.58Z" style="fill:#9f5b53"></path><path d="M337.9,172.45a10.11,10.11,0,0,0,1.33.82,9.26,9.26,0,0,0,7.95.36,10.68,10.68,0,0,0-1.3-2.47A14.3,14.3,0,0,0,337.9,172.45Z" style="opacity:0.2;isolation:isolate"></path><path d="M352.51,181.87c-3.58,3.25-12.34,2-12.34,2s-5.47-1.5-4.32-3.21c3.22-.53,4.78-2,5.42-4a9.29,9.29,0,0,0,.33-3.68,20.55,20.55,0,0,0-.27-2l10.83-8C350.74,168.29,349,178,352.51,181.87Z" style="fill:#9f5b53"></path><path d="M342.54,143.21s-1.92-1.18-5.2,1.91c-2.76,2.61,0,4.7-1.65,8s.58,6.62.58,6.62,1.6,3.44,4.37,3.22c0,0,2.26,2.74,1.9,5.57s3.7,5.07,9.24,5,3.33-3.53,3.33-3.53a22.83,22.83,0,0,0,3.84-6.22,21.35,21.35,0,0,0,1.57-8.67,11.59,11.59,0,0,0-3.2-8.4C353.63,142.59,344.81,140.5,342.54,143.21Z" style="fill:#263238"></path><path d="M342,161.42a4.72,4.72,0,0,1-2.41,3.23c-1.48.62-2.45-1.46-2.24-3.64.2-1.94,1.21-4.66,2.79-4.3S342.54,159.47,342,161.42Z" style="fill:#9f5b53"></path><path d="M353.39,181.18l-1.6-4.12S341,175,337.34,180.36,353.39,181.18,353.39,181.18Z" style="fill:#0D0D0D"></path><path d="M353.39,181.18l-1.6-4.12S341,175,337.34,180.36,353.39,181.18,353.39,181.18Z" style="fill:#fff;opacity:0.6000000000000001"></path><polygon points="324.59 409.47 317.02 410.26 316.64 405.87 315.6 393.93 323.17 393.13 324.32 406.32 324.59 409.47" style="fill:#9f5b53"></polygon><polygon points="362.38 408.5 355.05 408.5 354.98 406.84 354.97 406.64 354.6 395.99 354.59 395.78 354.44 391.7 361.79 391.7 362.38 408.5" style="fill:#9f5b53"></polygon><polygon points="323.17 393.13 324.32 406.32 316.64 405.87 315.6 393.93 323.17 393.13" style="opacity:0.2;isolation:isolate"></polygon><polygon points="362.34 407.57 362.33 407.57 354.98 406.64 354.97 406.64 354.59 396.37 354.6 396.37 361.95 396.95 362.33 407.25 362.34 407.57" style="opacity:0.2;isolation:isolate"></polygon><path d="M354,408.06h8.91a.65.65,0,0,1,.63.51L365,415.1a1.09,1.09,0,0,1-.84,1.29l-.24,0c-2.88-.05-5-.22-8.6-.22-2.24,0-9,.23-12,.23s-3.48-3.05-2.22-3.33c5.66-1.23,9.91-2.94,11.73-4.56A1.74,1.74,0,0,1,354,408.06Z" style="fill:#263238"></path><path d="M316.22,407.83h8.91a.65.65,0,0,1,.63.5l1.45,6.54a1.08,1.08,0,0,1-.84,1.28,1,1,0,0,1-.24,0c-2.88-.05-5-.23-8.61-.23-2.23,0-9,.24-12,.24s-3.48-3.05-2.22-3.33c5.66-1.23,9.91-2.94,11.72-4.56A1.78,1.78,0,0,1,316.22,407.83Z" style="fill:#263238"></path><path d="M314.9,404.77h10.77s-.88-92.67,10.76-124c.83,10.34,1.75,21.08,2.66,30,.56,5.54,1.13,10.29,1.66,13.92,3.39,23.34,11.94,80.95,11.94,80.95h10.63s-1.26-55.21-2.52-78.15c-1.39-24.89-2-79.63-2-84.3H319.81C316.1,262.86,306.6,341.28,314.9,404.77Z" style="fill:#0D0D0D"></path><path d="M336.43,280.77c.83,10.34,1.75,21.1,2.66,30,1.32-12.91,3-22.12,3-22.12s1.52-1.25,5.7-7.92,0-19.14,0-19.14C347.87,273.2,336.43,280.77,336.43,280.77Z" style="opacity:0.2;isolation:isolate"></path><polygon points="313.7 401.74 314.22 404.77 326.94 404.77 326.94 401.97 313.7 401.74" style="fill:#0D0D0D"></polygon><polygon points="351.47 402.9 352.69 405.7 363.36 405.7 364.06 402.9 351.47 402.9" style="fill:#0D0D0D"></polygon><path d="M359.72,245.85s-1.5-16.93.73-42.69c.58-6.63,1.4-13.84,2.56-21.5,0,0-21.19-4.68-36,0,0,0-.6,3.13-1.44,8.46-.51,3.22-1.1,7.23-1.69,11.83h0c0,.17-.05.35-.07.52-1.47,11.23-4.27,27.64-4.55,42.71Z" style="fill:#263238"></path><path d="M323.85,202.48c3-2.71,4.58-12.84,4.72-13.23l-3,.87c-.51,3.22-1.1,7.23-1.69,11.83h0C323.9,202.13,323.87,202.31,323.85,202.48Z" style="opacity:0.2;isolation:isolate"></path><path d="M325,192.18s-16.14.07-21.3-1.49S288,165,288,165l-7.82-3.81s1.77-6,4.1-6.22,7.17,5.78,7.69,7.08,14,18.78,14.72,19.73,20.1.06,20.1.06Z" style="fill:#9f5b53"></path><path d="M329.72,180.93c-5.16,1-20.91.83-22.38.29s-11.08-14.64-11.08-14.64l-6,6.65s8.93,17.64,11.27,19,23.27,3.16,23.27,3.16C330.61,189.42,329.72,180.93,329.72,180.93Z" style="fill:#263238"></path><polygon points="313.7 401.74 314.22 404.77 326.94 404.77 326.94 401.97 313.7 401.74" style="fill:#fff;opacity:0.6000000000000001"></polygon><polygon points="351.47 402.9 352.69 405.7 363.36 405.7 364.06 402.9 351.47 402.9" style="fill:#fff;opacity:0.6000000000000001"></polygon><polygon points="292.07 176.66 297.97 169.06 296.26 166.58 290.29 173.23 292.07 176.66" style="fill:#0D0D0D"></polygon><polygon points="292.07 176.66 297.97 169.06 296.26 166.58 290.29 173.23 292.07 176.66" style="fill:#fff;opacity:0.6000000000000001"></polygon></g></g></svg>